<?xml version="1.0" encoding="UTF-8" standalone="no"?>
<svg
   xmlns:dc="http://purl.org/dc/elements/1.1/"
   xmlns:cc="http://creativecommons.org/ns#"
   xmlns:rdf="http://www.w3.org/1999/02/22-rdf-syntax-ns#"
   xmlns:svg="http://www.w3.org/2000/svg"
   xmlns="http://www.w3.org/2000/svg"
   xmlns:sodipodi="http://sodipodi.sourceforge.net/DTD/sodipodi-0.dtd"
   xmlns:inkscape="http://www.inkscape.org/namespaces/inkscape"
   width="589.455"
   height="393.116"
   viewBox="0 0 155.96 104.012"
   version="1.1"
   id="svg4"
   sodipodi:docname="bird.svg"
   inkscape:version="0.92.3 (2405546, 2018-03-11)">
  <metadata
     id="metadata10">
    <rdf:RDF>
      <cc:Work
         rdf:about="">
        <dc:format>image/svg+xml</dc:format>
        <dc:type
           rdf:resource="http://purl.org/dc/dcmitype/StillImage" />
      </cc:Work>
    </rdf:RDF>
  </metadata>
  <defs
     id="defs8" />
  <sodipodi:namedview
     pagecolor="#ffffff"
     bordercolor="#666666"
     borderopacity="1"
     objecttolerance="10"
     gridtolerance="10"
     guidetolerance="10"
     inkscape:pageopacity="0"
     inkscape:pageshadow="2"
     inkscape:window-width="1380"
     inkscape:window-height="782"
     id="namedview6"
     showgrid="false"
     inkscape:zoom="0.49028338"
     inkscape:cx="294.72751"
     inkscape:cy="196.558"
     inkscape:window-x="60"
     inkscape:window-y="0"
     inkscape:window-maximized="1"
     inkscape:current-layer="svg4" />
  <path
     d="m 124.60009,104.007 c 0.082,-0.112 -0.244,0.037 0,0 z m -0.555,10e-4 c 0.15,-0.11 1.065,-0.068 1.357,-0.073 0.234,-0.04 0.917,0.002 1.02,-0.05 l 6.947,-0.202 c 1.013,-0.016 2.208,-0.31 3.4,-0.26 1.003,-0.1 1.737,-0.64 0.567,-1.316 l -4.206,-1.318 c -1.48,-0.528 -4.27,-1.363 -6.128,-1.733 -2.144,-0.755 -4.18,-0.12 -6.153,-0.727 -2.768,-1.62 -5.835,-2.235 -8.902,-2.505 -2.31,-1.49 -4.98,-2.544 -7.6,-3.28 -1.906,-1.637 -4.621999,-1.768 -6.735999,-2.963 -1.635,-1.4 -3.804,-2.008 -5.708,-2.676 -1.268,-1.557 -3.553,-1.512 -4.715,-3.13 -0.94,-0.61 -1.862,-0.47 -2.06,-1.755 -1.77,-1.343 -3.182,-2.895 -4.832,-4.242 -1.712,-1.485 -3.32,-3.6 -5.678,-4.305 -0.3,-1.5 -1.99,-2.54 0.048,-3.44 4.384,-3.19 9.676,-4.708 15.022,-5.243 7.678,-1.35 15.573999,-0.948 23.339999,-1.315 9.584,0.147 19.335,0.268 28.593,2.716 1.92,0.285 3.82,0.9 5.256,1.562 0.593,0.206 1.052,0.57 1.487,0.696 1.19,0.187 1.786,0.75 2.794,0.935 0.656,0.524 1.214,0.4 1.46,0.716 1.24,0.03 1.9,0.574 3.062,-0.242 0.475,-0.995 0.19,-2.232 -0.275,-2.433 -0.78,-0.37 -1.014,-1.27 -1.92,-1.42 -1.104,-0.74 -2.81,-1.933 -4.18,-2.316 -1.235,-0.7 -2.042,-0.58 -3.335,-1.33 -3.19,-0.663 -5.75,-1.825 -9.15,-1.867 -7.216,-0.956 -14.542,-1.15 -21.792,-1.182 -2.96,-1.388 -6.336,-1.083 -9.346,-2.305 -2.402,0.26 -3.39,-2.363 -5.862999,-2.1 -0.822,-1.154 -2.575,-1.033 -3.466,-1.64 0.024,-2.126 -2.65,-2.1 -3.57,-3.754 -3.246,0.155 -0.204,-2.013 -0.843,-3.86 1.757,-1.71 0.606,-4.53 2.438,-6.2 0.877,-1.538 0.56,-3.272 2.194,-4.44 1.14,-1.846 0.978,-4.155 3.007,-5.53 3.379999,-3.823 5.822999,-8.434 8.619999,-12.75 0.84,-1.772 1.612,-2.948 1.885,-4.492 0.65,-1.358 0.86,-4.117 0.316,-5.363 -0.29,-0.728 -1.086,-3.08 -2.517,-2.904 -0.4,3.195 -1.744,6.26 -2.998,9.2 -4.06,8.592 -9.881999,16.288 -16.299999,23.3 -6.17,5.69 -11.948,12.083 -19.708,15.6 -5.135,1.953 -10.446,3.74 -15.958,4.157 -0.966,-0.623 -1.406,-2.4 -2.632,-3.053 -0.8,-1.267 -1.877,-2.264 -3.153,-2.603 -0.522,-1.7 -2.872,-1.52 -3.657,-3.086 -0.798,-0.637 -2.263,-1.223 -3.227,-2.015 -0.973,-0.58 -3.948,-1.34 -2.527,-2.057 1.85,-0.743 3.656,-3.807 1.823,-5.187 0.636,-1.158 1.884,-3.76 -0.415,-4.205 0.487,-0.39 1.212,-1.83 1.38,-2.928 0.073,-1.532 -1.833,-2.137 -0.44,-3.563 0.837,-1.584 -0.392,-3.307 -1.92,-3.792 1.116,-1.228 2.122,-3.97 -0.088,-4.734 1.56,-1.088 0.896,-4.97 -1.322,-3.782 -0.706,0.357 0.57,-1.156 0.554,-1.734 0.345,-1.653 -1.443,-2.793 0.38,-4.01 0.087,-2.26 2.975,-2.997 3.18,-5.29 0.72,-1.317 2.3,-2.888 0.623,-4.185 -3.39,0.703 -6.297,2.976 -8.975,5.086 -5.832,4.373 -10,10.57 -14.65,16.104 -1.762,2.582 -3.195,5.338 -4.89,7.958 -3.0840002,5.054 -4.9100002,10.79 -7.1250002,15.967 -1.58,4.286 -1.7,8.822 -0.815,13.262 0.353,1.658 1.116,3.21 1.743,4.325 1.672,2.638 4.4050002,3.76 5.6950002,6.58 0.862,1.158 -1.185,0.644 -1.51,1.473 -3.2730002,1.36 -5.9800002,4.122 -7.9360002,6.46 -0.768,1.708 -2,3.13 -2.15500001,4.81 -0.317,1.596 -0.268,2.922 -0.293,3.933 -0.144,0.755 0.3,1.516 0.49000001,2.637 -0.16000001,0.322 -0.28000001,1.39 -0.54200001,1.657 -0.24,0.97 -0.272,1.2 -0.434,2.277 -0.055,0.362 -0.145,1.148 -0.012,2.297 0.698,0.21 1.37500001,-0.7 1.88700001,-0.82 0.653,-0.233 1.217,-0.487 1.674,-0.607 0.494,-0.256 1.993,-0.59 2.664,-0.886 0.32,-0.23 1.73,-0.174 2.042,-0.324 1.43,-0.73 3.1080002,0.132 4.4470002,0.504 0.854,0.438 2.484,0.532 3.008,0.686 0.9,0.076 2.3,0.24 3.242,0.365 2.404,0.538 6.202,0.22 8.46,0.518 a 23.35,23.35 0 0 0 2.466,-0.466 c 2.388,0.105 5.28,-0.49 7.208,-0.888 1.88,-0.147 4.368,-1.466 6.4,-1.365 2.955,1.25 6.35,2.367 9.326,3.125 2.446,0.787 4.868,1.017 7.344,1.787 2.48,-0.04 5.2,0.758 7.703,1.264 1.8,0.545 3.614,0.797 5.615,1.138 2.12,0.197 3.962,0.396 6.048,0.396 1.23,0.365 2.673,0.154 3.977,0.578 3.293,-0.143 6.323,0.7 9.616,1.118 l 9.799999,1.243 c 1.914,0.388 4.254,0.745 5.738,0.693 3.45,0.45 7.14,0.736 10.492,0.992 1.512,0.112 3.327,-0.003 4.842,0.133 z m -3.172,-0.09 c 0.166,-0.11 0.05,0.065 0,0 z m 6.387,-0.1 c 0.122,0.005 -0.036,0.145 0,0 z m -0.277,0 c 0.122,0.005 -0.036,0.145 0,0 z m -0.277,0 c 0.122,0.005 -0.036,0.145 0,0 z m -7.493,0.008 c 0.064,-0.012 0.165,0.1 0,0 z m 15.26,-0.285 c 0.122,0.005 -0.036,0.145 0,0 z m -21.917,-0.27 c 0.064,-0.012 0.165,0.1 0,0 z m 12.676,-0.763 c -1.144,0.077 -2.81,-0.246 -3.338,-0.17 -1.417,-0.272 -2.68,0.096 -4.314,-0.36 -0.384,0.25 -1.49,-0.1 -1.98,-0.058 -1.457,-0.34 -3.193,-0.417 -4.487,-0.5 -1.495,-0.15 -3.073,-0.33 -4.67,-0.562 -2.887,-0.15 -6.38,-0.778 -9.525999,-1.188 -3.066,-0.68 -5.92,-0.837 -8.99,-1.05 -2.043,-0.285 -4.163,-0.698 -6.505,-0.965 1.018,-0.445 -0.788,-1.204 1.194,-0.784 l 13.172,1.781 c 2.082,0.258 3.618,0.2 5.717999,0.29 4.262,-0.19 8.672,0.742 12.898,0.75 2.996,0.218 6.56,-0.123 9.586,0.333 0.502,-0.054 1.572,0.014 2.5,0.15 1.964,0.394 4.66,0.796 5.998,1.766 0.275,0.01 0.614,0.466 -0.172,0.068 -0.605,0.487 -1.57,0.05 -1.852,0.255 -0.592,0.048 -1.73,0.042 -1.997,0.053 -0.818,0.15 -2.173,0.136 -3.236,0.185 z m -0.35,-0.025 c -0.388,-0.064 -0.065,0.078 0,0 z m 5,-0.22 c -0.028,-0.072 -0.275,0.047 0,0 z m -8.07,0.03 c -0.12,-0.148 -0.128,0.048 0,0 z m -0.61,-0.057 c -0.1,-0.084 -0.027,0.105 0,0 z m 11.72,-0.022 c -0.08,-0.104 -0.08,0.104 0,0 z m -0.83,-0.002 c -0.05,-0.077 -0.3,0.054 0,0 z m -0.832,0 c -0.05,-0.077 -0.3,0.054 0,0 z m -11.756,-0.01 c -0.1,-0.084 -0.027,0.105 0,0 z m -2.38,-0.216 c -0.028,-0.072 -0.275,0.047 0,0 z m -0.28,0.006 c -0.023,-0.14 -0.257,0.018 0,0 z m -4.182,-0.53 c -0.12,-0.148 -0.128,0.048 0,0 z m -0.258,-0.02 c -0.045,-0.083 -0.132,0.127 0,0 z m -0.595,-0.003 c -0.1,-0.084 -0.027,0.105 0,0 z m -2.753,-0.255 c -0.12,-0.148 -0.128,0.048 0,0 z m -7.466,-0.905 c -0.128,-0.048 -0.12,0.148 0,0 z m 23.85,-0.183 c 0.098,-0.136 -0.15,-0.004 0,0 z m -7.957,-1.4 c -2.664,-0.44 -5.88,-0.305 -8.69,-0.56 -3.124,-0.345 -6.013,-0.323 -9.309999,-0.8 -2.974,-0.323 -4.956,-0.32 -7.74,-0.7 -3.067,-0.18 -6.278,-0.555 -9.412,-1.058 -1.65,-0.114 -0.858,-0.666 0.163,-0.354 4.086,0.398 8.01,0.313 12.127,0.743 6.864999,0.358 13.769999,0.75 20.539999,1.434 0.784,0.194 2.605,0.744 2.435,1.3 l -0.117,-0.013 z m -7.302,-0.51 c 0.042,-0.123 -0.107,0.015 0,0 z M 69.291091,97.992 c 0.122,0.005 -0.036,0.145 0,0 z m 9.745,-0.546 c -1.92,-0.053 -3.685,-0.187 -5.348,-0.256 -3.455,-0.304 -7.233,-0.883 -10.376,-1.82 -0.536,-0.072 -2.248,-0.95 -0.98,-0.76 0.68,-0.53 2.156,1.133 2.015,0.26 0.753,0.343 1.332,0.56 1.65,0.38 0.58,0.21 1.55,0.695 1.418,0.195 0.67,0.384 2.293,0.46 2.948,0.33 0.427,0.19 1.943,-0.163 2.576,0.394 0.6,-0.08 1.344,-0.015 2.273,0.054 0.68,-0.08 2.775,0.022 1.14,-0.454 -1.64,-0.024 -0.37,-0.518 0.52,-0.38 0.98,-0.05 3.3,0.656 2.794,1.898 -0.076,0.25 -0.454,0.165 -0.632,0.16 z m -17.115,-2.895 c 0.083,-0.173 -0.073,0.057 0,0 z m 27.75,1.982 c 0.166,-0.11 0.05,0.065 0,0 z m 17.613999,-0.754 c -3.09,-0.578 -6.558,-0.5 -9.733999,-0.907 -6.09,-0.9 -12.516,-0.54 -18.44,-2.497 -1.86,-0.524 -1.14,-1.023 0.472,-0.502 7.89,0.915 15.885,1.625 23.799999,1.994 1.57,0.3 3.582,0.747 4.585,1.87 -0.17,0.16 -0.563,-0.076 -0.672,0.04 z m -6.206,-0.59 c -0.016,-0.093 -0.205,0.03 0,0 z M 60.533091,95.127 c -2.735,-0.347 -5.753,-0.97 -8.135,-2.386 -0.166,-0.417 1.762,0.266 1.44,0.09 0.68,0.548 1.343,0.013 1.932,0.792 0.934,-0.008 0.605,-0.366 1.646,0.406 0.502,-0.194 -0.837,-1.31 0.548,-0.387 0.957,0.27 0.457,-0.93 1.404,0.173 0.426,0.442 2.68,0.977 1.165,1.312 z m -7.025,-2.538 c -0.002,-0.165 -0.18,0.02 0,0 z m 18.428,2.29 c -1.562,-0.298 -4.88,-0.42 -6.865,-0.944 -2.23,-0.506 -4.454,-1.093 -6.4,-1.995 0.444,-0.536 2.177,0.886 2.415,0.49 -1.035,-1.195 1.3,0.418 1.95,0.528 -0.996,-1.46 1.41,0.682 1.263,0.025 -0.862,-1.184 1.364,1.1 1.44,0.08 1.215,0.845 2.754,0.268 2.043,0.233 0.618,0.024 1.26,-0.025 1.95,0.187 0.793,0.096 0.577,-0.386 1.388,-0.316 1.275,0.167 1.49,-0.34 2.282,-0.528 0.977,0.02 3.02,0.507 2.825,1.683 -1.35,0.634 -3.032,0.285 -4.3,0.558 z M 0.01909079,93.421 c 0.134,-0.12 -0.008,0.166 0,0 z m 1.18000001,-0.27 c -0.46000001,-0.873 -0.04,-1.547 0.366,-2.767 0.494,-0.873 0.7,-1.538 1.557,-1.84 0.417,-0.365 0.054,-1.308 0.683,-0.617 0.883,-0.398 1.208,1.987 2.193,1.324 1.786,-0.136 3.618,-0.765 5.5400002,-0.1 -0.097,0.255 -1.024,0.01 -1.305,0.07 -1.0200002,0.063 -2.8920002,0.328 -3.6500002,0.732 -1.625,0.587 -3.62,1.684 -4.623,2.524 -0.483,0.246 -0.125,0.486 -0.763,0.673 z m 0.155,-0.076 c -0.015,-0.17 -0.112,0.168 0,0 z m -0.19,-0.017 c -0.08,-0.104 -0.08,0.104 0,0 z m 1.386,-1.028 c -0.003,-0.18 -0.164,0.195 0,0 z m -0.136,-0.25 c 1.342,-0.595 3.507,-2.105 1.458,-2.97 -1.095,-0.034 -1.637,1.165 -1.123,1.703 -0.58,0.085 -1.472,1.42 -0.335,1.267 z m -0.98,-0.852 c 0.03,-0.292 -0.09,0.127 0,0 z m 1.12,-0.287 c 0.112,-0.214 0.208,-0.042 0,0 z m 0.137,-0.08 c -0.08,-0.104 -0.08,0.104 0,0 z m -1.103,-0.01 c -0.017,-0.057 -0.208,-0.05 0,0 z m 0.097,-0.2 c -0.1,-0.084 -0.027,0.105 0,0 z m 2.984,-0.067 c -0.186,-0.126 -0.086,0.092 0,0 z m 2.046,-0.4 c 0.042,-0.123 -0.107,0.015 0,0 z m -1.98,-0.03 c 0.058,-0.147 -0.2,-0.035 0,0 z m -2.566,-0.394 c -0.1,-0.084 -0.027,0.105 0,0 z m 7.8760002,-0.204 c -0.045,-0.083 -0.1320002,0.127 0,0 z M 7.0950908,89.13 c -0.038,-0.087 -0.075,0.155 0,0 z m -4.555,-0.204 c -0.015,-0.142 -0.198,0.198 0,0 z m 1.68,-1.012 c -0.143,-0.1 -0.103,0.058 0,0 z m 9.6150002,5.167 c 0.04,-0.075 0.15,0.18 0,0 z m -9.4600002,0.04 c 0.166,-0.11 0.05,0.065 0,0 z M 23.671091,93.003 c -0.826,-0.107 -2.448,-0.132 -3.047,-0.2 -1.272,-0.147 -2.49,-0.367 -3.372,-0.555 -1.374,-0.18 -2.957,-0.4 -3.978,-0.778 -0.98,-0.146 0.025,-0.99 0.793,-0.437 0.807,-0.08 0.85,-1.067 1.768,-0.844 0.214,-0.407 -0.976,-0.633 -0.11,-0.94 1.315,0.328 -0.293,-1.128 1.462,-0.742 1.795,0.48 1.242,-0.8 0.113,-0.46 1.413,-0.435 3.393,-0.66 4.977,-0.208 -1.6,0.427 2.65,0.415 0.773,0.696 -1.233,-0.18 -0.636,0.607 0.136,0.425 0.78,-0.24 2.91,0.007 0.966,0.233 -0.224,0.788 2.502,0.016 2.234,0.544 -0.678,0.065 -2.82,0.238 -1.355,0.626 0.466,0.44 1.526,0.096 2.056,0.48 -0.768,-0.064 -3.138,0.395 -1.093,0.424 0.98,0.262 1.576,0.07 2.41,0.384 -0.418,0.005 -1.892,0.343 -0.675,0.514 0.52,0.102 1.302,0.5 0.795,0.42 -0.766,0.43 -1.658,0.103 -2.262,0.308 -0.478,-0.093 -1.684,0.05 -2.6,0.1 z m -2.248,-0.196 c -0.078,-0.064 -0.393,0.104 0,0 z m -3.978,-0.552 c -0.173,-0.148 0.01,0.144 0,0 z m -1.02,-0.154 c 0.082,-0.112 -0.244,0.037 0,0 z m 10.268,-0.702 c -0.055,-0.107 -0.33,0.08 0,0 z m -2.554,-1.877 c -0.002,-0.165 -0.18,0.02 0,0 z m -0.54,-1.06 c -0.01,-0.17 -0.157,0.066 0,0 z m 14.342,4.286 c 0.064,-0.012 0.165,0.1 0,0 z m 63.039999,-0.12 c -8.295999,-1.02 -16.609999,-1.355 -24.977999,-2.55 -2.363,-0.09 -1.766,-0.912 0.667,-0.46 4.12,0.19 8.27,0.365 12.378,0.872 4.025,0.51 8.545,0.144 12.135999,2.047 -10e-4,0.093 -0.13,0.177 -0.202,0.094 z M 32.166091,92.62 c -1.87,0.044 0.774,-0.457 -0.468,-0.444 -0.72,-0.216 1.385,-0.7 2.02,-1.037 1.116,-0.92 -3.238,-0.004 -1.188,-0.737 1.792,-0.667 -2.105,0.048 -0.592,-0.503 1.236,-0.21 0.76,-0.804 -0.325,-0.637 -0.696,-0.19 -1.375,0.07 -0.338,-0.303 0.615,-0.402 1.776,-0.37 2.273,-0.993 -0.687,0.187 -3.145,0.62 -1.66,-0.173 1.758,-0.75 -0.747,-0.105 -0.203,-1.218 -0.02,-0.597 2.728,-1.336 1.236,-1.336 -1.266,0.22 -4.43,0.758 -2.508,-0.612 -0.487,-0.992 2.595,-0.863 2.205,-1.823 -1.048,0.33 -3.372,0.8 -3.617,-0.056 0.927,-0.256 2.51,-0.977 0.823,-0.848 0.664,-0.62 -2.5,1.06 -2.162,0.15 1.156,-0.775 2.82,-0.453 3.463,-1.656 1.982,-1.044 2.88,0.993 3.322,2.597 0.883,2.402 2.34,4.77 4.507,5.77 0.986,0.914 1.494,0.56 2.067,1.654 0.537,0.316 -1.295,0.68 -1.888,0.953 -2.362,0.46 -4.434,0.968 -6.968,1.253 z m -0.48,-0.085 c -0.395,-0.064 -0.096,0.07 0,0 z m -0.705,-10.652 c 0.075,-0.203 -0.2,-0.016 0,0 z m -18.6,10.627 c -0.07,-0.16 0.363,0.28 0,0 z m 37.898,0.046 c -0.492,-0.136 -2,-0.464 -0.804,-0.906 0.736,-0.332 2.715,1.087 0.804,0.906 z m 0.77,-0.254 c -0.1,-0.084 -0.027,0.105 0,0 z m -38.9,0.16 c 0.122,0.005 -0.036,0.145 0,0 z m 49.398,-0.216 c 0.043,-0.078 0.113,0.21 0,0 z m -16.393,-0.058 c 0.17,0 -0.025,0.186 0,0 z M 8.2640908,92.185 c 0.122,0.005 -0.036,0.145 0,0 z M 72.664091,92.062 c -3.038,-0.003 -6.007,-0.182 -9.146,-0.96 -0.847,-0.152 -2.296,-0.444 -2.572,-1.014 0.8,0.16 1.85,0.44 2.515,0.398 -0.564,-0.64 2.34,0.98 1.452,0.07 0.655,-0.078 1.73,0.635 2.105,0.443 -0.8,-1.343 2.296,1.08 0.984,-0.278 1.268,-0.195 0.584,0.976 1.375,-0.243 1.603,-0.32 1.52,-0.75 2.506,-0.497 1.09,0.115 3.362,1.866 1.22,2.066 -0.146,0.053 -0.294,0.003 -0.44,0.013 z m -9.08,-1.47 c -0.033,-0.116 -0.073,0.094 0,0 z m -36.436,1.428 c 0.043,-0.078 0.113,0.21 0,0 z m 17.174,-0.13 c 0.122,0.005 -0.036,0.145 0,0 z M 9.3550908,91.92 c 0.068,-0.162 0.068,0.162 0,0 z M 43.768091,91.613 c 0.122,0.005 -0.036,0.145 0,0 z m 3.927,-0.024 c -0.83,-0.02 -1.812,-0.727 -0.197,-0.832 0.403,0.136 1.258,0.955 0.197,0.832 z m 8.393,-0.284 c -0.776,0.084 -2.813,-0.845 -2.054,-1.194 0.88,0.567 1.83,-0.398 1.716,-0.27 -1.525,-0.556 0.202,-0.376 0.857,-0.012 1.32,0.246 -0.923,-1.14 -1.33,-1.46 -0.9,-0.133 -1.554,-1.138 -0.14,-0.603 1.46,0.417 3.696,1.223 3.537,3 -0.76,0.426 -1.695,0.73 -2.584,0.55 z m -9.69,-0.077 c 0.15,-0.07 0.126,0.18 0,0 z M 6.4620908,91.094 c 0.318,-0.357 2.15,-0.73 2.42,-0.832 0.616,-0.108 2.3870002,-0.415 2.3780002,0.46 -1.183,-0.08 -2.4960002,-0.003 -3.5460002,0.253 -0.396,0 -0.838,0.26 -1.252,0.12 z m 0.26,-0.102 c -0.032,-0.116 -0.073,0.094 0,0 z m 4.4300002,-0.293 c -0.01,-0.17 -0.157,0.066 0,0 z M 9.4170908,90.286 c -0.08,-0.104 -0.08,0.104 0,0 z m -9.11800001,0.643 c 0.037,-0.277 0.12,0.263 0,0 z M 45.645091,90.736 c -0.49,-0.22 -1.73,-0.302 -0.6,-0.533 0.362,-0.607 1.652,0.638 0.6,0.533 z m -19.904,-0.23 c 0.122,0.005 -0.036,0.145 0,0 z M 7.6710908,90.572 c 0.166,-0.11 0.05,0.065 0,0 z m 7.8080002,-0.344 c 0.122,0.005 -0.036,0.145 0,0 z m -6.3800002,0 c 0.122,0.005 -0.036,0.145 0,0 z M 51.399091,90.143 c -0.78,0.263 -2.838,-0.61 -1.308,-0.762 0.604,-0.286 -0.322,-0.973 0.59,-0.642 0.678,0.204 2.634,1.006 1.196,0.04 -0.836,-0.12 -2.065,-0.812 -1.566,-1.345 1.34,-0.095 3.332,1.355 2.07,2.636 -0.32,-0.04 -0.663,0.224 -0.983,0.07 z M 0.57309079,90.093 c 0.134,-0.12 -0.008,0.166 0,0 z M 40.800091,90.073 c 0.052,-0.074 0.09,0.135 0,0 z m 2.79,-0.09 c -0.696,-0.056 -2.393,-1.14 -1.125,-1.425 0.324,0.373 2.657,1.31 1.125,1.425 z m -0.64,-0.19 c -0.177,-0.248 0.26,0.252 0,0 z m 51.16,-0.174 c -4.54,-0.537 -9.08,-0.544 -13.678,-1.18 -2.57,-0.165 -5.257,-0.24 -7.763,-0.81 1.87,-0.74 5.07,-0.224 7.466,-0.3 4.4,0.21 8.93,0.22 13.21,1.433 0.33,0.11 2.39,1.045 0.766,0.848 z m -79.015,-0.265 c 0.162,-0.142 -0.01,0.154 0,0 z m 27.023,-0.116 c -0.177,-0.248 0.26,0.252 0,0 z m -41.26700021,0.02 c 0.134,-0.12 -0.008,0.166 0,0 z M 47.181091,89.19 c -1.995,-0.298 -4.188,-0.858 -5.43,-2.446 0.73,0.283 2.26,1.423 2.57,1.28 -0.55,-0.322 -1.43,-1.007 -0.303,-0.532 1.35,0.35 3.34,1.14 4.25,0.957 -0.744,-0.56 -1.61,-0.96 -2.523,-1.218 1.098,-0.723 4.05,0.297 3.048,1.8 -0.527,0.04 -1.074,0.242 -1.612,0.157 z m 21.943,-0.014 c -4.085,-0.358 -8.327,-0.567 -12.196,-1.897 a 53.39,53.39 0 0 0 3.619,0.384 c -0.296,-0.54 1.928,-0.342 1.714,0.048 1.346,1.065 0.15,-0.905 1.215,0.096 1.063,0.73 0.73,-0.515 1.718,0.337 0.327,-0.557 1.362,0.317 1.48,-0.7 1.713,0.464 4.487,0.548 1.633,-0.66 0.67,-0.254 2.218,0.602 2.756,1.47 0.948,1.176 -1.507,0.653 -1.937,0.92 z m -2.32,-1.682 c -0.075,-0.155 -0.038,0.087 0,0 z m -61.8070002,1.44 c 0.14,-0.06 0.12,0.18 0,0 z m -0.347,-0.555 c 0.043,-0.078 0.113,0.21 0,0 z M 40.688091,88.373 c -0.864,-0.193 -1.2,-0.93 -0.158,-0.973 0.273,0.24 1.147,0.868 0.158,0.973 z m -0.77,-0.397 c -0.002,-0.165 -0.18,0.02 0,0 z m -28.05,-0.035 A 2.56,2.56 0 0 1 9.8680908,86.497 c -0.55,-0.95 0.4000002,-2.47 1.5070002,-3.063 0.787,-0.792 2.364,-1.064 3.597,-0.77 0.652,0.315 1.52,-0.055 1.11,0.817 0.624,0.257 1.662,0.302 0.826,0.988 0.183,0.36 -0.384,0.905 -0.896,1.205 1.443,0.23 -0.823,0.872 -1.297,1.4 -0.743,0.283 -1.807,0.988 -2.847,0.867 z m 1.507,-0.297 c 0.042,-0.123 -0.107,0.015 0,0 z m -0.533,-0.302 c 1.63,-0.08 3.202,-1.606 2.63,-3.207 -1.216,-2.597 -5.6180002,-0.776 -5.082,1.928 0.095,1.366 1.412,1.376 2.453,1.278 z m -0.532,-1.725 c -1.336,-0.398 0.414,-1.793 0.726,-0.808 0.158,0.592 -0.263,0.78 -0.726,0.808 z m 0.725,-0.62 c -0.033,-0.13 -0.14,0.095 0,0 z m -1.075,-0.188 c 0.034,-0.255 -0.01,0.102 0,0 z m 0.863,-0.252 c 0.098,-0.136 -0.15,-0.004 0,0 z m 2.08,-1.113 c -0.177,-0.248 0.26,0.252 0,0 z m -4.578,3.643 c -0.16,-0.306 -0.144,0.077 0,0 z m -0.272,-0.363 c -0.085,-0.272 -0.05,0.22 0,0 z m 4.975,-0.238 c 0.076,-0.2 -0.16,-0.024 0,0 z m 1.59,-0.63 c 0.03,-0.15 -0.142,0.15 0,0 z m -1.02,-1.544 c 0.042,-0.123 -0.107,0.015 0,0 z m -0.825,-1.095 c -0.055,-0.142 -0.245,-0.074 0,0 z m 1.38,-0.295 c 0.082,-0.112 -0.244,0.037 0,0 z M 0.84009079,87.889 c 0.043,-0.078 0.113,0.21 0,0 z M 45.660091,87.826 c -0.81,-0.12 -2.1,-1.354 -0.695,-0.585 0.096,0.1 1.432,0.563 0.695,0.585 z m -30.583,0.023 c 0.174,-0.85 1.75,-1.12 2.342,-1.225 0.274,-0.084 1.792,0.34 0.71,0.393 -0.842,0.005 -2.05,0.588 -3.05,0.832 z m 0.173,-0.068 c -0.05,-0.077 -0.3,0.054 0,0 z m 2.287,-0.692 c -0.05,-0.22 -0.205,0.01 0,0 z m -1.38,-0.09 c -0.063,-0.246 -0.24,0.15 0,0 z m 1.656,-0.184 c -0.073,-0.205 -0.33,-0.193 0,0 z m -1.113,-0.044 c -0.232,-0.204 -0.074,0.075 0,0 z m 20.47,0.77 c 0.08,-0.104 0.08,0.104 0,0 z m 52.07,-0.364 c -5.722,-1.42 -11.747,-1.53 -17.664,-1.667 -1.506,-1.015 4.66,-1.042 3.994,-0.8 4.672,0.365 9.873,-0.34 14.124,2.062 0.677,0.372 -0.252,0.5 -0.454,0.405 z M 5.1350908,86.534 c 0.804,-1.05 -3.795,0.864 -1.19,-0.413 -0.522,-0.1 -1.027,-1.06 -0.986,-0.855 -0.2,-0.245 0.694,-1.745 -0.242,-1.643 0.03,0.773 -0.59,1.048 -0.535,0.316 -0.503,-0.863 -0.34,-2.262 0.446,-3.103 1,-0.001 0.922,-1.354 1.722,-1.362 -0.377,0.502 -0.158,1.694 0.235,0.773 1.077,-1.457 -0.162,0.934 0.868,0.958 0.974,-0.396 0.36,0.372 0.768,0.69 0.738,-0.808 0.815,0.368 1.3,-0.033 0.938,-0.748 1.813,-0.034 2.6320002,-0.807 0.8,-0.233 -0.8620002,1.18 0.674,0.404 0.864,-0.08 2.354,-0.954 2.95,-0.952 -1.27,0.698 -0.535,0.793 0.283,0.39 0.268,0.395 -1.794,0.42 -1.58,0.57 -1.816,0.916 -3.7300002,2.297 -5.2400002,3.704 -0.7,0.985 -1.066,0.94 -1.81,1.318 l -0.296,0.046 z m 0.08,0.017 c -0.002,-0.165 -0.18,0.02 0,0 z m -0.51,-0.404 c -0.232,-0.204 -0.074,0.075 0,0 z m -1.17,-0.172 c -0.26,-0.252 0.18,0.247 0,0 z m 2.93,-0.013 c -0.002,-0.165 -0.18,0.02 0,0 z m 1.575,-1.44 c -0.07,-0.247 -0.072,0.132 0,0 z m -6.057,-1.654 c -0.05,-0.275 -0.144,0.14 0,0 z m 5.548,-0.827 c 0.126,-0.2 -0.234,-0.144 0,0 z m -0.422,-0.46 c -0.175,-0.2 -0.218,0.03 0,0 z m -3.985,-0.857 c -0.032,-0.116 -0.073,0.094 0,0 z m 1.626,-0.598 c -0.03,-0.187 -0.088,0.1 0,0 z m -0.86,-0.402 c 0.012,-0.204 -0.13,0.24 0,0 z m 61.6570002,6.59 c -2.997,-0.146 -6.03,-0.46 -8.906,-1.193 -0.192,-0.68 2.373,0.316 2.14,-0.307 1.503,0.767 0.84,-0.166 1.94,0.138 0.997,0.734 0.9,-0.02 1.645,0.315 1.35,0.763 -0.257,-1.04 1.91,-0.328 0.782,-0.265 1.947,-0.923 2.863,0.037 2.084,1.2 -0.65,1.43 -1.6,1.338 z m -27.398,-0.056 c 0.146,-0.792 -0.232,-2.907 0.794,-1.65 0.293,0.607 -0.306,1.47 -0.794,1.65 z m 10.183,-0.33 c -2.122,-0.294 -4.617,0.264 -5.996,-1.337 1,0.376 1.914,0.278 2.82,0.514 0.608,0.204 1.05,-0.378 1.772,0.22 0.478,-0.2 -0.63,-0.92 0.812,-0.295 1.487,0.714 -0.458,-0.974 1.477,-0.182 1.126,-0.203 2.122,-0.456 3.1,-0.82 0.752,-0.146 1.817,-0.77 2.95,-1.182 1.575,-0.887 2.955,-2.5 4.34,-3.172 -0.972,2.76 -4.126,4.273 -6.675,5.495 -1.492,0.436 -3.03,0.732 -4.603,0.758 z m -8.83,-0.64 c 1.38,-1.142 -1.718,-2.72 -0.23,-2.94 1.197,0.302 1.138,2.476 0.23,2.94 z m 46.33,-0.51 c -5.025,-1.672 -10.46,-0.815 -15.643,-1.382 -4.69,0.208 -0.686,-0.687 1.618,-0.698 4.552,-0.403 9.386,-0.2 13.775,1.187 0.714,0.3 2.02,1.16 0.25,0.893 z m -62.057,-0.118 c 0.96,-0.415 2.322,-0.843 3.53,-1.05 -1.037,0.68 -2.3,0.978 -3.53,1.05 z M 0.59109079,84.243 c 0.005,-0.185 0.135,0.142 0,0 z M 62.307091,83.993 c -1.2,-0.09 -2.984,-0.292 -3.82,-0.74 1.176,-0.403 1.516,0.16 2.127,-0.352 1.333,-0.526 1.502,-0.464 2.507,-0.428 2.677,0.827 1.437,1.65 -0.815,1.52 z M 36.738091,84 c 0.28,-0.587 0.316,-3.714 1.06,-2.017 0.317,0.777 -0.31,1.832 -1.06,2.017 z m -14.35,-0.112 c -0.52,-0.377 0.62,-0.19 0,0 z m -0.535,-0.386 c -1.356,-0.107 0.695,-0.866 1.24,-1.017 1.43,-0.496 3.846,-1.702 4.75,-1.674 -1.76,1.06 -3.754,1.874 -5.606,2.717 l -0.182,0.02 -0.203,-0.045 z m 27.038,-0.23 c -2.228,-0.055 0.754,-0.006 -0.478,-0.51 1.57,-0.556 1.985,-0.687 4.234,-0.862 2.733,-0.303 4.64,-2.5 6.535,-4.48 1.994,-0.743 -1.956,3.51 -3.283,3.938 -2.054,1.393 -4.53,2.016 -7.007,1.913 z m -8.073,-0.225 c -0.204,-0.833 -1.473,-1.427 -1.32,-2.287 0.952,-0.86 2.636,2.524 1.32,2.287 z m 6.532,0.124 c -0.042,-0.123 0.107,0.015 0,0 z m -35.432,-0.125 c 0.05,-0.133 0.056,0.083 0,0 z m 15.268,-0.138 c 1.305,-0.376 0.367,-0.133 0,0 z m 0.964,-0.172 c 0.324,-0.573 1.11,0.028 0,0 z m 55.43,-0.18 c -5.827,-1.666 -11.995,-1.098 -18.01,-1.348 2.132,-0.95 5.662,-0.787 8.2,-0.83 3.39,0.25 7.68,-0.456 10.222,2.127 l -0.414,0.052 z m -61.597,-0.22 c 0.442,-0.627 3,-1.284 2.4,-0.896 -0.718,0.41 -1.664,0.878 -2.4,0.896 z m 13.524,-0.113 c 0.552,-0.19 0.036,-3.01 1.066,-1.6 0.43,0.875 -0.177,1.553 -1.066,1.6 z m 6.706,-0.62 c -1.676,-1.07 -0.572,-2.27 -1.602,-2.468 0.258,-0.396 0.828,-1.07 1.635,0.25 0.345,0.496 0.496,2.69 -0.033,2.218 z m -0.083,-1.298 c -0.446,-0.562 -1.134,-0.233 0,0 z m -19.584,1.12 c 0.922,-0.362 2.327,-1.575 3.1,-1.385 -0.893,0.66 -1.918,1.517 -3.1,1.385 z m 42.58,-0.327 c 0.585,-0.034 0.054,0.22 0,0 z m -50.54,-0.053 c 0.068,-0.526 1.885,-0.812 0.672,-0.218 -0.198,0.107 -0.49,0.247 -0.672,0.218 z m 0.394,-0.143 c -0.002,-0.165 -0.18,0.02 0,0 z m 34.972,0.067 c -0.774,0.04 -2.684,-0.292 -1.882,-0.6 a 17.12,17.12 0 0 0 3.805,-0.793 c 1.14,-0.107 2.774,-0.783 3.38,-1.205 0.142,-0.485 2.08,-0.784 1.6,-1.423 1.504,-0.2 2.505,-4.524 2.667,-1.448 -1.73,3.375 -5.974,5.147 -9.58,5.47 z m -28.032,0.005 c 1.6,-0.844 3.17,-2.1 4.87,-2.862 -1.634,0.91 -0.46,1.342 -1.996,1.903 -0.87,0.26 -1.953,0.666 -2.873,0.96 z m 6.832,-0.213 c 0.76,-0.353 2.012,-1.097 2.716,-0.92 -0.803,0.63 -1.8,0.726 -2.716,0.92 z m 0.008,-0.165 c 0.103,-0.058 0.143,0.1 0,0 z m -11.548,-0.212 c 0.505,-0.786 2.254,-0.962 0.673,-0.238 -0.18,0.022 -0.444,0.3 -0.673,0.238 z m 1.49,-0.743 c -0.124,-0.1 -0.124,0.1 0,0 z m 7.657,0.63 c 0.67,-1.016 2.912,-1.525 0.79,-0.235 -0.253,0.116 -0.484,0.297 -0.79,0.235 z m -7.9,-0.132 c 0.407,-0.68 2.367,-0.663 0.993,-0.25 -0.253,-0.21 -1.21,0.628 -0.993,0.25 z m 0.176,0.018 c -0.058,-0.19 -0.177,-0.035 0,0 z m 18.88,-10e-4 c 0.99,-0.733 1.54,-2.72 2.064,-3.21 0.398,1.345 -0.648,3.024 -2.064,3.21 z m -2.873,-0.12 c 0.223,-0.69 -0.33,-3.69 1.076,-2.217 0.548,0.785 -0.19,2.276 -1.076,2.217 z m 45.783,-0.002 c -5.2,-1.357 -10.65,-0.572 -15.94,-0.725 1.99,-0.643 4.852,-0.5 7.15,-0.785 2.97,0.166 6.466,-0.27 9.067,1.458 -0.065,0.063 -0.2,0.182 -0.277,0.05 z m -59.984,-0.183 c -0.353,-0.575 2.118,-0.573 0.5,-0.14 -0.17,0.02 -0.31,0.27 -0.5,0.14 z m 22.563,-0.045 c -0.616,-1.01 -1.064,-1.782 -1.732,-2.668 1.352,-0.82 2.713,2.086 1.732,2.668 z m -0.364,-1.18 c -0.222,-0.422 -0.48,0.2 0,0 z m -31.188,0.857 c 0.9,-0.815 2.162,-1.9 3.263,-2.07 -0.947,0.803 -2.568,1.646 -3.263,2.07 z m 2.42,-0.094 c 0.075,-0.292 0.522,-0.01 0,0 z M 8.6220908,79.283 c 0.593,-0.585 1.248,-1.52 2.0950002,-1.676 -0.52,0.725 -1.5120002,1.26 -2.0950002,1.676 z m 5.5130002,-0.062 c 0.464,-0.655 1.597,-1.142 2.402,-1.37 -0.688,0.567 -1.596,1.113 -2.402,1.37 z m -3.35,-0.14 c 0.925,-0.926 2.21,-2.05 3.384,-2.3 -1.104,0.785 -2.48,1.657 -3.384,2.3 z m 0.314,-0.126 c -0.12,-0.148 -0.128,0.048 0,0 z m -3.7970002,0.158 c 0.31,-0.64 0.34,-0.703 0.92,-1.075 -0.143,0.367 -0.68,0.955 -0.92,1.075 z m 0.137,-0.17 c 0.042,-0.123 -0.107,0.015 0,0 z m 0.63,-0.843 c 0.235,-0.28 -0.273,0.277 0,0 z m 28.3940002,0.918 c 0.764,-0.505 0.086,-3.785 0.81,-2.4 1.562,0.548 0.152,2.17 -0.81,2.4 z m -23.16,-0.14 c 1.47,-1.262 3.336,-2.523 5.39,-2.2 -1.882,0.57 -3.768,1.248 -5.39,2.2 z m 35,-0.055 c -1.886,-0.448 3.778,-1.262 3.245,-1.11 1.314,-0.482 2.748,-0.893 3.83,-1.695 0.536,-0.763 1.57,-1.397 2,-2.664 1.747,-2.247 0.694,2.878 -1.016,2.882 -2.232,1.78 -5.2,2.758 -8.06,2.588 z m 30.617,-0.164 c -4.84,-1.185 -10.637,-0.94 -15.053,-0.725 4.673,-1.33 9.78,-1.03 14.506,-0.26 0.54,-0.103 1.74,1.46 0.548,0.984 z m -68.56,-0.007 c 2.054,-2.042 4.628,-4.094 7.596,-4.422 -1.633,1.08 -4,1.4 -5.583,2.907 -0.725,0.325 -1.3,1.414 -2.013,1.515 z m 14.52,-0.43 c 0.513,-0.523 2.003,-1.575 2.26,-1.2 -0.636,0.46 -1.42,1.278 -2.26,1.2 z M 3.9940908,77.834 c 0.64,-0.997 0.616,-0.644 0.09,0.14 -0.052,0.08 -0.298,0.016 -0.09,-0.14 z m 0.16,-0.04 c -0.045,-0.083 -0.132,0.127 0,0 z m 0.332,-0.543 c -0.043,-0.078 -0.113,0.21 0,0 z m -0.34,0.322 c 0.032,-0.116 0.073,0.094 0,0 z m 3.84,-0.07 c 0.79,-1.205 2.7200002,-2.8 4.4600002,-3.48 0.406,-0.11 2.207,-0.936 1.367,-0.3 -2.213,0.88 -4.1000002,2.294 -5.8280002,3.78 z M 43.856091,77.319 c -0.9,-0.807 -1,-1.993 -2.456,-2.043 -0.04,-0.507 -0.723,-1.624 1.046,-0.825 1.12,0.468 2.14,1.763 1.4,2.867 z m -19.472,-0.184 c 0.436,-0.718 2.2,-1.84 2.99,-1.805 -0.837,0.803 -1.93,1.456 -2.99,1.805 z m 1.225,-0.05 c 0.103,-0.145 0.103,0.145 0,0 z m -11.117,-0.134 c 0.217,-0.797 2.727,-1.302 3.28,-1.282 -0.854,0.55 -2.26,0.976 -3.28,1.282 z m 11.363,0.033 c 1.392,-0.933 0.473,-0.34 0,0 z m 22.216,-0.034 c -1.03,-0.107 -1.786,-1.45 0.046,-0.714 1.704,-0.465 1.524,-0.09 2.202,-0.6 0.58,-0.15 1.484,-0.688 3.017,-0.98 1.04,-0.364 1.67,-2.118 1.416,-1.55 1.287,-0.79 -0.117,-1.223 0.486,-1.915 1.263,-1.678 2.42,1.78 0.726,2.625 -2.003,2.097 -5.046,3.124 -7.892,3.124 z m 28.894,-0.195 c -4.12,-0.847 -8.766,-0.543 -12.605,-0.753 3.682,-0.71 7.65,-1.036 11.386,-0.484 0.5,0.14 2.6,1.12 1.22,1.237 z m -66.222,-0.352 c 1.156,-0.957 2.71,-2.404 4.437,-2.345 -1.72,0.663 -2.97,1.4 -4.437,2.345 z M 8.0290908,76.245 c 0.585,-0.95 2.2170002,-2.153 2.8500002,-2.32 -0.694,0.775 -1.7880002,1.806 -2.8500002,2.32 z M 35.337091,76.081 c 0.72,-1.007 -0.085,-2.74 0.955,-3.48 0.307,-0.8 1.392,2.26 -0.062,2.763 -0.43,-0.588 -0.53,0.962 -0.893,0.718 z M 6.2190908,75.971 c 0.337,-0.473 1.42,-1.318 0.503,-0.334 0.073,-0.25 -0.592,0.698 -0.503,0.334 z m 32.2900002,0.006 c -0.224,-2.306 2.6,-2.405 0,0 z m -12.3,-0.966 c 2.016,-1.774 1.533,-0.334 0,0 z m -1.663,-0.043 c 1.228,-0.88 2.96,-2.145 4.076,-2.463 -0.628,0.827 -2.66,2.174 -4.076,2.463 z M 8.8530908,74.645 c 0.742,-0.916 2.2220002,-1.603 3.2050002,-1.57 -1.018,0.608 -2.2820002,1.052 -3.2050002,1.57 z m 53.9320002,0.04 c 0.085,-0.8 2.17,-0.466 2.984,-1.14 2.945,-0.4 6.656,-1.05 9.087,0.942 -3.03,-0.043 -6.617,-0.596 -9.85,-0.036 -0.74,0.03 -1.488,0.126 -2.22,0.233 z m -15.826,-0.3 c -1.752,-0.54 1.75,-0.56 1.84,-0.63 -0.35,-0.55 0.862,-0.9 2.32,-1.27 -0.435,-0.46 0.33,-1.14 2.02,-1.557 0.666,-0.77 -1.144,-2.475 0.7,-2.245 2.313,2.042 -1.553,4.402 -3.36,5.058 -1.13,0.4 -2.296,0.79 -3.52,0.643 z m -22.537,-0.28 c 0.98,-1.094 4.135,-2.534 1.396,-0.703 -0.408,0.32 -0.97,0.49 -1.396,0.703 z m 13.594,-0.22 c 0.264,-1.062 -1.354,-1.73 -0.14,-2.452 -0.308,-2.052 1.734,2.713 0.14,2.452 z m 5.407,-0.012 c -0.622,-1.004 -2.214,-0.894 -2.41,-2.004 0.637,-0.764 2.828,0.586 2.622,1.984 l -0.21,0.02 z m -19.57,-0.75 c 0.85,-1.052 2.5,-1.725 3.872,-1.992 -1.03,0.794 -2.69,1.296 -3.872,1.992 z m 48.35,-0.4 c -3.457,-0.49 -7.08,-0.26 -10.54,-0.12 3.247,-1.022 7.163,-1.57 10.466,-0.412 0.986,-0.026 0.41,0.747 0.074,0.532 z m -43.623,-0.15 c 0.14,-0.06 0.12,0.18 0,0 z m 17.81,-0.336 c -0.484,-1.368 2.046,-0.313 3.22,-1.424 -1.028,-0.475 1.703,-1.064 1.246,-2.21 -0.505,-2.385 2.427,-0.024 0.572,1.373 -1.205,1.476 -3.144,2.35 -5.038,2.26 z m -10.87,-0.695 c 0.678,-1.308 -1.318,-2.647 0.14,-2.256 1.236,-0.066 0.748,2.216 -0.14,2.256 z m -10.872,-0.333 c 1.138,-0.544 2.685,-1.857 3.81,-1.76 -1.316,0.44 -2.337,1.995 -3.81,1.76 z m 17.483,-0.18 c -0.61,-0.33 -2.32,-0.728 -2.01,-1.053 0.778,-1.08 3.598,0.976 2.01,1.053 z m 28.513,-0.115 c -3.228,-0.756 -6.75,-0.143 -10.1,-0.24 3.18,-0.862 7.174,-1.568 10.125,-0.104 0.094,-0.052 0.978,0.447 -0.035,0.343 z m 0.44,-0.028 c -0.046,-0.145 -0.278,0.108 0,0 z m -49.148,-0.042 c 0.74,-1.212 3.038,-0.698 0,0 z m 1.883,-0.116 c 1.543,-0.928 3.44,-2.656 5.094,-2.67 -1.897,0.597 -3.15,2.432 -5.094,2.67 z m -3.09,-0.17 c 0.168,-1.03 2.475,-0.8 0,0 z m -1.333,-0.418 c 0.458,-0.738 2.443,-1.138 0.802,-0.156 -0.268,0.06 -0.5,0.25 -0.802,0.156 z m -5.283,-0.347 c 0.84,-0.962 0.972,0.354 0,0 z m 0.067,0.068 c 0.042,-0.123 -0.107,0.015 0,0 z m 4.182,-0.016 c -0.356,-0.5 2.045,-0.802 0.605,-0.214 l -0.308,0.175 -0.297,0.04 z m 28.048,-0.027 c -1.638,-0.8 1.204,-0.313 1.854,-1.07 0.258,-0.377 0.74,-1.392 0.845,-2.026 2.47,-0.18 -0.06,2.96 -1.59,3 a 3.1,3.1 0 0 1 -1.108,0.098 z m -29.575,-0.153 c 1.233,-1.286 1.718,-0.084 0,0 z m -1.46,-0.03 c 0.63,-0.71 1.602,-0.098 0,0 z m 8.584,-0.36 c 1.16,-1.398 3.468,-1.847 5.183,-2.54 1.844,-0.297 4.15,-2.082 5.792,-1.472 -2.688,1.04 -5.37,1.417 -7.825,3.02 -0.974,0.35 -2.134,1.144 -3.15,0.994 z m 34.968,-0.166 c 2.71,-0.996 6.583,-1.398 9.256,-0.412 -2.798,-0.084 -6.236,0.177 -9.256,0.412 z m -18.323,-0.193 c -0.682,-0.898 -4.024,0.2 -2.505,-0.74 0.34,-1.223 4.336,0.503 2.505,0.74 z m 113.384999,-0.31 c -0.834,-0.592 -1.113,-0.922 -1.883,-1.097 -1.228,-0.812 -2.803,-1.788 -4,-2.115 -3,-1.208 -6.652,-2.24 -10.208,-2.563 -9.617,-1.675 -19.1,-2 -28.685,-1.672 -4.877,-0.75 -9.987999,-0.003 -14.869999,0.347 8.319999,-1.753 17.073999,-0.542 25.549999,-0.784 7.292,-0.154 14.52,0.79 21.723,1.687 2.872,0.9 5.89,1.584 8.478,2.974 1.187,0.69 3.327,1.905 4.075,3.275 l -0.187,-0.05 z m 0.172,0.03 c -0.017,-0.057 -0.208,-0.05 0,0 z m -0.14,-0.133 c 0.19,-0.27 -0.33,-0.062 0,0 z m -0.068,-0.033 c -0.042,-0.123 0.107,0.015 0,0 z m -0.48,-0.638 c -0.112,-0.168 -0.015,0.17 0,0 z m -1.1,-0.278 c -0.13,-0.14 -0.123,0.094 0,0 z m -0.832,-0.42 c -0.298,-0.45 -0.164,0.02 0,0 z m -0.1,-0.088 c -0.177,-0.248 0.26,0.252 0,0 z m -0.168,-0.19 c -0.032,-0.116 -0.073,0.094 0,0 z m -0.666,-0.397 c -0.01,-0.17 -0.157,0.066 0,0 z m -1.354,-1.42 c -0.08,-0.104 -0.08,0.104 0,0 z m -126.832999,3.37 c 0.218,-0.805 3.184,-1.768 1.964,-0.97 0.45,-0.67 -1.42,1.04 -1.964,0.97 z m -8.5,0 c -0.324,-0.75 0.728,-0.01 0,0 z m 0.205,-0.278 c -0.34,-0.344 0.307,0.374 0,0 z m 134.265999,0.255 c -0.053,-0.198 0.325,0.138 0,0 z m -0.283,-0.075 c 0.17,0 -0.025,0.186 0,0 z M 45.473091,68.101 c -0.788,-0.216 1.16,-0.43 -0.13,-1.018 -0.728,-0.653 -3.044,1.044 -2.656,0.074 0.8,-0.162 3.08,-0.795 1.042,-0.538 -0.887,-0.155 0.7,-0.807 -2.36,0.183 -1.674,-0.072 -0.364,-0.69 0.932,-0.936 1.768,-0.12 4.258,-0.698 5.514,0.738 -0.25,0.88 -1.53,1.454 -2.34,1.496 z m -0.485,-1.403 c 0.004,-0.234 -0.453,0.067 0,0 z m 11.8,1.332 c 2.843,-1.17 6.288,-1.392 9.243,-0.767 -2.04,0.18 -5.15,-0.012 -7.514,0.643 -0.555,0.155 -1.158,0.075 -1.73,0.124 z m -42.58,-0.5 c -1.204,-2.005 -1.85,-4.66 -0.642,-6.848 -0.35,-0.798 0.502,-1.774 0.458,-2.587 -1.2,0.302 -1.248,2.248 -1.894,2.576 0.187,-1.206 0.608,-3.442 2.112,-3.39 1.656,1.848 -1.062,3.705 -0.84,5.717 -0.415,1.61 0.75,3.263 0.83,4.63 l -0.025,-0.098 z M 146.39309,67.483 c 0.073,0.033 0.253,0.165 0,0 z M 21.543091,67.341 c 0.355,-0.474 2.714,-1.3 1.38,-0.626 -0.348,0.245 -1.053,0.74 -1.38,0.626 z m 5.192,-0.33 c 1.627,-1.615 4.1,-2.166 6.224,-3 1.136,-0.338 3.65,-0.997 3.89,-0.632 -3.528,0.748 -6.913,2.31 -10.115,3.63 z m -15.93,-0.04 c 0.157,-0.066 0.01,0.17 0,0 z m 14.143,-0.055 c -0.75,-0.165 1.112,-0.642 1.517,-0.924 1.64,-0.59 -0.678,0.94 -1.517,0.924 z m 30.987,-0.155 c 2.076,-0.87 5.065,-1.572 6.936,-0.635 -2.324,0.048 -4.643,0.448 -6.936,0.635 z m -31.654,-0.166 c 0.63,-1.08 3.868,-2.28 3.448,-1.384 -1.132,0.46 -2.312,1.05 -3.448,1.384 z m -7.693,-0.252 c -0.037,-1.57 2.13,-2.683 3.333,-1.326 1.07,1.114 -2.81,-0.584 -3.296,1.32 l -0.045,0.048 0.008,-0.043 z m 37.718,-0.54 c 2.142,-1.257 -3.27,-0.398 -1.427,-0.946 2.04,-0.44 4.437,-1.078 6.325,0.224 -1.647,0.115 -3.28,0.53 -4.898,0.722 z m 98.727999,-0.172 c 0.043,-0.078 0.113,0.21 0,0 z M 78.134091,65.456 c 0.27,-0.797 4.158,-1.15 2.675,-0.513 -0.864,0.275 -1.768,0.522 -2.675,0.513 z m 70.519999,-0.663 c -0.042,-0.123 0.107,0.015 0,0 z M 28.528091,64.651 c 2.102,-1.81 4.996,-2.335 7.625,-2.876 -2.256,0.896 -5.15,2.288 -7.625,2.876 z m 48.21,-0.038 c 1.275,-0.652 3.494,-1.493 4.596,-1.156 -1.483,0.55 -3.028,0.962 -4.596,1.156 z m -64.738,-0.09 c -0.15,-1.42 -0.17,-3.555 1.043,-4.314 -0.284,1.42 -0.95,2.983 -0.854,4.366 l -0.19,-0.05 z m 61.126,-0.02 c 0.902,-0.68 3.032,-1.062 3.79,-1 -1.106,0.692 -2.5,1.024 -3.79,1 z m -38.105,-0.136 c 1.91,-1.18 4.36,-1.247 6.55,-1.49 -1.994,0.813 -4.507,1.4 -6.55,1.49 z m 36.312,-0.333 c 2.16,-0.857 4.685,-1.5 6.99,-1.958 -2.077,0.94 -4.708,1.802 -6.99,1.958 z m -48.95,-0.103 c 1.136,-1.067 3.98,-2.634 4.978,-0.667 -1.772,0.193 -3.298,-0.017 -4.978,0.667 z m 46.098,0.018 c -0.05,-0.59 2.505,-0.788 3.366,-0.78 -1.104,0.283 -2.212,0.81 -3.366,0.78 z m -57.393,-0.387 c -0.33,-1.137 0.665,-2.86 0.16,-3.69 -0.49,0.787 -0.205,2.266 -0.882,2.61 -0.245,-0.535 -0.236,-1.95 -0.5000002,-2.025 -0.023,0.906 -0.768,0.89 -0.468,-0.113 -0.66,-1.658 0.7600002,-3.363 0.9540002,-1.447 -0.187,0.706 -0.13,2.857 0.243,1.18 0.442,-1.686 1.39,-3.073 2.222,-4.55 -0.83,2.19 -1.25,4.59 -1.382,6.977 -0.1,0.295 -0.036,1.03 -0.344,1.058 z M 131.00809,63.435 c -0.51,-0.246 0.542,-0.01 0,0 z m -0.42,-0.132 c -0.106,-0.094 0.363,0.12 0,0 z m -0.867,-0.122 c -1.25,-0.13 -4.76,-0.406 -4.164,-0.436 -5.264,-0.433 -10.933,-0.55 -15.955,-0.612 -0.886,0.39 -2.64,0.356 -3.738,0.214 -1.088,-0.084 -2.872,0.13 -3.006,0.103 -2.003,-0.093 -4.784999,0.443 -6.604999,0.053 -2.326,-1.122 1.796,-0.612 3.008,-0.88 6.403999,-0.614 12.699999,0.05 19.139999,0.24 3.89,0.3 7.946,0.237 11.692,1.332 l -0.37,-0.01 z m -23.162,-0.78 c -0.09,-0.124 -0.09,0.124 0,0 z m 22.33,0.8 c 0.363,-0.198 0.093,0.16 0,0 z M 21.571091,62.884 c 0.122,-1.228 2.9,-2.212 2.916,-0.98 -0.94,0.492 -2.212,0.424 -2.916,0.98 z m 103.629999,-0.16 c 0.178,-0.117 0.025,0.17 0,0 z m -0.584,-0.067 c 0.128,-0.048 0.12,0.148 0,0 z M 98.081091,62.645 c 0.042,-0.127 0.086,0.124 0,0 z m -34.8,-0.012 c -0.674,-0.71 8.237,-0.727 4.098,-0.322 -1.367,0.085 -2.75,0.222 -4.098,0.322 z m 59.459999,-0.005 c 0.392,-0.123 0.09,0.066 0,0 z M 18.959091,62.601 c -0.275,-1.47 3.932,-2.577 2.53,-1.007 -1.028,0.26 -1.756,0.176 -2.53,1.007 z m 80.65,-0.046 c 0.14,-0.062 0.135,0.113 0,0 z m 2.739999,-0.048 c 0.06,-0.14 0.12,0.093 0,0 z M 71.774091,62.425 c 2.123,-0.857 4.613,-1.184 6.794,-1.74 -1.474,1.304 -4.727,1.483 -6.794,1.74 z m 33.694999,-0.05 c 0.143,-0.05 0.135,0.163 0,0 z M 36.575091,62.349 c 2.34,-1.234 5.383,-2.027 8.042,-1.63 -2.52,0.775 -5.398,1.068 -8.042,1.63 z m -6.517,-0.06 c 1.16,-1.632 -3.178,-2.074 0.314,-2.156 1.103,0.41 0.666,2.093 -0.314,2.156 z m 85.344999,-0.026 c 0.052,-0.074 0.09,0.135 0,0 z M 81.568091,62.127 c 1.197,-0.594 3.067,-1.004 3.527,-0.784 -1.088,0.38 -2.526,0.877 -3.527,0.784 z m -11.272,0.008 c 3.415,-1.097 7.094,-1.89 10.556,-3.003 -0.35,0.875 -2.66,1.246 -3.873,1.652 -2.193,0.538 -4.45,1.214 -6.683,1.35 z m -28.733,-0.044 c 1.247,-1.31 5.776,0.01 0.9,-0.037 -0.294,0.072 -0.602,0.056 -0.9,0.037 z m 38.51,-0.173 c 0.814,-0.617 4.895,-1.73 2.397,-0.65 -0.794,0.24 -1.574,0.52 -2.397,0.65 z m -29.64,-0.035 c 0.317,-0.515 5.383,-0.853 2.796,-0.258 -0.932,0.03 -1.87,0.31 -2.796,0.258 z m 11.723,-0.357 c 1.66,-0.77 4.394,-1.158 6.578,-1.564 1.43,-0.25 4.07,0.124 4.807,-1.042 -3.883,0.345 -7.733,1.362 -11.64,1.358 2.317,-0.572 4.306,-0.578 6.675,-1.144 3.275,-0.368 6.427,-1.597 9.61,-2.172 2.316,0.06 -1.717,1.022 -0.613,0.978 2.055,-0.657 2.85,0.01 0.488,0.42 -2.237,0.467 -4.046,1.042 -6.172,1.73 -3.167,0.86 -6.44,1.435 -9.733,1.436 z m 15.34,-4.12 c 1.967,-0.564 -1.112,0.003 0,0 z M 6.1140908,61.498 c 0.052,-0.074 0.09,0.135 0,0 z m 21.5230002,-0.14 c 0.526,-0.94 -1.654,-2.396 -0.166,-2.63 1.68,0.412 1.276,2.095 0.166,2.63 z m 0.153,-0.326 c -0.032,-0.116 -0.073,0.094 0,0 z m 113.767999,0.207 c -0.044,-0.158 0.192,0.083 0,0 z M 69.688091,61.152 c 4.317,-1.258 8.92,-2.08 12.982,-4.135 1.595,-0.507 3.536,-1.76 4.998,-1.78 -5.718,2.64 -11.64,5.326 -17.98,5.914 z m 51.012999,0.014 c 0.137,-0.073 0.032,0.078 0,0 z m -8.213,-0.02 c 0.1,-0.15 0.074,0.12 0,0 z m 7.148,-0.06 c 0.292,-0.085 0.06,0.07 0,0 z m -2.17,0.01 c 0.166,-0.11 0.05,0.065 0,0 z m -10.628,-0.146 c 0.145,-0.036 0.005,0.122 0,0 z M 57.990091,60.936 c 2.496,-0.77 3.093,0.034 0,0 z m -0.438,-0.032 c 0.12,-0.227 0.407,0.115 0,0 z m -39.788,0.038 c -0.198,-1.84 -4.594,0.96 -1.408,-1.594 1.293,-0.88 2.285,0.722 1.408,1.594 z m 85.403999,-0.027 c 0.034,-0.122 0.17,0.082 0,0 z M 50.128091,60.86 c 1.22,-0.536 4.197,-0.957 5.204,-0.65 -1.733,0.16 -3.48,0.505 -5.204,0.65 z m -12.152,-0.238 c 0.8,-0.7 2.9,-1.03 4.267,-1.155 1.22,0.154 -3.67,1.137 -2.96,0.908 -0.405,0.02 -0.96,0.404 -1.306,0.247 z m 42.82,-0.16 c 1.825,-0.894 4.11,-2.458 6.042,-2.2 -1.978,0.766 -3.9,2.03 -6.042,2.2 z m 12.718,-0.053 c -1.415,-1.083 5.518,-1.114 7.006999,-0.823 -1.276999,1.05 -3.596999,0.415 -5.296999,0.75 -0.57,0.007 -1.142,0.116 -1.71,0.072 z m -45.3,-0.182 c 0.41,-1.878 8.19,0.064 1.545,0.034 l -0.686,0.018 z m -16.275,-0.01 c 0.33,-0.843 3.047,-1.378 2.693,-0.987 2.574,0.84 -0.86,0.192 -1.92,0.78 l -0.448,0.232 z M 8.5740908,60.249 c -0.213,-1.74 0.692,-3.847 1.153,-5.653 0.5430002,-1.645 0.6200002,-0.196 0.18,0.712 -0.707,1.515 -0.497,3.516 -1.334,4.94 z M 25.398091,59.945 c 0.83,-1.275 -1.826,-1.75 -0.33,-2.1 -0.274,-0.245 -0.16,-0.833 0.722,-0.176 0.917,0.473 0.337,2.114 -0.392,2.286 z m 32.237,-0.01 c 3.244,-1.15 3.777,-0.08 0,0 z M 111.40809,59.8 c -3.03,-0.334 -6.385,-0.11 -9.225,-0.476 2.383,-0.12 9.833,-0.782 9.225,0.477 z m -0.312,0.055 c 0.016,-0.093 0.205,0.03 0,0 z m -0.365,-0.084 c 0.145,-0.036 0.005,0.122 0,0 z M 23.031091,59.738 c 0.716,-1.613 -3.067,-1.4 -0.96,-2.26 0.006,-1.05 2.15,0.42 1.58,1.42 -0.02,0.22 -0.36,1.218 -0.622,0.84 z m -0.374,-2.107 c -0.1,-0.39 -0.652,0.23 0,0 z m -0.394,-0.086 c -0.133,-0.124 -0.09,0.128 0,0 z m 84.879999,2.117 c 0.195,-0.16 0.07,0.15 0,0 z M 43.886091,59.606 c 4.586,-1.772 9.625,-2.426 14.472,-3.22 2.887,-0.47 5.947,-0.272 8.766,-1.438 4.84,-1.18 10.07,-1.33 14.856,-1.84 -4.55,2.327 -9.87,1.8 -14.76,2.975 -2.125,0.436 -4.504,0.6 -6.46,1.274 0.312,0.832 3.897,-0.323 5.775,-0.168 -2.49,0.546 -5.337,1.038 -7.886,1.248 2.55,-0.85 -0.92,-0.482 -2.02,-0.18 -3.468,0.985 -1.335,-0.637 0.742,-0.696 1.557,-0.17 1.03,0.493 2.925,-0.397 0.828,-0.35 3.043,-1.235 0.48,-0.743 -2.2,0.506 -5.012,1.43 -7.15,1.535 -1.25,0.308 -3.388,0.63 -4.874,0.906 -1.627,0.295 -3.225,0.71 -4.868,0.74 z m 6.1,-1.51 c -0.045,-0.083 -0.132,0.127 0,0 z m 4.14,-0.255 c -0.046,-0.126 -0.327,0.1 0,0 z m -2.268,-0.022 c -0.045,-0.083 -0.132,0.127 0,0 z m 8.696,-0.05 c -0.03,-0.183 -0.082,0.182 0,0 z m 1.652,-1.476 c -0.1,-0.066 -0.08,0.12 0,0 z m 42.681999,3.277 c 0.062,-0.06 0.247,0.12 0,0 z m -0.544,0.007 c 0.078,-0.064 0.35,0.1 0,0 z m 11.276,-0.02 c 0.066,-0.1 0.174,0.162 0,0 z m -95.247999,-0.2 c -0.2,-1.36 -3.293,-0.194 -1.42,-1.895 1.072,-0.62 2.606,1.686 1.42,1.895 z m -0.305,-1.495 c -1.248,-0.57 -1.795,0.435 0,0 z m 42.434,1.476 c 4.673,-1.132 9.477,-1.93 14.1,-3.295 0.864,0.17 -3.443,1.238 -2.7,1.038 -3.73,1.017 -7.524,2.09 -11.4,2.256 z M 5.2690908,59.332 c 0.043,-0.078 0.113,0.21 0,0 z M 53.166091,59.209 c 1.575,-0.917 7.643,-0.662 3.13,-0.047 -1.04,0.023 -2.1,0.204 -3.13,0.047 z m -22.86,0.02 c 1.192,-1.53 3.558,-1.795 5.394,-2.296 1.39,0.205 4.23,-0.23 4.298,1.8 -1.488,0.115 -3.816,0.344 -3.508,-0.175 -0.468,-0.115 -1.403,-0.745 -0.872,-0.596 -1.537,-0.276 -3.744,0.733 -5.31,1.277 z m 60.852,-0.329 c -2.46,-0.836 6.2,-1.515 3.917,-1.2 4.215,-0.532 0.594,1.478 -1.146,1.112 -0.922,0.046 -1.847,0.136 -2.77,0.078 z m -0.452,-0.18 c -0.002,-0.165 -0.18,0.02 0,0 z m 6.025,-0.652 c -0.485,-0.326 -0.145,0.21 0,0 z m 0.1,-0.195 c 0.062,-0.173 -0.12,-0.018 0,0 z M 7.5510908,58.559 c -0.103,-0.825 0.215,-2.037 0.372,-2.92 1.473,-1.18 0.415,1.197 0.284,2.183 -0.378,0.128 -0.187,0.774 -0.655,0.737 z m 75.3480002,-0.25 c -1.57,-0.15 5.915,-2.1 2.645,-1.185 3.13,-0.998 -3.794,1.953 -1.393,0.826 -0.397,0.176 -0.822,0.316 -1.253,0.36 z m 22.467999,-0.08 c -2.323,0.02 -4.68,-0.154 -6.922999,-0.218 2.166999,-0.234 5.686999,-1.197 7.259999,0.228 -0.113,0.01 -0.227,0.047 -0.34,-0.01 z m -75.831999,-0.32 c 1.568,-1.997 4.753,-2.234 7.16,-2.525 3.053,0.858 -2.4,1.113 -3.558,1.517 -1.213,0.258 -2.51,0.636 -3.602,1.008 z m 35.263,0.023 c 3.292,-1.007 6.878,-1.256 10.21,-2.044 -3.18,1.076 -6.887,1.69 -10.21,2.044 z m -53.85,-0.283 c 0.458,-1.18 0.978,-2.69 1.84,-3.433 -0.62,1.177 -1.05,2.423 -1.664,3.58 z m 33.93,0.097 c -2.98,0.134 -4.4,-1 -0.764,-0.59 1.53,0.026 1.02,0.577 0.764,0.59 z m 45.8,-0.547 c -1.41,-1.877 4.7,-1.3 6.08,-1.097 1.26,-0.855 6.892999,0.856 3.213,0.542 -3.13,-0.093 -6.202,-0.046 -9.293,0.555 z m 3.307,-1.062 c 0.135,-0.02 -0.07,-0.092 0,0 z m 0.44,-0.1 c -0.08,-0.153 -0.08,0.153 0,0 z M 6.7110908,56.975 c 0.144,-0.877 -0.45,-0.96 -0.298,-1.932 -0.144,-0.488 0.174,-2.7 -0.308,-2.334 -0.33,1.73 -0.303,-0.18 -0.204,-0.693 -0.048,-1.158 0.535,-1.24 0.802,-0.21 0.464,1.52 0.888,3.82 0.01,5.17 z M 49.188091,56.887 c -2.926,-0.122 -5.553,-2.16 -8.6,-1.158 -0.31,-0.85 4.886,-0.907 6.76,-0.24 0.725,0.4 2.056,0.447 2.098,1.43 l -0.26,-0.034 z m -22.156,-0.084 c -0.028,-0.585 0.713,-0.394 1.432,-1.125 -0.27,-0.37 2.397,-1.675 3.505,-1.822 1.626,-0.905 5.773,1.084 2.093,1.084 -2.58,0.116 -4.654,1.05 -7.03,1.863 z m -3.064,-0.086 c 0.607,-0.825 0.838,-1.368 2.128,-2.12 1.447,-1.022 3.718,-2.408 5.216,-1.5 -0.625,1.208 -2.78,0.438 -3.773,1.56 -1.303,0.59 -2.165,1.796 -3.37,1.867 l -0.2,0.222 v -0.038 z m 27.06,-0.082 c -3.67,-2.175 -8.054,-3.462 -12.382,-2.588 -3.112,0.205 4.6,-1.817 2.082,-0.886 3.74,-0.66 8.573,-0.265 10.508,3.51 l -0.21,-0.035 z m 35.822,-0.14 c 2.915,-1.982 6.725,-2.678 10.153,-2.087 2.588,1.56 -3.324,-0.23 -4.636,0.62 -1.773,0.672 -3.863,0.715 -5.517,1.466 z m -71.1,-0.31 c 0.3,-2.018 1.57,-4.15 3.41,-5.21 2.15,0.076 -2.077,1.88 -2.167,3.103 -0.464,0.454 -0.858,2.46 -1.244,2.108 z m 62.23,0.1 c 1.22,-0.836 2.923,-1.01 4.35,-1.127 -0.725,0.858 -3.22,1.26 -4.35,1.127 z m -60.297,0.026 c 0.465,-2.225 2.218,-5.166 4.667,-5.18 0.725,1.066 -2.017,1.558 -2.392,2.753 -1.014,0.51 -1.518,1.932 -2.275,2.425 z m 2.085,-0.358 c 0.9,-1.765 2.696,-3.83 4.346,-4.575 1.52,-0.47 2.478,0.55 0.53,0.998 -1.53,1.136 -3.337,1.68 -4.5,3.425 l -0.322,0.21 -0.053,-0.058 z m 4.187,-4.378 c 0.022,-0.288 -0.245,0.13 0,0 z m -13.787,4.293 c -0.023,-0.627 0.374,-2.213 0.9,-2.355 -0.24,0.76 -0.486,1.897 -0.9,2.355 z m 0.442,-0.102 c 0.433,-1.287 0.86,-1.386 0.3,-0.194 -0.05,0.103 -0.158,0.476 -0.3,0.194 z m 11.97,-0.146 c 0.175,-1.518 2.45,-2.305 3.553,-3.343 2.1,-1.05 4.096,0.45 0.954,0.838 -1.112,0.777 -1.66,0.015 -2.9,1.245 -0.628,0.055 -1.07,1.43 -1.608,1.26 z m -11.197,0.006 c 0.228,-0.953 0.486,-2.018 1.104,-2.843 -0.217,0.896 -0.53,2.22 -1.104,2.843 z m 75,-1.293 c 1.74,-1.003 3.91,-1.74 5.356,-3.228 -1.54,-0.14 -2.964,1.77 -4.365,0.843 -0.593,0.288 -3.495,2.3 -1.972,0.67 1.596,-1.035 -0.212,-0.58 1.585,-1.46 1.612,-0.702 4.777,-1.925 5.477,0.238 -1.264,1.92 -3.842,2.93 -6.082,2.936 z m -5.03,-0.377 c 0.817,-0.3 2.088,-1.328 2.938,-1 -0.74,0.672 -2.035,0.97 -2.938,1 z m 10.605,-0.427 c 0.254,-2.3 4.558,-1.866 2.748,-0.2 -0.92,-0.155 -1.834,0.246 -2.748,0.2 z M 8.6780908,53.111 c -0.78,-0.43 -0.064,-2.338 -0.815,-3.126 -0.52,-0.172 -0.206,-1.703 -0.737,-1.03 -0.755,0.984 -0.244,-1.57 0.27,-2.04 1.508,0.538 1.294,2.728 1.734,4.092 -0.133,0.585 0.3,2 -0.45,2.104 z m 39.1270002,-0.3 c -3.972,-1.476 -8.343,-1.1 -12.358,-0.042 2.573,-1.834 6.57,-1.22 9.637,-1.448 0.776,-0.134 3.435,0.928 2.72,1.49 z m -37.32,-0.25 c 0.068,-1.31 0.797,-2.87 -0.245,-3.884 -0.004,-1.163 -1.1300002,-1.98 -0.9150002,-3.224 -0.427,-0.39 -1.186,-1.398 -1.338,-0.112 -0.27,-0.637 0.412,-2.853 1.447,-2.764 1.1570002,1.762 1.4020002,4.198 1.7530002,6.297 -0.057,1.056 0.063,2.78 -0.702,3.686 z m 3.826,-0.152 c 0.757,-2.204 1.866,-4.746 3.608,-6.31 1.826,0.515 0.623,2.97 0.16,4.223 -0.217,0.4 0.63,-4.28 -0.333,-2.006 -0.39,0.964 -0.53,-0.883 -0.885,0.68 -0.725,1.217 -1.593,2.14 -2.193,3.45 0.21,-0.244 -0.307,-0.023 -0.357,-0.035 z m 68.982,-0.657 c 0.78,-2.488 4.092,-3.317 5.565,-5.47 0.626,-0.824 3.93,-4.273 2.583,-1.513 -2.544,2.435 -4.73,5.773 -8.148,6.984 z m -71.143,-0.087 c 0.77,-3.404 2.764,-6.73 4.918,-9.58 0.716,-1.264 2.847,-1.47 2.156,0.44 -0.087,0.61 -0.648,2.483 -0.803,1.087 -0.53,0.132 -0.632,0.828 -1.29,0.527 -0.75,1.102 -1.104,1.766 -1.12,1.524 -0.573,0.615 -0.808,1.172 -1.074,1.756 0.108,0.58 -1.17,-0.4 -1.245,0.913 -0.698,0.97 -0.852,2.546 -1.543,3.334 z m 2.063,-4.23 c -0.032,-0.116 -0.073,0.094 0,0 z m 19.238,4.108 c 2.84,-2.058 6.776,-2.14 10.142,-2.03 2.58,0.86 1.374,1.603 -1.227,0.94 -3.044,-0.118 -6.023,0.28 -8.914,1.092 z m 42.48,-0.785 c 0.823,-0.94 2.586,-1.385 0.73,-0.262 -0.22,0.135 -0.464,0.26 -0.73,0.262 z m -46.574,-0.103 c 1.868,-1.343 4.64,-2.23 7.11,-2.703 0.5,-0.885 7.9,0.562 4.698,0.75 -4.066,-0.32 -8.086,0.422 -11.807,1.952 z m 12.44,-0.14 c 0.137,-0.073 0.032,0.078 0,0 z m -14.62,-0.425 c 2.78,-2.37 6.62,-3.757 10.33,-3.948 1.37,0.29 2.604,1.302 0.413,0.98 -3.67,-0.23 -7.53,0.89 -10.43,2.966 l -0.314,10e-4 z m 55.098,-0.155 c 0.564,-1.745 3.448,-2.6 4.645,-4.192 2.694,-1.085 4.256,-4.617 6.42,-6.67 -0.98,3.167 -4.35,5.138 -6.462,7.564 -1.52,1.03 -2.825,2.817 -4.602,3.3 z M 6.5790908,49.433 c 0.08,-0.104 0.08,0.104 0,0 z m 82.3780002,-0.24 c 1.015,-1.9 2.875,-1.81 0.734,-0.128 -0.245,0.044 -0.48,0.154 -0.734,0.128 z m -62.46,-0.74 c 2.643,-2.725 6.916,-4.702 10.664,-3.32 -0.788,1.14 -4.18,10e-4 -5.863,0.808 -1.773,0.357 -3.488,1.85 -4.8,2.512 z m 55.992,-0.766 c 2.322,-2.057 -0.176,-1.282 0.11,-0.86 2.185,-1.954 4.326,-4.27 6.777,-5.725 -0.602,1.1 3.022,-2.87 2.39,-2.257 1.458,-1.522 2.475,-3.85 3.942,-5.067 -0.58,2.96 -3.75,4.7 -5.344,7.12 -2.275,2.588 -5.01,4.99 -7.874,6.79 z m 1.607,-1.367 c 1.807,-1.283 -0.23,-0.246 0,0 z m -41.027,0.94 c -0.04,-0.194 0.152,0.194 0,0 z m -0.247,-0.147 c 0.043,-0.078 0.113,0.21 0,0 z m -17,-0.04 c 0.943,-2.268 3.475,-3.497 5.312,-5.147 2.275,-1.207 4.804,-3.31 7.463,-2.556 1.01,2.158 -1.9,3.616 -3.57,3.853 0.435,-0.36 2.61,-1.625 1.238,-1.422 -2.357,0.564 -4.935,1.33 -6.77,2.764 2.117,-2.244 5.274,-3.278 8.087,-4.18 -1.336,-0.442 -3.173,0.65 -4.6,1.088 -2.832,1.285 -5.04,3.733 -7.158,5.6 z m 15.618,-0.592 c 0.042,-0.127 0.085,0.124 0,0 z m -18.637,-0.24 c 3.682,-4.288 8.376,-7.7 13.228,-10.564 0.907,-0.898 3.91,-0.9 2.925,0.88 -1.27,1.597 -3.762,1.65 -5.39,2.888 -2.415,1.473 -4.76,3.092 -6.81,5.033 2.695,-3.307 6.425,-5.86 10.423,-7.324 0.676,-1.306 -1.795,0.412 -2.62,0.464 -3.193,1.573 -6.318,3.678 -8.682,6.263 -0.397,-0.453 -2.227,1.025 -1.816,1.38 -0.407,0.007 -0.933,1.312 -1.258,0.98 z m -10.495,-0.168 c 0.88,-3.222 2.4,-6.37 4.575,-8.946 1.834,-1.64 2.218,1.66 1.5,2.6 0.15,-1.054 -0.652,-1.432 -1.032,-0.36 -0.166,1.268 -0.383,-0.536 -0.72,0.344 -0.13,0.564 -1.14,0.792 -0.898,1.78 -1.026,-1.57 -0.573,0.778 -1.183,1.15 -0.43,-3.1 -0.597,3.228 -0.713,0.728 -0.15,-0.926 -0.483,1.018 -0.794,1.316 -0.14,0.334 -0.28,1.36 -0.735,1.396 z m 68.64,-0.176 c 3.878,-4.068 8.874,-7.452 12.257,-12.156 3.95,-4.694 7.284999,-9.776 10.459999,-14.956 1.877,-3.572 4.09,-7.022 4.607,-11.116 1.3,1.404 0.136,4.04 -0.602,5.754 -4.612,9.247 -11.054999,17.504 -18.101999,25.045 -2.52,2.78 -5.178,5.83 -8.618,7.43 z m -59.882,-1.362 c 4,-5.54 8.99,-10.576 14.966,-13.976 1.247,-1.058 3.767,-0.14 2.47,1.523 -1.593,1.918 -4.486,2.388 -6.29,4.244 -1.628,0.615 2.327,-2.83 -0.64,-0.36 -2.34,1.596 -4.474,4.357 -6.608,5.624 2.372,-3.237 6.09,-5.45 8.598,-8.404 -1.196,0.217 -2.495,1.434 -3.237,2.478 -1.2,0.1 -1.867,1.77 -2.63,2.075 -1.305,1.026 -2.04,2.3 -3.186,3.108 -1.133,1.142 -2.388,2.77 -3.442,3.7 z m 12.845,-11.172 c 1.526,-1.04 -0.73,-0.485 0,0 z m 0.956,-0.73 c 0.09,-0.227 -0.404,0.076 0,0 z m 0.565,-0.115 c 1.512,-0.245 2.727,-1.602 0.615,-0.74 -0.268,0.14 -1.837,1.006 -0.615,0.74 z m -23.708,11.01 c 0.858,-3.1 1.9,-6.235 3.602,-9.004 0.637,-0.992 1.992,-3.42 3.185,-1.6 0.306,0.39 -0.418,3.1 -0.536,1.475 -0.45,-0.677 -2.946,1.737 -1.797,1.174 -0.632,-0.637 -0.545,1.435 -0.985,0.564 -0.32,1.2 -0.593,0.785 -1.062,1.7 -0.9,0.947 -1.195,3.014 -1.807,4.436 -0.214,0.264 -0.338,1.647 -0.6,1.244 z m 2.957,-6.936 c 0.04,-0.336 -0.2,0.173 0,0 z m -3.8,4.975 c 0.057,-0.397 0.153,0.31 0,0 z m 0.036,-0.46 c 1.068,-3.95 2.123,-8.143 4.975,-11.2 1.355,-1.778 3.683,1.47 1.117,1.073 -1.357,0.59 -2.5,1.965 -2.897,3.327 -0.16,-1.13 -0.21,-1.277 -0.467,0.118 0.377,2.178 -1,0.06 -0.792,2.022 -1.058,1.284 -1.015,3.355 -1.9,4.72 l -0.047,-0.063 z m -1.0830002,-0.84 c 1.0550002,-5.003 3.2400002,-10.046 6.8220002,-13.86 1.59,-0.89 2.383,2.763 0.406,1.507 -0.7,0.816 -1.126,0.44 -1.88,1.347 -3.142,2.843 -3.684,7.487 -5.3470002,11.006 z m 10.7770002,-0.55 c 3.615,-5.24 8.46,-9.717 13.726,-13.276 1.206,-0.746 3.77,-2.175 4.422,-0.14 0.28,2.28 -2.643,3.098 -4.197,3.672 -0.426,-0.813 -1.795,0.67 -1.947,0.194 -3.485,2.574 -6.395,5.923 -9.46,8.895 2.805,-4.216 6.814,-7.498 10.615,-10.75 -1.14,0.114 -2.454,1.6 -3.67,2.394 -1.47,1.54 -3.04,2.573 -4.54,4.103 -0.283,1.253 -1.297,0.73 -1.623,2.034 -0.43,0.044 -1.305,1.133 -1.302,1.144 -0.552,0.395 -1.485,1.353 -2.023,1.73 z m 13.57,-11.55 c 1.134,-0.3 2.253,-0.9 3.223,-1.526 -1.054,0.232 -2.836,0.353 -3.463,1.466 l 0.1,0.088 z m -14.2,9.648 c 3.654,-6.24 8.68,-11.943 14.53,-16.403 1.175,-1.578 4.73,-1.634 2.97,0.833 -1.12,1.747 -3.127,2.768 -4.86,3.6 1.82,-2.27 -1.988,0.942 -2.588,1.62 -0.796,0.38 -4.338,4.672 -3.012,2.53 2.06,-2.504 4.516,-4.6 6.843,-6.824 -2.162,0.468 -3.765,3.053 -5.534,4.473 -3.113,3.114 -5.6,7.068 -8.35,10.17 z m 14.254,-14.82 c 1.29,-0.178 -0.71,-0.68 0,0 z m 0.798,-0.354 c 2.1,-1.072 -0.6,-0.532 0,0 z m -14.783,11.018 c 2.08,-4.02 5.26,-7.667 8.246,-11.16 2.56,-2.35 4.916,-5.72 8.58,-6.096 1.404,1.95 -1.936,3.134 -3.17,4.054 -3.906,2.513 -6.937,6.24 -10.035,9.59 1.9,-3.382 5.225,-6.23 8.018,-9.015 2.142,-1.47 0.286,-1.466 -0.9,-0.035 -3.25,2.815 -5.617,6.365 -8.33,9.63 -0.862,0.95 -1.406,2.296 -2.408,3.03 z m 13.18,-13.896 c 1.465,-0.728 0.692,-1.372 -0.17,0.016 z m 1.344,-0.983 c 0.292,-0.32 -0.317,0.127 0,0 z m -14.26,9.457 c 1.922,-3.344 4.84,-6.6 7.303,-9.84 2.166,-2.337 4.38,-4.832 7.255,-6.326 2.425,-0.133 0.558,3.042 -0.6,3.28 -4.9,2.604 -8.22,7.242 -11.77,11.402 1.698,-2.87 4.123,-5.804 6.436,-8.223 0.444,-0.603 2.792,-2.26 1.846,-2.336 -3.475,3.465 -7.113,7.3 -9.955,11.598 -0.223,0.037 -0.21,0.61 -0.517,0.443 z m 11.164,-12.092 c 0.928,-1.084 -0.647,-0.304 0,0 z m 0.7,-0.653 c 1.383,-0.997 -0.667,-0.653 0,0 z m 0.998,-0.798 c 1.528,-0.828 -0.87,0.01 0,0 z m 0.798,-0.393 c 0.848,-0.66 -0.817,-0.073 0,0 z m -0.247,-0.01 c -0.123,-0.145 0.015,0.172 0,0 z m -14.425,12.51 c 3.334,-5.736 7.4,-11.138 12.505,-15.416 1.225,-0.904 2.407,-2.35 3.983,-2.364 0.583,1.453 -1.44,1.77 -2.25,2.543 -2.103,1.244 -3.847,3.317 -5.452,4.69 -0.67,0.858 -1.58,1.322 -1.945,2.457 -0.875,0.728 -0.603,0.633 -1.5,1.234 -0.66,1.448 -1.814,2.524 -2.596,3.866 -0.802,1.092 -1.842,2 -2.737,2.99 z m -1.274,-1.993 c 2.402,-4.12 6,-7.612 9.24,-11.23 3.354,-3.28 6.548,-6.933 10.88,-8.942 1.99,-0.023 -0.615,1.5 -0.88,2.247 -0.164,-0.44 -0.64,-0.274 -1.582,0.49 -7.076,4.5 -12.438,11.063 -17.52,17.54 l -0.09,-0.017 -0.047,-0.09 z m 21.32,-0.06 c -0.158,-0.233 0.15,0.068 0,0 z m -20.127,-3.3 c 2.8,-4.348 6.506,-8.13 9.917,-12.057 3.173,-2.946 6.8,-6.128 10.925,-7.674 1.07,0.957 -0.934,1.6 -1.764,1.754 -5.063,2.454 -8.452,7.192 -12.603,10.906 -2.188,2.322 -4.107,5.163 -6.475,7.072 z m 103.791999,82.559 c 0.082,-0.112 -0.244,0.037 0,0 z m 0.28,-0.027 c -0.143,-0.1 -0.103,0.058 0,0 z m 7.146,-0.09 c -0.112,-0.168 -0.015,0.17 0,0 z m -0.277,0 c -0.112,-0.168 -0.015,0.17 0,0 z m 0.823,-0.017 c -0.08,-0.104 -0.08,0.104 0,0 z m -0.277,0 c -0.08,-0.104 -0.08,0.104 0,0 z m -2.426,-0.002 c -0.05,-0.077 -0.3,0.054 0,0 z m -0.825,-0.012 c -0.055,-0.107 -0.33,0.08 0,0 z m 7.41,-0.263 c -0.08,-0.104 -0.08,0.104 0,0 z m -0.2,-0.014 c -0.055,-0.107 -0.33,0.08 0,0 z m 1.378,-0.124 c -0.08,-0.104 -0.08,0.104 0,0 z m 0.842,-0.056 c -0.032,-0.116 -0.073,0.094 0,0 z m -24.132,0.004 c -0.112,-0.168 -0.015,0.17 0,0 z m -5.548,-0.535 c 0.083,-0.173 -0.073,0.057 0,0 z M 82.940091,99.675 c -0.004,-0.15 -0.106,0.03 0,0 z m -5.492,-0.46 c -0.015,-0.12 -0.22,0.044 0,0 z M 0.15609079,94.935 c -0.038,-0.087 -0.075,0.155 0,0 z M 28.573091,94.218 c -0.002,-0.165 -0.18,0.02 0,0 z M 2.2730908,93.963 c -10e-4,-0.217 -0.262,0.134 0,0 z M 19.123091,93.92 c -0.26,-0.252 0.18,0.247 0,0 z m 0.295,0.026 c -0.083,-0.14 -0.236,-0.025 0,0 z m 120.703999,-0.24 c -0.027,-0.303 -0.118,0.095 0,0 z m -0.528,0.028 c -0.002,-0.165 -0.18,0.02 0,0 z m -0.884,-0.056 c -0.26,-0.252 0.18,0.247 0,0 z M 18.085091,93.69 c -0.154,-0.266 -0.357,-0.01 0,0 z m -0.295,0.014 c 0.04,-0.205 -0.25,-0.083 0,0 z m -0.604,-0.073 c -0.13,-0.14 -0.123,0.094 0,0 z M 3.3060908,93.614 c -0.08,-0.104 -0.08,0.104 0,0 z m -0.105,-0.06 c 0.222,-0.137 -0.198,0.075 0,0 z M 139.29809,93.47 c -0.07,-0.247 -0.072,0.132 0,0 z m 1.077,-0.073 c -0.26,-0.252 0.18,0.247 0,0 z m -0.295,-0.017 c -0.328,-0.313 0.247,0.308 0,0 z m -0.277,0 c -0.328,-0.313 0.247,0.308 0,0 z m -0.29,-0.01 c -0.22,-0.125 0.062,0.134 0,0 z M 15.296091,93.423 c 0.01,-0.305 -0.192,0.032 0,0 z m 121.456999,-0.04 c -0.002,-0.165 -0.18,0.02 0,0 z M 14.200091,93.19 c -0.16,-0.306 -0.144,0.077 0,0 z M 140.08209,93.1 c -0.328,-0.313 0.247,0.308 0,0 z m -0.275,0.008 c -0.267,-0.183 0.068,0.148 0,0 z m -1.043,0.065 c -0.002,-0.165 -0.18,0.02 0,0 z m -0.33,-0.056 c -0.26,-0.252 0.18,0.247 0,0 z m 1.907,-0.035 c -0.26,-0.252 0.18,0.247 0,0 z m -4.094,-0.17 c -0.108,-0.3 -0.068,0.13 0,0 z m 3.574,-0.074 c -0.26,-0.252 0.18,0.247 0,0 z m -0.225,0.056 c -0.002,-0.165 -0.18,0.02 0,0 z m -1.162,-0.056 c -0.26,-0.252 0.18,0.247 0,0 z m 0.537,-0.013 c -0.002,-0.165 -0.18,0.02 0,0 z M 12.801091,92.779 c -0.064,-0.2 -0.243,0.15 0,0 z m 127.044999,-0.2 c -0.028,-0.31 -0.154,0.07 0,0 z m 0.24,-0.055 c -0.04,-0.075 -0.15,0.18 0,0 z m -3.073,-0.01 c -0.26,-0.252 0.18,0.247 0,0 z M 6.6990908,92.49 c -0.03,-0.138 -0.473,0.056 0,0 z m 5.2000002,-0.005 c -0.08,-0.104 -0.08,0.104 0,0 z m -0.478,-0.123 c -0.054,-0.25 -0.043,0.14 0,0 z M 7.2560908,92.34 c 0.082,-0.112 -0.244,0.037 0,0 z M 139.03109,92.327 c -0.002,-0.165 -0.18,0.02 0,0 z m -2.496,0 c -0.002,-0.165 -0.18,0.02 0,0 z M 7.8170908,92.314 c 0.1,-0.165 -0.325,0.014 0,0 z m -7.76700001,0 c 0.083,-0.173 -0.073,0.057 0,0 z M 138.16509,92.294 c -0.002,-0.165 -0.18,0.02 0,0 z m -3.935,-0.056 c -0.26,-0.252 0.18,0.247 0,0 z m 5,0.022 c -0.002,-0.165 -0.18,0.02 0,0 z M 9.9540908,91.923 c 0.054,-0.218 -0.175,0.103 0,0 z M 136.78809,91.754 c -0.002,-0.165 -0.18,0.02 0,0 z m 2.232,-0.063 c -0.1,-0.084 -0.027,0.105 0,0 z m -0.325,0.028 c -0.002,-0.165 -0.18,0.02 0,0 z M 0.22909079,91.467 c 0.1,-0.216 -0.046,-0.15 0,0 z M 137.60309,91.177 c -0.26,-0.252 0.18,0.247 0,0 z M 0.88709079,88.16 c 0.13200001,-0.127 -0.138,-0.14 0,0 z m -0.272,-1.1 c 0.083,-0.173 -0.073,0.057 0,0 z M 123.23009,77.92 c -0.002,-0.165 -0.18,0.02 0,0 z M 3.9000908,76.237 c 0.042,-0.123 -0.107,0.015 0,0 z m 2.273,-2.477 c -0.002,-0.165 -0.18,0.02 0,0 z m 0.5,-0.297 c 0.042,-0.123 -0.107,0.015 0,0 z M 153.37509,70.3 c -0.08,-0.104 -0.08,0.104 0,0 z m -0.277,0 c -0.08,-0.104 -0.08,0.104 0,0 z m 2.295,-0.23 c -0.063,-0.178 -0.09,0.16 0,0 z m -4.16,-0.554 c -0.267,-0.418 0.013,0.38 0,0 z m -2.225,-0.883 c -0.05,-0.077 -0.3,0.054 0,0 z m -0.273,-0.17 c -0.143,-0.1 -0.103,0.058 0,0 z m 7.213,-0.217 c 0.005,-0.406 -0.21,0.017 0,0 z m -0.832,-1.108 c -0.045,-0.26 -0.27,-0.228 0,0 z m -0.556,-0.444 c -0.017,-0.057 -0.208,-0.05 0,0 z m 0.003,-0.116 c -0.436,-0.61 -0.025,0.068 0,0 z m -1.113,-0.65 c -0.424,-0.146 -0.04,-0.034 0,0 z m -3.602,-1.998 c -0.08,-0.104 -0.08,0.104 0,0 z m -0.555,-0.277 c -0.08,-0.104 -0.08,0.104 0,0 z M 49.040091,51.603 c -0.002,-0.165 -0.18,0.02 0,0 z m 41.645,-17.54 c 0.142,-0.463 -0.126,0.085 0,0 z"
     id="path2"
     inkscape:connector-curvature="0"
     style="fill:currentColor" />
</svg>
