<svg xmlns="http://www.w3.org/2000/svg" width="583.941" height="718.564" viewBox="0 0 154.501 190.12"><path fill="currentColor" d="M46.14 190.12c-.812-.443-1.72-.56-1.334-1.953-.072-3.338-.894-7.065-3.523-9.192l-6.92-1.683c-2.406-1.364-2.765-4.57-4.89-6.384-1.544-1.72-1.913-3.892-3.937-5.26-1.995-2.397-4.974-4.174-5.522-7.43-1.45-3.25-1.78-6.91-2.322-10.367-.156-2.66-.736-5.413-.79-8.12-.22-2.068.443-4.18 1.353-6.052 1.28-2.182 2.027-4.626 2.9-6.966.483-1.54 4.1-2.342 2.017-4.116-2.496-4.266-3.565-9.073-5.053-13.713-1.83-3.375-4.804-6.112-5.744-9.933-.93-2.42-1.11-5.03-2.654-7.18-1.338-3.432-2.568-6.858-4.544-10-2.157-4.163-5.056-8.283-4.8-13.22-.822-5.948-.246-12.063.97-17.95C2.704 47 2.807 42.997 3.32 39.198c-.444-3.456-1.13-6.717-.56-10.214-.17-2.354-.2-4.942.79-7.117 1.404-.795 1.562-2.118.766-3.403-.756-2.2.712-4.338 1.812-6.052-.9-1.903-1.715-3.776-2.706-5.566C2.32 3.9 4.58.082 7.84.003c1.774-.04 3.528.362 5.3.715 2.215 1.075 2.677 3.657 4.09 5.413 1.498 1.26 2.817-1.453 4.526-1.38 2.248-.878 4.1.376 5.515 2.043 2.455 1.308 4.805 2.86 6.384 5.26 1.663 1.88 4.17 2.587 5.745 4.647 2.993 2.114 5.5 5.036 9.116 6.077 1.418 1.474 3.953 1.898 4.136 4.264 1.003 1.942 1.635 4.437 3.574 5.618 1.265-.807 2.513-1.853 4.15-1.838.872-1.892 1.65-4.082 3.663-5.235 2.06-1.814 5.305-3.138 7.916-2.068 1.653 1.868 2.344 4.3 2.017 6.74-.244 2.236.53 4.293.5 6.537.28 2.39.83 4.7 2 6.792 1.02 1.715 1.837 3.55 2.5 5.464.868 1.778 1.51 3.486 2.936 4.903 1.182 1.427 1.733 3.174 3.396 4.06 2.053 1.435 3.467 3.386 4.34 5.683 3.084 4.68 5.93 9.798 6.38 15.453.443 4 .006 7.978-.07 11.868.184 1.96 2.06 3.412 2.597 5.348 1.647 2.83 1.003 6.363 2.756 9.142.5 2.25 2.995 3.32 4.62 4.673 1.344 1.007 2.856.88 4.137-.154 2.752-2.066 6.464-1.563 9.627-1.965 2.153.71 4.826.32 6.716 1.833 1.377 1.108 2.526 2.674 4.24 3.298 3.01.41 6.358-.033 9.14 1.455 3.243 2.78 7.613 3.697 11.772 3.37 1.856.088 3.226 1.256 2.885 3.268l-.304 26.303c.133.735.036 3.375.05 4.85.158 11.65-.126 23.324-.204 35.008-.266 1.852-2.5 1.274-3.65 1.302-3.145.203-6.406-.365-9.73.128-10.267.225-20.477.984-30.794.995l-41.646-.255c-7.4.277-14.622.165-22.03.502zm72.664-.753c-.134-.094-.134.094 0 0zm.477-.014c.123-.17-.207.125 0 0zm-35.306-1.773c3.707-.046 7.174-1.48 10.612-2.628 3.26-1.493 6.703-2.818 10.02-4.212 3.93-1.053 4.324-6.285 8.12-7.686.863-.837-1.516.317-2.017.766-2.905 1.91-3.573 6.284-7.277 7.098-.772.57-2.043.303-.843-.613 1.996-2.21 3.75-4.99 4.314-7.865-.483.988-.827 2.918-1.812 3.064 1.45-3.22 2.525-6.62 3.65-9.985 3.6-3.95 3.826-9.534 5.666-14.325 1.38-3.224 2.077-6.71 3.113-10.03 1.136-1.357 2.35-2.716 2.17-4.55.524-2.997 3.062-5.018 3.88-7.865 1.03-1.58 2.053-3.054 2.63-4.826 1.668-3.382 4.262-7.164 8.237-7.82 1.73.138 4.117-.47 4.71 1.705 1.012 1.632 3.327 1.538 4.01 3.23-.065.784.322 2.42 1.086 2.44.302-.79-1.667-2.665.204-2.338.923.82.455 2.46 1.178 3.166.645-1.438-.598-2.3-.96-3.666-.625-1.49 1.8-.363 2.503-.164 2.295.468-.57-.733-1.43-.79-1.988-.913-4.643-.114-6.13-2.225-.863-2.32-3.665-1.61-5.618-1.9-2.6.133-4.692 2.027-5.975 4.162-.804 1.87-2.87 2.983-3.293 5.056-2.163 2.45-3.292 5.556-5.26 8.15-2.197 4.24-3.714 8.84-4.593 13.53-.624 3.35-1.252 6.744-2.73 9.83-.585 1.444-.993 3.008-1.66 4.367-2.234-.647-4.505.093-6.537 1.072-4.12.547-8 2.04-11.95 3.24-3.804 2.3-8.673 2.33-12.053 5.488-3.245 1.256-1.57 5.087-1.532 7.66.096 1.046.352 2.09.827 3.013-.273-2.963-1.23-6.045-.84-8.95 1.118-.013-.044 1.67.626 2.414.17.82.247 3.186.842 2.758-.125-.884-.228-2.362.996-1.66.72-.063 1.784-.642.41-.408-1.404-.693 1.572-.52.28-1.506.37-.297 2.023-.5.854-.562-1.323-.435-.435-1.053.295-.28-.2-.94 1.235-2.314 1.123-.434-.757 1.02.105.885.766.23-.026-.98 1.052-1.553 1.02-2.324-.902-.295 2.46-1.373 1.405.102.25.25.835-1.582 1.608-.92.68-.528.477-.426.51-1.112.456-.448 2.372-2.215 2.35-1.242-.156.915-1.906 1.52-1.747 1.825.7.043.16 1.782-.296 2.215-1.097.928-2.948 2.772-2.64 4.1.182-.947 2.08-2.88 1.44-.985-.46 1.248-.162 4.532.05 1.532.395-1.975 1.405-3.84 2.502-5.465.566.917-1.217 1.927-1.098 3.115-.337 1.564.34.976.485-.204.374-1.134 1.335-1.11.792.357-.493 1.904 1.013 1.98.612.613-.68-.862.708-.288.664-1.532.602-1.13 1.186-3.027 2.272-3.37-.875 2.194-.565 4.824-1.786 6.895-.09 1.165-.88 2.497-1.103 3.37 1.696-.7 2.426-2.814 2.788-4.545.346-1.592-.702-2.975.33-4.545.446-.767.292 2.8.664.74.87-1.83.945-4.26 2.566-5.54.266.98-1.045 2.23-1.24 3.422-.992 2.32-.86 4.766-1.02 7.195-.22.68-1.146 2.433-.46 2.4 1.107-1.673 1.466-3.894 2.874-5.22.566 1.383-1.577 3.656.216 4.253.96-.695.853-2.887 1.89-3.218 1.245-.28.114 2.34 1.008.88 1.208-.498.564-2.335 1.647-3.128.208-.83 1.303-2.26.714-2.758-1.163.545-.036-1.827.408-2.298 1.184-1.667.334.9-.178 1.558.958.813-.144 2.94-.612 4.213-.61.854-.78 3.242.026 1.226 1.15-2.147.975-4.72 1.914-6.838.752-.753 1.91-3.082.217-1.167-1.66.147 1.092-1.486 1.62-1.928.95-1.067 3.008-1.133 1.174.41-1.825 2.152-.732 5.856-3.42 7.456-.082 1.694-.497 3.203-1.404 4.673-1.038 2.7-3.77 4.602-6.236 5.873-1.785.92-3.852 1.458-5.663 2.144-3.09.703-6.295 1.32-9.41 1.43-1.457-.415-1.26-2.14-2.283-2.707-.832 2.056 1.647 4.197 3.753 3.932l.46-.025zm13.84-10.93c.133-.19.052.262 0 0zm.357-.755c.354-.706.187.42 0 0zm.255-.618c.343-1.118.427.495 0 0zm-18.455-.02c-.575-1.737 1.715.397 0 0zm21.347-.1c-.22-.442.36.137 0 0zm-.025-.282c-.42-1.294 1.22-1.065 0 0zm-2.63-.076c.297-1.79.07-4.135 1.397-5.656 1.602-.16 1.962-2.778 3.525-3.345 1.025-.485 2.01-2.077 2.91-1.583-1.96 1.6-3.777 3.728-4.75 5.95-.176 1.085-.563 2.53-1.412 3.135-.062-1.194.225-3.062-.145-3.773.066 1.854-.64 3.85-1.526 5.273zm-18.62-.345c-1.073-1.438 1.6-.395 0 0zm.747-.32c-.007-1.373 1.23.362 0 0zm-1.2-.996c-.577-1.605 2.008.48 0 0zm1.32.09c-1.197-.93 1.272-.655 0 0zm16.266-.325c.137-.853.625-.143 0 0zm-.742-.67c.424-1.5.5.927 0 0zm-16.878.102c-.525-2.44 1.925.18 0 0zm2.426-.128c-1.54-.83 1.626-1.11.306 0l-.153.025-.153-.025zm-1.226-.664c-1.148-.728 1.4-1.006 0 0zm17.165-.243c-.255-.806.865.204 0 0zm-1.226-.102c-.242-1.098.915-1.345.3-.126l-.184.19-.116-.063zm-12.416-.165c.127-.27.127.27 0 0zm-2.707-.22c.125-.405.31.235 0 0zm16.987.002c-.937-.747.227-1.746-.07-2.515-.422.8-1.583 1.943-1.034.306.557-.795 1.515-1.872 1.685-2.502.42-.77.35-.743.766-1.507 1.36-.7.968.262.287.887-.9.942-.35 1.75.274.4.632-.578 1.535-1.696 2.35-1.736 1.073-.03-.69.85-.97 1.43-.54.116-.467.328-.945 1.2-.878 1.236-1.887 2.44-2.08 4.023l-.263.025zm-16.68-.498c-1.71-.923 2.126-.822 0 0zm8.988 0c-.9-.922 1.906-2.887 1.2-.69-.258.328-.775.7-1.2.69zm-7.66-.306c-.846-1.11 1.528-.298 0 0zm3.505-.728c.328-1.595 2.01-.89.632.013l-.632-.013zm-1.047-.23c-.222-.686.843.224 0 0zm6.767.026c.004-1.037 1.92-2.707 1.04-.8-.202.332-.624.788-1.04.8zm-4.373-.186c.254-1.426 1.272-1.206.255-.03-.002.133-.348.28-.255.03zm12.365-.198c-.268-.98 1.743-2.353.76-.81-.125.265-.46.903-.76.81zm-6.64-.204c-.116-1.34 1.508-3.38 2.777-3.05-.223 1.165-1.547 1.655-1.583 2.45-.337.225-.76.804-1.194.6zm-2.068-.944c.03-1.09 1.825-1.866 2.292-1.545-.473.82-1.373 1.42-2.292 1.545zm10.06-.715c.09-1.095 1.867-1.335.362-.18-.052.13-.224.233-.362.18zm-4.954-.613c.315-.916.298.264 0 0zm.357-.51c.125-.988 2.647-1.035.842-.37-.25.177-.476.523-.842.37zm5.413-.153c-.025-.907 2.715-1.204 1.245-1.354.86-1.205 2.48-.78.868.498-.442.303-1.47.714-2.113.855zm3.34-1.737c1.1-1.184 2.924-1.5 4.074-2.387.856.94-1.36 2.033-2.363 2.12-.58.046-1.14.32-1.71.268zm37.612-43.523c-.746-.947 1.647-.024 0 0zm-55.294 61.116c.89-1.5 1.994-3.54 1.747-5.095-.357 1.785-1.653 3.182-2.144 4.917.076-.016.25.478.396.18zm2.528-1.61c.567-.924 1.027-1.96 1.43-2.94-.958.4-1.736 2.08-1.7 3.053l.064.025.204-.14zm3.14.026c.126-.924 1.338-2.643.75-2.95-.167.86-1.35 2.446-.75 2.95zm-7.123-.484c.486-1.23-.025-1.85-.22-.244-.076.122.013.363.22.244zm-3.932-.766c.01-.335-.578.078 0 0zm-2.006-1c1.72.025 1.22-.384-.153-.23-.344.04-.75.417.153.23zm10.075-.317c.363-.455-.44-.103 0 0zm-48.606-.5c5.74.226 10.847-2.892 15.22-6.254 1.262-.763 2.84-2.1 3.524-2.937-2.563 1.43-4.797 3.423-7.303 5.005-4.28 2.866-9.614 4.866-14.76 3.318-1.45-.233-3.37-.734-4.34-1.3 1.84 1.44 4.4 1.25 6.537 2.065.37.083.77.04 1.123.102zm38.633-.255c1.855-.117-1.202-.538 0 0zm73.104-4.3c-.065-.09-.065.09 0 0zm-46.69-.165c.925-1.49 1.524-3.998 3.817-3.51 3.508-.776 5.634-4.153 7.405-6.996.29-.702 1.244-2.318.97-2.446-1.82 2.732-3.096 6.038-6.173 7.63-1.663 1.213-5.165.58-5.42 3.37-.27.453-1.084 2.247-.6 1.954zm9.28-.396c1.484-.428 3.33-1.435 3.56-2.987-.965 1.352-2.446 2.167-3.867 2.947.093.128.2.036.307.04zm-28.326-1.392c.044-.34-.406.175 0 0zm-58.26-4.71c-.81-2.138 1.07-3.363 2.874-3.345.35-1.654 2.713-1.624 3.995-2.552 2.928-1.347 6.222-1.95 9.065-3.482-3.204.515-6.26 1.82-9.346 2.793-1.502.793-3.098 1.373-4.6 2.118-1.61-.76 3.005-2.114.58-1.992-.763.326-2.74 1.725-2.15.255-.954.217-2.228.636-2.4-.383-.982.3-1.522-.587-2.605-.358-1.46-.666-3.857 1.134-3.333 2.313.492-1.32 2.613-1.533 2.414.113 1.2-.743 1.296 1.616 1.99 1.953.52-1.85.93-.274.92.88.665 1.513.13-3.33 1.532-1.2.188.848.207 3.043 1.073 2.885zm52.115-1.2c.016-1.688-1.06-4.165-.102-5.822.762.936-.387 3.848.817 4.507-.46-.765-.445-3.78.153-1.81.402-.366-.508-2.307-.025-3.258-.168-.73.737-2.786.536-.92-.212.704-.03 3.142.51 2.834.17-.687.204-2.023.625-2.287.093.84 1.373 3.547.88 1.24-.112-1.644 1.125 2.115.996.204.058-2.37.056-5.106 1.225-7.212.485-1.088 1.305-1.136.715.14-1.24 3.073-2.115 6.724-.805 9.83-.05-.854-.14-2.24 1.035-1.328-.872-2.395-.03-5.777.178-7.68-.9 1.63.054-1.283.178-2.023.478-.486.927-1.89.74-.338-.335 1.328.538 2.813-.077 4.372-.46 2.137-.965 5 .664 6.7.17-.8-.837-2.526.05-3.575.664.954-.037 2.847 1.15 3.422-.097-.522-.08-2.87.54-1.95-1.232.9 1.54 3.266.76 1.492-.633-1.408.5-1.758.996-.352.997 1.158.13-2.04.536-2.457.34-2.676 1.398-5.216 2.552-7.6.815 1.602-1.034 3.04-1.174 4.7-.396 1.75-1.4 4.702.383 5.822.214-2.4.695-5.374 2.555-6.946.096-1.04 1.234-1.56.483-.153-.858 1.725-1.504 3.617-2.067 5.465.055 1.85.823 1.382.842-.204.754-1.227.164-3.516 1.455-4.05.862 1.474-1.636 4.106.04 5.365.334-1.752.447-3.793 1.124-5.33.256-.07 2.35-2.384 1.747-.632-.903 1.486-2.326 4.483-.612 5.54-.32-2.32 1.57-4.69 2.464-6.322.25 1.448-1.403 2.502-1.633 3.794.723-.814 1.15-2.022 1.978-1.84.352-.7 1.313-2.723 1.685-2.03-1.265.958-1.342 2.954-2.86 3.357-.504 1.638.53 1.33.97.01.78-.924 1.208-2.47 2.2-2.987-.35 1.434-2.57 2.693-1.087 4.15-.24-2.498 2.01-4.392 3.09-6.18-.5.903-2.52 2.472-1.226.613.603-.708 2.14-2.84.383-.982-1.528.9-.282-1.16.266-1.52-1.413.864-2.235 2.673-3.497 3.473-.367-1.294 1.452-2.575 2.107-3.778 2.77-2.664-.148-.363-1.353.867-.672 1.222-1.81.676-.7-.256.64-.785 1.374-1.748 1.876-2.502-1.362.398-2.077 3.183-3.05 3.243-.188-2.2-.527 1.172-1.532.077.516-.322 1.72-2.314.715-1.29-.335.933-2.916 2.48-1.61.625.168-.95 1.35-1.663 1.48-1.583-.434-1.347 1.72-2.304 1.61-.46.224.424-1.406 2.338-.23 1.174.96-.593.205-1.833 1.178-2.302-.843 1.74-2.068-.81-.437-1.068 1.035-.535 1.422-1.675.025-1.02-.757.354-1.087-2.147-.766-.358.12 1.985-2.403 2.955-3.447 4.468-.915-.54.59-2.388-.306-2.324-.547-.83.89-2.43 1.532-1.2-.708-.356.25-2.126 1.543-2.732.374.316 1.12-1.2.384-.906-.7-1.758.4 1.102-1.1.905-.867.59-2.275 2.282-2.962 1.61.683 1.005-1.628 2.23-1.456.638-.43-1.315.613-1.95 1.44-3.115-.804 1.494-2.277.976-1.11-.434-1.616-.366.975-2.62.587-.74.588-.683 1.436-1.315 1.405.014 1.03.36.525.594-.27.65.62-.31.142 1.397.678.427.396-.598 2.498-2.048.807-.99-1.03-.376 1.877-1.952 1.134-.51.543.12.042-1.437 1.2-1.43.918-.735 1.627.047.996.996-.998.28.327 2.018.536 1.353.5-.572 1.605-.884.383-.996.875-.96 2.43.588 1.558 1.61.175 1.24.61-1.1 1.623-.678-1.606-.213.88-3.47.88-.956-.376.814-.876 2.507-.842 2.426.896.624.66-3.682 1.557-.996.732 1.073.92 2.578 1.667 3.545.752-2.684.165-5.5.655-8.135-.126-.44-.823 1.596-.893 2.2-.145.956-.617 3.227-.79 1.072-.367-2.2.397-4.31.955-6.282-1.02.894-1.025 2.745-1.863 3.513-.45-1.874.656-3.973 1.062-5.504-.77.513-1.882 3.27-1.967.817-.148-1.454 1.325-2.69 1.353-3.88-.752.915-1.432 1.813-2.12 2.962-.457-1.82 1.667-3.41 2.376-4.852-2.144.792-3.728 2.804-3.97 5.12-1.16-.923-.938-2.97.6-3.6 1.095-.37 1.03-1.893-.13-.92-1.594.7-1.57 2.564-2.04 3.88-1.564-1.87.8-4.428 2.374-4.863.65-.468 1.813-2.302.235-1.572-.747.942-2.244-.116-.797-.74 1.77.06-1.13-2.253 1.16-2.375 2.257.704-1.246-1.972.832-1.634 1.03.13 2.82 1.618 1.022-.256-.374-.64-3.24-2.347-1.174-1.84 1.046.66 3.134 1.04 1.328-.536-.8-.765.188-2.378 1.02-1.036.63.42 2.543 2.34 2.043 1.29-.523-.55-1.384-1.028-1.94-1.838.83.177 3.153.394 2.732 1.353.873-.424 1.603-.287 1.455.654-.56.567 1.266 1.332.766.328 1.127-.89 2.602-1.068 4.392-.982-1-.753-2.717-.226-3.8.306-1.11-.353-2.42-1.027-.593-1.608.863-.01.36-1.117 1.547-1.098-.014-.7.394-1.1 1.415-1.15.506-.585-1.058-1.557-.46-1.736-1.675.757-1.34-1.906.102-.894.336 1.056 3.364.875 1.38.485-1.198-.4-1.828-1.874.05-1.48 3.102-.56 5.923 1.31 7.763 3.65.482.942 2.092.75.664.18-1.657-1.392-2.724-3.452-5.056-3.804-3.867-1.057-7.812-.3-11.638-.102-1.73.913-3.195 3.138-5.317 1.864-3.75-1.266-7.577-4.07-8.07-8.272-.844-3.56-2-7.006-3.726-10.24-1.927-2.69-.42-6.067-.74-9.116.195-4.1-.098-8.305-1.608-12.093-1.265-2.574-2.814-5.022-3.854-7.67-1.382-3.2-4.344-5.164-6.74-7.507-1.157-2.708-4.155-4.162-4.596-7.2-.847-1.874-1.54-3.926-2.706-5.527.22-2.705-2.833-4.517-1.99-7.42.322-1.554-.315-3.005-.842-4.417-.123-2.605 1.058-5.335-.332-7.828-1.266-.07-.855 2.014-1.7 2.798-.753 1.342-2.57 1.97-1.226 3.702.445 1.06.555 3.526.612 1.277.497-1.257-1.395-3.255.55-3.473.91.937.567 2.795 1.007 4.06-1.644 1.25 1.02-.162.715 1.352.612 1.005-.296 1.654-.102 2.645-.66.366.598 2.055-.204 2.502 1.005.78.08 1.656 1.277 2.354-.765.615-1.495.502-.817 1.665-.14 1.482-2.207-.09-1.634 1.02-1.245.428.385-1.392-.945-.792-.634-.25-2.19-1.063-1.966-.026 1.33-.335 2.677.534 1.94 1.61 1.486-.326 2.923-1.078 4.406-1.175-.223.623-.3 1.436.063 1.94-.713.352-2.478.293-2.436.696 1.158.677 2.42-.638 3.38-.018-.98 1.59.07.133.817 1.033.172 1.048 1.81 2.263 1.123 3.14-.035.306 1.946 1.572.306 1.787-1.114-.183-2.11.19-3.385-.117.78 1.145 2.91.85 4.024 1.43-.095.84-1.89 1.182-.243 1.342.9-.094 3.328.716 1.162.996-1.27.053-1.8 1.615-.153 1.455.77.394 3.578-.26 2.91.817-1.73 1.784 2.626.776 2.49 1.89-.687.282-3.568-.324-1.968.92 1.455.273 2.848.44 3.512 1.94.798.627 2.268.968 2.656 1.778-.3 1.03 1.823 1.28.97 1.975.615.46.93 1.053 1.342 1.674-.546.433.383.796.644 1.16.583.714.64 1.45.21 2.032 1.37.48 1.013 1.905 1.634 3.203.212 1.753.624 3.296-.28 5.03-.275 1.805.66.134.638-.638 1.06.775-.306 2.464.434 3.294-.7 1.207.55.43.128 1.654-.18 1.376.397 3.188-.408 4.73-.013 1.007.167 1.796.255 2.707-.42 1.214 1.1.115 1.072 1.623.96.83-.14 2.698 1.328 2.64-.173 1.008-.47 1.912.792 2.094-.293 1.01 1.028 1.383.317 2.568.713.447 1.448 1.834.602 2.795-.445 1 .224 1.188.6.3.06.784-.944 1.645.293 2.032-.023 1.1.62 1.55-.05 2.785.19 1.264 1.73-1.233 1.098.664-.227 1.22.805.466 1.293.102.435.758-.824 1.652.24 2.196.904-.653 1.3-.64.777.423 1.347-.837.84 1.05 2.083-.168-.04 1.302.088 1.6.945.69 1.262-.903.365.803.46 1.123.637-1.067 1.255-.677.914.383-4.756 3.035-8.14 7.68-11.434 12.204-1.65 2.854-5.02 4.424-6.18 7.662-2.66 3.532-5.297 7.296-5.923 11.746-1.36 4.444-1.67 9.087-2 13.687.004 1.454.34 3.247 1.424 4.186zm8.682-5.504c.115-.378.216.168 0 0zm.613-.292c-1.535-.333-.287-2.87-.154-4.023.615-1.037 2.036-3.455 1.43-.777-.554 1.534-.12 3.606-.98 4.826-.096-.02-.2-.044-.298-.025zm1.736-.255c-.277-1.343-.687-4.083 1.25-3.958.213-.9 1.246-1.085.562-.05-.75 1.237-1.122 3.028-1.813 4.01zm-.613-.153c-.486-2.28.653-.386 0 0zm3.096-.677c.08-1.34.558-3.682 1.78-3.894.386 1.285-1.023 3.054-1.78 3.894zm-6.007-.14c.07-2.748 1.123-5.612 2.348-8.018 1.018.79-.358 2.506-.612 3.652-.453 1.397-.56 3.017-1.02 4.264-.258-.04-.482.323-.715.102zm12.614-1.38c-.21-.93 1.157-.715.128.026l-.128-.025zm-16.035-.5c.062-.54.362.27 0 0zm-2.292-.407c-.41-2.566.74-4.855 1.74-7.125 1.318.235-.65 2.964.295 2.823 1.05-1.21.047.8-.255 1.38-.4 1.147-.496 2.467-1.78 2.923zm2.24-.012c-.886-2.162.822-4.51 1.582-6.608.432-.392 1.553-2.94 1.507-1.18-1.33 2.394-2.343 4.925-2.807 7.66-.03.098-.185.196-.28.128zm6.773-1.085c.417-2.53.798-5.326 2.98-6.984.704-1.378 1.268-.485.358.39-.265.48 1.005-.903.587.454-.437.88-1.362 1.276-1.302.7-.94 1.764-1.747 3.797-2.623 5.44zm4.717-.804c.08-1.082 1.33-1.195.51-.134-.088.147-.69.785-.51.134zm5.287.237c.058-1.067 1.384-.618 0 0zm-.046-1.475c-.28-1.647.997.19 0 0zm-4.22-.37c.077-.865 1.333-1.76.357-2.237.928-2.138 1.537 1.014.408 1.567-.26.117-.476.796-.766.67zm-1.194-.702c-.54-2.807 1.805-.5 0 0zm.99-1.545c-.308-.886 1.285-3.412 1.353-1.43-.345.468-.895 1.555-1.353 1.43zm-5.8-.498c-.206-.892.36-3.22 1.474-2.77-.218.954-1 2.013-1.474 2.77zm-7.813-.562c.26-1.5.55-3.347 1.6-4.584.7 1.146-.875 2.875-1.225 4.24-.105.132-.168.358-.377.345zm9.007-.55c-.292-.806 2.218-2.655.996-.843-.297.23-.547.95-.996.843zm-7.424-.064c-.02-1.115 1.1-2.246 1.78-3.026-.185.896-.926 2.208-1.557 3.04l-.223-.013zm10.692-.472c-.485-1.208 1.158-1.706.664-.32-.133.157-.407.5-.664.32zm-5.975-.69c-1.252-.012.246-2.485.893-2.222.042.702.376 2.42-.893 2.222zm4.443-.562c-.818-.952 1.557-2.976 1.02-.868-.297.308-.627.8-1.02.868zm1.513-.268c.09-1.76 1.332-.292 0 0zm-7.15-.102c-.37-.766.987-.268 0 0zm4.622-.026c-.164-1.6 1.2-.046 0 0zm-2.043-.766c-.787-1.428 1.382-3.01 1.985-2.452-.35 1.102-.797 1.176-1.743 2.414l-.07.05-.172-.013zm-2.375-.025c-.06-.3.307.078 0 0zm5.33-.46c.448-1.02.428.594 0 0zm1.583-.063c-.655-.977.96-1.835.562-.344-.07.024-.347.56-.562.344zm-6.026-.46c-.545-1.386 1.945-2.528.766-.666-.124-.352-.588.917-.766.666zm4.545.026c-.256-1.61 1.98-.69.28-.026-.09.024-.188.087-.28.026zm16.29-.357c.147-.578.244.33 0 0zm-14.708-.715c-1.002-1.468 1.457-1.524 0 0zm-7.865-.177c-.146-.783 1.256-.44 0 0zm-1.685-.18c-.265-1 1.14-2.466 1.813-2.58-.186.824-1.09 2.187-1.813 2.58zm7.813-.51c-.494-.94.2-2.53 1.48-2.323 1.126-.96-.002 2.144-.397.573.124.8-.235 1.63-1.084 1.75zm.715-1.61c-.268-.188-.268.188 0 0zm-3.492 1.545c-.483-1.847 1.445-2.57 2.073-3.945.52.88-.21 2.637-.905 1.992.137.704-.335 1.948-1.168 1.954zm-1.258-.1c.548-1.564 1.747-.717 0 0zm16.348-.14c-.378-1.903.923-.486 0 0zm-17.574-.114c.194-.7.272.335 0 0zm14.912-.204c.065-.09.065.092 0 0zm-4.443-.102c-.238-.845.002-2.515 1.072-2.267 1.228-1.694 1.517 1.46-.074 1.373-.486-1.215-.235.43-.794.792-.05-.053-.16.19-.204.102zm-10.316-.255c-.036-1.412.926-.077 0 0zm8.662-.268c-.49-.918 1.738-1.364.107-1.122-.256-.954 1.178-2.71 1.368-1.138-.556 1.02-.063 1.4-1.053 2.196-.1.102-.286.134-.42.064zm7.94-.128c.124-1.012.424-2.795 1.463-3.102.824.84.314 2.038-.322 2.758-.02-1.176-.246-1.598-.484-.113.11.402-.404.54-.657.457zm-1.66-.23c-.46-.97 1.278-2.553.683-.988-.346.246-.303.918-.683.988zm-7.533-.128c-.39-.926.53-1.84.697-2.13-1.204-.546.6-1.906.777-1.762-1.755-.1-.957 2.99-3.064 2.298-1.702 1.09-.304-1.896-.358-2.324-.698-1.065.935-2.348.115-2.952-.635.94-.152 3.278-1.456 3.22-.443-1.983.048-.162-.676.6-.726-.134-.11-2.492.766-2.298.053-1.63 1.8-2.52 3.157-2.86.964.724-1.224 2.293-.476 2.324.392-.203.724.973 1.237 1.353.9-.76 2.49.072 1 .664.264.993 1.508-1.125 1.277.434-.232.97-1.228 1.07-.968.026-1.27.724-.064 3.765-2.04 3.408zm-.81-5.08c.078-.337-.423.18 0 0zm9.23 5.118c-.582-.653 1.343-3.24.766-1.328-.192.437.036 1.555-.766 1.328zm-15.544-.218c-.337-.993 1.1.186 0 0zm1.277-.97c-.15-.83.404-2.315 1.182-2.453.105.874-.242 2.163-1.182 2.453zm11.868-.083c-.09-1.055 2.12-1.94 1.378-.35-.284.344-.978.432-1.378.35zm-2.76-.21c-.918-.872 1.77-2.238.715-.466-.026.226-.507.495-.715.466zm9.326-.013c-.29-.567.807-.03 0 0zm-20.99-.154c-.12-1.672 1.52-.45 0 0zm13-.293c-.447-.467.132-1.616.613-1.99-.703-.512 1.015-1.756.868-.548-.3.843-.982 1.21-.817 2.145-.115.096-.4.523-.664.395zm3.48-.04c.088-.867.443-1.504.734-2.285 2.433-1.106.2 2.45-.734 2.285zm-15.43-.855c-.675-1.07 1.534-2.588.817-.97-.062.358-.555 1.502-.817.97zm13.718.064c-.105-.807 1.093-2.805 1.55-1.555-.477.524-1.01 1.19-1.55 1.555zm.938-.42c.362-1.108.834.445 0 0zm-3.543.013c.077-.993 1.422.138 0 0zm.377-.498c-.667-1.247 1.76-.88 0 0zm-1.38-.78c.554-.854.483.45 0 0zm-.53-2.246c-.817-.935.572-2.215.224-.294-.02.123-.04.293-.224.294zm-1.838-.154c-.222-.72.654.204 0 0zm5.177-.67c-.256-.528.494-2.707.944-1.895-.34.935.618 2.278-.944 1.895zm-9.518-.044c-.128-.91.877-.03 0 0zm5.177-.334c.195-.438.216.263 0 0zm-4.564-.177c-.056-1.208 2.653-1.376.76-.217-.22.158-.47.318-.76.217zm6.92-.23c.025-1.094-.02-3.522 1.474-3.5-.557 1.037-.365 2.713-1.225 3.55l-.096.024-.153-.063zm-4.725-.026c.16-.56.393.253 0 0zm1.042-.14c-1.807-.31 1.73-1.34 0 0zm10.826-1.455c.062-.178.062.178 0 0zm.05-.18c.06-.266.06.266 0 0zm-12.276-.32c.554-.712 2.232-2.65 2.777-2.08-.353 1.054-1.646 2.027-2.777 2.08zm6.486-1.89c-.2-1.32 2.455-2.155.938-.548-.193.33-.486.86-.938.548zm3.185-1.314c-.314-1.69 1.704.266 0 0zm-4.137-1.277c-.55-1.175 1.665-.322 0 0zm.664-.92c-.74-.843 1.968-1.587.614-.332-.173.112-.38.415-.614.332zm1.992-.204c-1.258-.665 1.167-1.85.562-.267-.084.207-.367.3-.562.267zm1.155-1.034c-.5-2.2 2.13-.69 0 0zm.734-.013c.206-.472.277.22 0 0zm-3.422-.128c-.844-.782 1.326-.545 0 0zm4.168-.473c-.123-1.133 1.45.342 0 0zm1.653-.293c-1.345.11-.685-1.68.05-.336.13.092.174.435-.05.336zm-4.334-.447c.083-1.003.687.54 0 0zm2.496-.267c-2.787-.668.207-2.846.766-.344-.162.283-.44.452-.766.344zm2.81-.613c-1.06-.646.978-.46 0 0zm-.836-.677c-.54.27-2.07-1.417-.874-1.136.347.063 1.58 1.18.874 1.136zm-5.905-.115c.16-.715.723.147 0 0zm3.498-.868c-1.657-1.15 1.29-1.583.32 0-.09.072-.23.065-.32 0zm3.14-.434c-.54-.42-2.745-1.4-1.34-1.71.303.333 2.496 1.632 1.34 1.71zm6.537-.05c-1.06-1.266 1.732-.345 0 0zm-6.64-1.328c-1.63-.396-1.148-2.322.244-1.342.16.325.405 1.487-.244 1.342zm4.698-.357c-.8-.863 1.127-.136 0 0zm.92-.204c-.74-.592-2.102-2.307-.204-1.48.208.78 1.577.368 1.175 1.175-.3.128-.617.38-.97.306zm-1.48-.204c-1.9-.66.688-1.673.204 0l-.102.025-.102-.025zm-1.838-.562c-1.307-.07-.403-1.3.28-.23.06.14-.216.262-.28.23zm4.24-.41c-1.143-1.037.78-1.638 1.443-.638.92.617-1.217.567-1.443.638zm-3.626-.102c-1.56-.557-1.315-2.224.204-1.175-.1.297.216.8-.204 1.174zm-1.704-.166c-.116-.64.628.12 0 0zm-1.92-.294c-.768-.87 1.943-.91.41-.102-.124.048-.277.16-.41.102zm4.647 0c-.572-.594.67-.077 0 0zm1.634 0c-1.286.008-1.9-1.914-.153-1.506.952.24 1.124 1.182.153 1.506zm2.707-.357c-1.202-.145-1.745-1.85-.102-1.48.32.793-.032.635 1.322.843.2.3-.936.663-1.22.638zm-11.286-.332c-.287-2.238 1.203.01 0 0zm1.002-.345c.045-.812.83.24 0 0zm5.228-.345c-1.126-.754 1.156-.387 0 0zm2.656-.46c-2.144-.682 2.5-1.23.664 0l-.332.025-.332-.025zm3.045-.013c-.097-.444.402.14 0 0zm-6.722-.243c.872-1.006 1.092.104 0 0zm-8.7-.523c-.142-.805.778-.066 0 0zm12.18-.23c-.112-.612.835.323 0 0zm-14.254-.344c.062-.178.062.178 0 0zm1.175-.102c.098-.364.248.138 0 0zm-2.45-1.507c.517-1.583.75.208 0 0zm-.97-.996c.147-.52.187.585 0 0zm-.357-3.294c.148-.282.194.124 0 0zM81.32 59.96c1.722-1.137.507.116 0 0zm-3.473-4.545c-.814-1.298 2.836-.526 0 0zm-2.24-8.44c-.253-.742.628.244 0 0zm-10.96 117.112c2.272-1.862 4.138-4.24 5.807-6.588-2.162 1.98-4.634 4.484-6.048 6.715l.24-.128zm19.687-2.91c-.014-.824-.58-.608 0 0zm-12.498-1.442c1.007-1.623 2.275-2.918 3.1-4.585.49-.56.205 3.257.74 1.098.757-2.37.076-4.77.332-7.175.106-.706.24-2.198-.204-.715-.536 1.554-.766 3.157-1.915 4.47-1.003 1.902-1.938 3.916-2.873 5.812 1.917-1.743 2.564-4.868 4.1-6.858-.026 2.11-1.706 3.722-2.3 5.715-.212.637-1.447 1.983-.982 2.24zm48.21-1.404c.603-.815-.232-.536 0 0zm-12.986-.678c-.113-2.04 2.018-2.948 2.808-4.392-1.6.27-3.853 2.932-2.808 4.392zm1.623-.47c.304-1.005 2.093-1.475 1.29-2.44-.752.43-2.113 1.774-1.29 2.44zm1.507.026c.645-.613 1.6-2.744.266-1.19-.016.313-.896 1.203-.266 1.19zm-87.965-.153c.374-1.6-.775-4.488 1.134-5.07-.5-1.058-1.725-2.532.026-2.758-.712-.76-1.717-2.108-.102-2.354-.452-1.086-1.257-2.244.185-3.018.57-1.484-.935-3.937.825-4.597.143-2.103.434-4.237.38-6.207.756.018 1.73 1.037 2.057-.318.294-2.314-.472-1.146-.5.153-.675.86-1.7-1.063-2.4-1.277.137-1.49 2.66 1.696 1.762-.296-1.144.208-1.885-1.444-.67-1.696.85 1.28.955.672.9-.562-1.042 1.475-1.352-1.81.156-.574.697-1.352-.632-3.367-1.674-1.582-1.755 3.32-3.886 6.543-4.722 10.266-.686 2.655-.148 5.63.255 8.326.957 2.477 1.128 5.37 1.684 8.027.098.97-.087 2.903.703 3.537zm.726-13.7c-1.238-.494-.102-2.95.255-.97.03.226.028.918-.255.97zm-1.27-2.08c-.18-.587.465.1 0 0zm.894-.792c-.385-1.36.277-2.206.25-.38l-.132.443-.117-.063zm-1.002-1.212c-1.2-.9.4-2.62.358-.613-.058.106-.117.984-.358.613zm2.324-.23c-1.442-.446-.087-3.33.128-1.2.005.326.2 1.066-.128 1.2zm-2.043-2.043c-1.223-.75 1.114-2.04.332-.23-.083.117-.093.36-.332.23zm1.685-1.226c-1.465-.372.36-3.36.28-.996-.085.245.06.93-.28.996zm.153-2.35c-1.073-1.05 1.02-1.54.46-.2-.088.156-.284.27-.46.2zm-1.4-1.2c.133-.642.928-2.726.966-1.287-.266.448-.63 1.028-.966 1.287zm98.495 24.797c.685-.938-.36-.287 0 0zm-70.96-.51c1.543-1.327 3.883-4.372 5.22-4.865-.56.643-1.938 2.726-.357 1.277.886-.625 2.55-2.593 3.064-2.298-.294 1.184-.84 2.87-.574 3.743.54-.722 1.528-3.446 1.62-1.42.338 1.148 1.124-1.087 1.66-1.578.686-1.016 1.134-2.325 2-3.14-.05 1.054-1.437 2.995-.825 3.315 1.155-2.543 2.107-5.183 3.113-7.783.672-.062-.19 2.202-.434 3.058-.356 2.006-1.04 4.022-1.134 6.026 1.466-3.81 1.897-8.07 3.176-12.002.3-.406 1.13-1.8.266-1.21.105-1.345.155-2.6.386-3.9-1.37 1.8-1.37 4.4-2.823 6.245-1.7 3.363-2.533 7.108-4.606 10.266.45-2.355 1.556-4.787 2.002-7.2 1.057-1.808-1.763.738-2.043 1.53-2.827 2.04-5.372 4.45-8.324 6.384-.974.547-2.022 2.522-.46 1.303.847-.54 2.614-2.286 2.758-1.864-.905 1.07-3.848 3.44-3.69 4.125zm9.358-5.682c.127-.27.127.27 0 0zm.153-.474c.114-.544.247.3 0 0zm.153-.573c.037-1.04.89-1.29.23-.102-.016.065-.186.227-.23.102zm61.883 6.244c.493-.893 1.976-2.665 1.595-2.924-.405.905-1.954 2.45-1.595 2.924zm-10.774-2c.125-.386-.197-.03 0 0zM123.4 152.9c.876-1.4 2.058-2.698 2.693-4.193-.84 1.28-2.475 3.002-2.693 4.193zm-34.1-.553c.45-.65-.377-.594 0 0zm-55.252-.95c-.255-1.325-1.616-2.923-1.474-4.273.482.557.807 3.32 1.48 1.813-.457-1.12 1.506-.962.613-2.528 1.764-.016-.365-1.938-.127-3.013.318-.9-1.28-2.043-.28-2.68 1.037.873.654 2.577 1.48 3.345-.758-1.8.45.067 1.226.434.984-1.48-1.76-3.187-1.777-4.5.768.77 1.983 3.673 2.95 2.19-1.547-1.082-1.892-3.665-3.677-4.123-.437.902-1.274 1.05-.69-.077.027-1.25-1.036 1.122-1.123 1.788-.625 2.703-1.56 5.624-.765 8.324.795.97 1.234 2.798 2.162 3.303zm-.86-3.864c-.613-.974-.136-1.98.23-.46.05.097-.07.57-.23.46zm-.3-3.026c-.527-1.14-.49-3.257.376-3.92-.364 1.248.632 3.3-.376 3.92zm1.883-3.868c.087-.354.22.363 0 0zm-.28-.306c-.85-.563.317-2.133.587-.675-.172.118-.306.806-.587.675zm-1.302-.383c.46-1.874.555 1 0 0zm70.386 9.104c.208-.542-.49.236 0 0zm22.956-.69c.4-.657 1.062-1.942.19-.628-.066.135-.725.732-.19.628zm-21.144-1.33c.45-.583-.51.485 0 0zm-4.264-.332c.697-.616-.746.15 0 0zm26.402 0c.553-.542 1.55-2.38.497-.907-.022.155-.944 1.17-.497.907zm1.226-1.787c2.812-3.787 5.444-7.927 8.705-11.172-3.45 3.264-6.38 7.128-8.795 11.184l.1-.012zm-92.754-.218c.37-.498-.643-.342 0 0zm62.752-.266c.828-.844-.378-.268 0 0zm.905-.398c-.092-.676.57-1.63-.255-.7-.244.253-.077 1.143.255.7zm4.176-.292c.295-.39-.267-.023 0 0zm3.306-.142c.666-.315 1.806-.56.485-.522.07.222-1.11.527-.485.522zm-26.362-.394c-.08-.482-.313.198 0 0zm-.832-.5c.585-.7-2.435-1.307-.28-1.302-.72-.66-2.5-.455-2.9-1.418 1 .083.7-.738 1.246-.962-.732.394-2.48.38-2.432-.556 1.718-.51 3.557-1.32 4.82-2.68 1.422-.965-1.417.525-1.935.893-1.203.45-2.77 2.093-3.754 1.026.515-.546 2.453-1.058.613-.77-1.364.28-1.388-.096-.536-.69.958-.246 2.678-.65 3.8-1.327-.34.488-1.284.95.02.434 1.1-.747 2.704-1.86 3.166-2.656-.808.28-2.162 2.158-2.656 1.4 1.303-1.287 2.652-2.418 3.473-4.13.953-1.01 2.66-2.604.766-1.52-1.352.857-1.716 4.207-3.78 4.352 1.033-.956.41-1.58 1.2-2.437.63-1.58-1.29.863-1.762 1.276-.717 1.15-2.584 1.71-3.166 2.452.79.033 2.177-1.467 2.247-.766-1.386 1.18-3.775 2.173-5.22 2.042.156-1.87 3.004-1.373 4.116-2.706 2.275-1.39 3.55-3.904 5.496-5.5.794-.407 1.27-.563.332.434-.507 1.317 1.8-1.037 1.455-1.762.267-.697 1.366-3.14.306-1.686-.352 1.133-.933 2.7-2.043 2.707.692-1.8-1.712 1.175-2.17 1.71-.254.478-1.4 2.53-1.15 1.288.676-1.276 1.752-2.698 2.042-3.995-1.69 3.065-3.34 6.68-6.97 7.788-1.02-.07-2.353 1.4-3.064.215.45-.663 3.054-.256 1.532-.905-1.62.286-1.73-.357-.434-.92-.59-.067-3.253 1.096-1.558-.383 1.352-1.102 3.98-.866 4.24-2.93.02-.78-.95.71-1.317.2-1.26 1.094-3.393 2.856-5.016 1.786.994-.84 3.28-.74 3.882-1.76-.73.183-2.166 1.215-2.446.638 1.075-.566.385-.523-.17-.664.787-.154 1.734-1.347.444-.715-1.19.527-2.22-.27-3.524.408-.796-.172 1.2-1.096 1.864-1.098 1.21-.417 3.282-.757 3.55-1.863-2.18.968-4.62 1.542-6.792 2.348-.702.774-1.804.025-.496-.357 1.654-.682 3.61-.76 5.047-2.042 1.49-.192-.073-1.387-.746-.383-.848.3-1.6.643-.41-.23 1.13-1.005 2.263-2.14 2.923-3.473-1.42 1.064-2.967 3.99-4.558 3.907.638-1.247 2.258-1.593 2.81-3.013.455-.667 2.32-2.846.573-1.864-1.39 1.327-3.057 2.308-4.76 3.14 1.237-.385 1.42-.11.2.537-1.326.654.44.753.772.907-1.16 1.026-3.32 1.323-4.673.93.21-1.298 2.907-.867 2.834-1.966-1.38.41-3.32 1.313-4.45.79 3.586-.187 6.482-2.723 8.892-5.08 1.3-.468.13-.874-.5.025-1.05 1.13-1.64 1.293-.83-.193 1.136-.764.613-.36.46-1.043-.452-.72-.978 1.604-1.506 2.41-1.546 2.406-4.6 3.452-7.29 3.588-.02-1.182 2.095-.905 3-1.494.667-.01 2.76-1.118 1.966-1.2-1.935.682-3.955 1.88-6.052 1.2 1.302-.416 3.13-.923 4.332-1.85-1.656.806-3.86 1.496-5.38 1.043 1.77-.863 4.03-.955 5.555-2.46 1.318-1.318 3.22-2.752 2.744-4.75.536-1.858-.963.3-1.15 1.124-.905 2.142-2.457 4.186-4.85 4.596-1.107.443-2.857.807-3.575.613.817-1.547 2.807-1.216 3.994-2.112-1.53.168-3.606 1.427-4.723.34.845-.75 1.094.403 2.21-.22.66-.073 3.083-1.265 1.328-.79-.706.123-3.115 1.243-1.927.14.083-1.822 2.76-1.83 3.306-3.594 1.03-.94.813-1.874.05-.46-1.483 1.992-3.968 3.795-6.46 3.834-.85-.433-2.02-.525-.102-.562.924-.054 2.28-.93.638-.536-1.126.127-3.303.768-3.683-.363 1.517.346 3.046-.642 4.296-.888-1.905.43-1-.485.102-.69 1.203-.457-1.43-.052-1.992.076-.51.284-3.734-.05-1.89-.28 1.295-.137 2.794-.486 3.983-.995-1.5.486-.9-.647-2.247-.077-1.18.234-3.98.892-3.998-.347 1.342-.11 1.193-.794 2.67-.75.682-.198 2.993-.26 2.247-.755-.087-.62-2.014.937-2.63-.062-.693.645-3.54.015-2.094-.766.914-.422 2.318-.968.434-.74-1.203.332-4.03-.032-1.353-.332 1.8.34.855-.954.23-.715-.553.317-3.45.718-1.992.025 1.348-.452 2.877-.836 4.086-1.66-1.71.07-3.728 1.606-5.465.843.498-.965 2.7-.53 3.115-1.404-.98.538-1.605-.133-1.302-.153-.782.177-2.607 1.475-2.63.255.976-.374 1.395-1.344 2.618-1.263-.536-.676 1.604-1.795.19-1.495-.946.514-1.9-.083-.676-.715.32-.676-2.446-.016-.73-1.124 1.584-.365.656-1.16-.485-.434-.58.285-3.242.764-1.787-.05.66-.275 2.907-1.043 1.277-.97-.953-.1-1.493.01-2.35-.204.75-.683 2.087-.9 3.04-1.506 2.074-1.154 4.486-2.118 5.72-4.187 1.477-.534 2.604-2.283 4.264-1.124.35-.783-1.878-1.425-1.634-1.175-.917-.257-1.743 1.73-2.962 2.043-.93.33-2.2 2.916-2.707 1.773.912-1.092.52-2.927 2.186-3.177 1.197-.638 3.353-.42 3.42-2.184-.846.754-.357-.67-.755-1.135.928-.748-.443-1.97 1.163-2.054-.666-.097-.965-1.223-1.73-.295-.716.77-1.972 1.86-2.2 2.732 1.3.664-2.285 1.214-.255.97 1.665.217-.646 2.877-1.838 2.298-.56.318-2.157 1.456-1.072.076-1.7-.138 1.89-1.818.454-1.532-.38-.084-.754-.107-1.27-.383-.687-1.44-2.535.6-3.513.995-1.53 1.484-3.872 2.186-5.884 1.84 2.252-.333 4.255-1.523 6.296-2.538-.398-2.152-2.193.334-3.283.674-.674.346-3.258.598-1.685-.332 1.09-1.083 3.455-.735 3.87-2.337-1.6.405-1.212-1.39 0-1.556-.003-.71-2.182-1.09-2.388-.473-1.455-.024-.417-.2-.102-.46.45-.62.686-1.658.05-.498-.88.9.203-1.32-1.48-.498-1.174-.43.956-1.404 1.622-1.583.326-.67-1.47-.084-2.122-.236-.784.307-3.097.873-2.794-.07 1.128-.177 2.52-.114 3.515-.625-.86.008-3.79.448-1.574-.192.652-.196 3.648-.742 1.66-.868-1.57.597-1.74-.332-.868-1.22 1.3-.78.346-.892-.68-.553-.37-1.13 2.682-1.454 1.726-1.75-2.035.07-4.285 1.087-6.154.69.25-.984 2.824-.1 3.294-1.353-.193-.885 2.17-1.425.255-1.277-1.054.028.46-.505-.587-.958 1.034-.417 1.583-1.555 0-1.263-1.33.7-3.254-.096-.97-.562.7-.005 3.098-1.006 1.277-.817-2.692-.015.602-1.292.23-2.273-.537.675-1.72 1.92-2.478 1.592.806-.915 1.184-2.254 2.375-3.124.62-.745.43-1.6.025-.26-1.064 1.3-.333.052-.964-.097-.01 1.344-1.872 1.616-1.36.204.203-.7.667-1.922-.153-.715-.53.483-1.24-.333-2.12.23-1.464.16.156.414-.41.69-.95.846-3.23-.905-1.38-.855-.83 1.17 1.244-.556 1.915-.27 1.582-.315 1.822-2.23 2.604-3.268-.206-1.548 1.384-1.098.613.204-.445 1.213 1.217 1.146.675 2.4.763-1.66 1.394-.832 1.087.42 1.414-1.8.67 1.595.792 1.572 1.028-1.163 1.504 2.428 1.762.42.412.322 1.3 2.372 2.247.896-.63.103-1.405.425-.51-.544-.074.015-1.35-.743-.5-1.436.99.31 3.032-.268 3.053-1.226-2.23.473-.43-.844.102-1.38-.53-.03-1.872.597-.868-.42-.914-.332.085-1.25-.638-1.722.146-1.296-.09-2.577-.945-3.55.482-.892-2.052-.7-.665-1.915.228-.75 2.263-1.84.727-1.072-.873 1.197-1.626-.108-.343-.613.753-.253 1.446-.52 2.145-.153.65.834-.645 3.277.026 2.885.593-1.52 1.044.057.332.792-.573 1.736.385-.647 1.098-.817 2.435.82 2.496 3.522 4.085 5.164.03 1.2-2.71-.798-1.824 1.118.983-1.524.306.64.803 1.15.824.895-.08 2.035-.894 2.22-.32.724-1.4 2.226-.496 2.695.212-1.14 1.22-1.183.522-.044-.58.81.46 2.15.536.617.024-1.59 2.853-1.024 2.987-2.528-1.035-.592.07-1.165.766-1.38.36-2.506-1.677-4.342-3.166-6.103-.73-1.014.003-.88.383-.204.896.442 2.102 1.648 1.43 0-1.835-2.1-4.067-3.996-5.08-6.716-1.792-3.84-4.4-7.242-5.718-11.286-1.12-1.847-1.453-4.327-3.727-5.21-1.97-1.874-4.354-3.257-6.026-5.547-3.013-3.23-7-5.758-8.91-9.864-1.604-1.685-1.453-4.254-3.242-5.884-.79-.964-.906-2.76-1.66-3.37.48 1.49 1.184 3.255-.256 4.443.236.69-1.312 1.69 0 1.098.69-.608 1.642-.3.664.58-2.068 1.147-.14 1.207.005 1.18-1.124.59 1.866.33.286 1.02-1.26.65.007 1.06.32 1.266-1.036.732-.193.968.18 1.186-.194.91.858 2.093 1.456.766.528-.87 2.187-.84 1.123.204-1.168.042-.82 1.895.5 1.57-1.404 1.367 1.093-.092 1.748.73 2.003 1.06-1.915.82-2.273 1.506.536.008 3.033-.168 1.1.715-.155.484.202 1.584 1.173.74.572-.622-.7-1.643 1.035-1.25 1.44.502.098 1.23 1.288 1.43 1.645-.092 1.368 1.322-.118 1.02-1.468.034.337-1.313-1.72-.792-1.004.127-2.088 2.068-.536.894 1.436-.644-.905 1.777.623.715 1.213-.507 3.663-.715 4.177.255-.587.895-1.388.678-2.135 1.48-.877.252-1.216 1.44-.495 1.47-1.68 1.994 2.257-1.172 1.25.47-1.508.807-.272 1.2.485.383.848-.2 1.434-.612.497-1.01 1.62-1.006-.957-.5-.97-1.175 1.207-.927 2.125.026 3.27-.14.875 1.146-1.85-.004-1.014.766-.764 1.015 2.478-.17 2.967.894 1.357 1.143-1.1.38-1.093 1.353-1.27.815-2.96.22-3.657 1.94-1.262 1.754 1.02-.596 1.583-.842 1.555-.5 3.924-1.16 4.8.28-.758.5-2.353.87-2.707.792.583.3-1.897 1.223-.153.843.738-.928 3.94-1.116 2.094.153-.945.71-2.414-.416-3.115 1.074-.885.956-.067 1.363.51.177.577-.493 2.228-.932.894.026-.772.38-1.763 2.275-.332 1.098.63-.004-.42 1.96.51.74.973-1.17-.29 1.888.51 2.488.098 1.935 1.166 4.367 3.4 4.315-.1.835 1.492.712 1.237 1.852.96.287 2.56-.1.97.613-1.404.4.553 1.157 1.226.434.88.23-2.332 1.014-.51 1.047.946-.23 2.776-1.19 2.962-.842-1.022.778-1.987 1.45-3.115 2.18.64.285 1.823-.382.817.602.272 1.05 2.827.823 1.112 1.903-1.324.38-.713.533.304.83 1.6-.238-.473 1.46.627 2.22-.001 1.188.78 1.875.997 2.58.937-.93 1.612.817.29.357-1.546.892.774 1.025-.663 1.48-1.175-1.155-2.31-3.393-2.97-4.24-1.102-1.036-1.796-2.352-2.634-3.115-.656-2.198-.877-4.876-2.578-6.51-1.4-.705-2.136-2.01-2.808-3.39-2.39-2.356-5.188-4.35-6.383-7.6-1.12-1.66-.874-3.936-2.706-5.183-.14-1.686-1.68-2.815-1.7-4.596-.777-1.6-1.106-3.563-2.482-4.8-.634.9-1.75.824-2.522 1.762-1.976 1.24.515 5.52 2.65 3.498 1.742-.824-.032-3.016.606-3.983 1.33 1.277-.07 4.178.522 4.954 1.282-.15-.603 1.103.41 1.807.38 1.365 2.045 3.144-.05 3.912-1.777.314.674.585 1.047-.306 1.127.457 2.183 2.27.797 2.996 2.196-.455.698 1.633-.414 1.498.433-1.397-1.085-1.245-2.235-.92-.72-.51-1.947-1.3-.205-2.043-.08-.223-2.657.035-1.237-.945 1.194-.26 1.34-.705-.102-.357-.942.22 2.057-1.767.153-1.328-2.733.158.677-.884-1.66-.74-1.077-1.08 2.642-.715 1.992-1.48-1.79.41 1.075-1.397-.76-1.532-2.127.814-2.914-2.245-3.17-3.83-.226-1.727 1.705-2.418 2.885-3.053-1.71-.836-4.257.872-4.647 2.548-1.322 2.88.805 5.673 1.506 8.42.863 2.988 2.075 5.997 4.238 8.324 1.99 3.715 3.363 7.727 5.36 11.44 1.628 2.347 3.454 4.694 4.468 7.405.77 3.6 2.28 7.027 3.113 10.622.77 2.234 1.53 4.5 2.96 6.435 1.027 2.444-.022 5.14.868 7.66.595 3.162 1.58 6.232 3.23 9.014l5.068 7.482c3.98 3.526 6.282 8.53 10.06 12.28 3.135 3.124 6.782 5.722 10.06 8.657 2.072 2.195 5.362 2.146 7.712 3.805 1.626 2.367 3.77 4.668 6.256 5.922 1.25 2.026 3.8 2.976 5.925 3.906zm-6.052-6.588c-.542-.598 1.617-.587 2.145-1.02 1.02-.404 2.01-1.428 2.937-1.62-1.16 1.743-3.322 2.066-5.082 2.64zm5.388-3.002c.242-.442.257.28 0 0zm-.938-.075c.07-1.005 1.843-.61 0 0zm.836-.748c.29-.597.836-.344 0 0zm.868-.9c.048-.18.125.12 0 0zm-12.333-2.12c-.21-.856 1.97-.37.408-.05-.13.038-.27.118-.408.05zm-4.3-1.328c-.77-1.057 2.7-.536.792-.18-.267.006-.55.18-.792.18zm-1.38-1.072c-1-.352.612-.33 0 0zm-.562-.306c-.392-.252.497-.295 0 0zm-.225-.984c-.002-.288.344.1 0 0zm4.412-.766c.78-.476 1.623-1.058 2.466-1.354-.347.984-1.597 1.192-2.466 1.354zm-6.403-1.02c-.073-.373.365.18 0 0zm-1.002-.038c-1.834-.85 1.635.004 0 0zm-1.328-2.083c.12-.207.19.084 0 0zm-2.247-1.288c-1.68-.203.022-.475.562-.136-.154.094-.378.195-.562.136zm-2.292-1.418c.545-.83 1.678.296 0 0zm-3.377-4.955c.152-.24.096.04 0 0zm-.868-2.105c-2.123-.315 1.25-1.08 1.123-.383-.37.11-.76.343-1.123.383zm-5.107-6.64c-.013-.235.278.202 0 0zm0-.715c-.166-.66 2.568-.657.92-.076-.3.073-.61.14-.92.076zm-1.838-.434c.285-.44.64.196 0 0zm.05-1.915c-.98.09-2.844-.635-.766-.69.91-.187 2.697.36.766.69zm-2.043-.97c-.59-.56.837-.2 0 0zm1.814-1.04c.603-.747 2.935-.76 2.73-1.82-1.84-.144-3.8 1.702-5.532.523 2.27-.1 4.5-1.127 6.502-2.157-1.108-1.19-2.986.44-4.494.46-.722.37-3.85.456-2.094-.485 1.5-.287 3.186.025 4.01-1.506 1.264-.557 2.427-1.388 3.717-1.75-.1.666-2.794 2.258-1.06 1.598 1.035-.376-.18 1.293 1.25.357.655.32-1.74.726-.204 1.2.45 1.428 1.604.04 2.196.243-.82 1.93-2.728 3.33-5.056 3.102-.645.108-1.313.258-1.966.236zm-2.63-2.178c-1.14-.633 1.87-.088 0 0zm-1.072-.306c.134-.094.134.094 0 0zm-.255-.832c.116-.373.146.188 0 0zm11.216-.253c-.14-.46.494.124 0 0zm-11.83-1.11c.062-.178.062.178 0 0zm10.04-.19c.01-.198.185.112 0 0zm-.766-.562c.146-.755.665.233 0 0zm.58-1.468c.196-.275.196.275 0 0zm-9.192-.204c-.518-.4.61-.33 0 0zm.05-.92c-1.524-.746 2.248-.082 0 0zm.868-.715c-1.897.09-1.514-.943.168-.74.866-.263.3.965-.168.74zm1.053-.013c-.457-1.415 2.27-.984.632-.268-.22.082-.357.4-.632.268zm-3.3-.09c-1.16-1.025 1.328-.27 0 0zm15.014-.102c-.2-.688 2.205-1.806.95-.638-.43.095-.328.93-.95.638zM35.62 89.158c-.495-.858.72-.006 0 0zm.938-.038c-1.552-.97 2.055-.4 0 0zm.85-.115c.052-.504 1.35-1.886 1.5-.714-.4.702-.81.718-1.5.714zm-.287-.69c.242-.442.257.28 0 0zm-.715-.828c-2.467-.027 1.458-1.446.857-.14-.24.203-.564.182-.857.14zm-1.43-.168c.215-.332.29.185 0 0zm-.836-3.268c-.016-.972 3.04-.7 1.194-.114-.397.05-.803.325-1.194.114zm2.043-.766c-.023-.848 1.664-.57.35.04l-.152.05-.2-.09zm-3.71-3.663c-1.687-.992 3.076-.718 1.226-.102-.408.003-.822.15-1.226.102zm-.734-.064c-.18-.567.61.05 0 0zm3.728 0c-.04-.172.178.06 0 0zm-4.168-1.11c-1.13.058-1.853-2.472-.46-1.364.425.597 2.777 1.13.868 1.364l-.204.026-.204-.026zm2.502-.255c.065-.092.065.092 0 0zm-1.194-1.698c-.06-.3.307.078 0 0zm-2.126-.14c-.128-1.348 1.838.508 0 0zm1.104-.115c-1.046-1.355 2.573-.338 0 0zm-1.303-.436c-.368-.22.718-.177 0 0zm1.17-.42c-.384-.65 1.022-.084 0 0zm-.357-.613c-1.423.122-.823-1.125.244-.74.19.4.534.924-.244.74zm-1.226-1.02c.076-.278.223.238 0 0zm.715-.102c-.69-.41-1.31-1.9-.077-2.12.878-.8 1.6.2.2.204.55.205.3.694.45 1.685-.166.085-.403.24-.562.23zm-1.328-.434c.125-.12.048.18 0 0zm16.7-.306c.062-.177.062.177 0 0zm1.92-.294c-.133-.705.667.175 0 0zm1.226-.153c-.077-.555.936-.08 0 0zm-14.606-.306c-.05-.462.59-.035 0 0zm14.012-.14c-.45-.377.583-.155 0 0zm-1.532-.357c-.646-.867 1.148-.6 0 0zm-17.97-.142c-.02-.404.392.152 0 0zm19.937-.292c-.685-1.505 1.618-.653.185.05l-.184-.05zm-13.712-.347c.097-.347.146.097 0 0zm2.61-.433c-.15-.467.378.25 0 0zm3.466-.063c-1.348-.818 1.385-1.824.5-.46.277.224-.324.507-.5.46zm8.152-.42c-.58-1.17.967-.013 0 0zm-21.174-.038c-1.187-1.352 2.12-.722.613-.026a1.28 1.28 0 0 1-.613.026zm13.942 0c.134-.094.134.094 0 0zm-12.154-.065c.52-.47.266.165 0 0zm9.907-.103c-1.716-1.397.837-2.007 1.717-1.43-.497.43-1.102 1.264-1.717 1.43zm-10.367-.254c-1.59-1.048 1.563-1.762.575-.203-.127.166-.364.318-.575.203zm-1.883-.69c-.195-.517.646-.002 0 0zm4.64-.574c-.777-.602 1.39-1.24.843-2.22.278-.954.676-1.36.587-.077.784.868-.633 2.157-1.43 2.298zm-3.492-.064c-.292-1.034 2.183-2.014 1.858-1.136-.44.358-.5 1.256-1.858 1.136zm20.02-.05c.09-.477.316.2 0 0zm-.92-.103c-.093-1.303.908.312 0 0zM28.897 66.7c-1.635-1.083 1.05-2.1 2.043-2.466-1.42-1.704-2.284 2.36-3.626 1.215.302-.6 2.615-1.868 1.277-2.017-.066.64-1.666 1.75-1.495.625 1.29-.853 2.052-2.336 3.027-3.306-.434.99 1.64-.843 1.098 1.175 1.202.616 1 1.824 1.838 2.758.797 1.214-1.346 2.573-1.15.868.71-1.923-.88.615-1.124-.077.914-.347.956-2.093.255-1.06-.62.748-1.346.885-1.33 1.75-.213.244-.505.54-.815.536zm-1.092-.268c.08-.6.67.057 0 0zm.02-.564c.154-.35.224.187 0 0zm2.12-1.69c.018-.618.55.168 0 0zm-3.755-.237c-.572-1.09 1.622-.366 0 0zm6.7-.102c-.583-.638.82-.793 0 0zm-7.61-2.874c.416-.344.242.168 0 0zm-2.247-.14c-.63-.796.798-2.298.46-.536-.004.203-.218.685-.46.536zm7.054-.345c-.117-.906.915-1.546.453-.197-.098.075-.278.344-.453.197zm-5.828-.64c1-1.1 2.346-1.873 3.473-2.795 1.98.053.82-.785-.562-.792-1.736.376-3.467 1.805-4.66 3.307-1.3.064.265-2.053.982-1.648.658-.7.674-1.43.767-2.22.446-.47 1.69-.753 1.07.05 1.262-.798 2.832-1.226 4.035-.077 1.133.466 1.1 2.313-.3 2.375-.773.62-1.8.07-2.763.6-.554.59-1.188 1.36-2.043 1.2zm15.352-.97c-.148-.975 1.744-1.544.48-.315-.115.15-.246.414-.48.315zm1.194-.804c-.508-1.084 1.59-2.152.945-.485-.132.136-.79.797-.945.485zm-2.52.038c-.006-.516.636-.01 0 0zm1.226-.562c.14-.974.546-2.58 1.233-2.975.43.922-.16 2.634-1.233 2.975zm-17.957-.804c.273-1.31 2.006-1.567 2.39-2.465-.57-.335 1.17-1.248-.295-.752-.332 1.233-1.948.224-2.12 1.25 1.458.397-1.948 2.002-.587.41-.496-.317-.87-.646.562-1.558 1.67-.804-2.104-.047-.18-1.02 1.324-.814-.65-.58-1.175-.5.704-.298 1.332-1.23.076-.803-1.85.004.6-1.06.292-1.513-.675-.25-2.412 1.672-1.793.11-1.244-1.007 2.035-1.742-.082-1.968-.002-.896-2.244-1.157-.74-1.966.926-.735 3.09-2.512 2.732-.026-.45.902 1.87.08.74 1.277.836.162 1.34.572 1.098 1.25 1.66-.1-.102 1.365 1.2 1.61-1.102.982 1.25.824 1.605 1.48 1.172-.56.684 1.967 1.32.715.365.843.673 1.65-.576 1.9-1.564.72-2.942 1.724-4.392 2.656l-.077-.077zm-2.22-7.252c1.223-.736-.634.001 0 0zm18.187 6.32c-.027-1.34 1.262-.942 0 0zm.608-.414c-.396-.81 1.617-2.65 1.097-.632-.278.265-.66.715-1.097.632zm-17.894-1.17c-.053-.917 1.01.1 0 0zm14.037-.677c.49-.58 2.077-.853.96-.267-.325.015-.627.424-.96.267zm3.422-.204c.15-.69-.91.088-.28-1.02.39-1.455 1.74.133.74.908-.08.067-.513.578-.46.114zm-4.24-.128c-.5-.533 1.04-.118 0 0zm2.432-.37c.347-.62 1.15-2.168-.073-1.034-.697.405-2.954 1.18-2.666.28 1.185-.27 1.628-1.775.245-.587-.975.697-1.836.185-.705-.76.635-.848 2.384-.862 2.043-2.24 1.316-1.722 1.07.622.153 1 1.018.186 1.825-2.523 1.66-.51-1.212 1.38 1.245-.308 1.124 1.226.597 1.122-.845 2.375-1.78 2.617zm-4.117-.702c-.337-.566.74.012 0 0zm.05-1.098c-.205-.242.284.018 0 0zm0-.332c-1.592-.792 1.47-2.3.434-.383-.007.197-.286.386-.434.383zm-7.865-.602c.237-.457.432.317 0 0zm6.747-.254c-.654-.982-.164-2.35.606-3.178 1.04-1.16 1.61.387.536.996-.957.633-1.043 1.1-.956 2.184l-.186-.002zm2.65-.472c-.723-.606.343-1.446-.077-2.273.595-1.612 1.674.295.817 1.072.205.507-.06 1.345-.74 1.2zm1.9-3.626c-1.804-1.026 1.155-.724 0 0zm-3.267-.147c.415-.608 2.12-1.664 2.45-.426-.64.267-1.7.195-2.45.426zm-2.267-1.858c.085-.3.434.085 0 0zm-6.11-5.707c-.398-.542.998-.544 0 0zm1.436-.192c.623-.738 1 .21 0 0zm-10.188-4.085c-.17-1.128-.864-2.356-.772-3.402 1.037-1.758 2.2 3.795.772 3.402zm3.773-4.572c.32-.518 2.1-1.128 1.38-.14-.42-.097-1.122.346-1.38.14zm-1.583-4.32c.636-1.228.815.22 0 0zm-.734-1.27c-.01-.714.918.07 0 0zm-.39-.55c-.666-.796 1.397-.41 0 0zm-.428-2.106c.06-.696 1.07-2.33.938-.804-.26.304-.44.924-.938.804zM68.27 141.118c.388-.67 1.857-1.91 1.532-2.26-.357.617-2 1.708-1.532 2.26zm-.204-1.287c.218-.565 1.73-2.108.996-2.043-.138.618-1.322 1.8-.996 2.043zm14.274-.026c.65-.38 1.35-.782.2-.332-.448-.274-.325.344-.2.332zm-15.127-.726c.69-.93.26-1.828-.066-.347-.02.108-.238.49.066.347zm13.595-.244c1.165-.453 1.09-.542-.076-.18-.19-.02-.236.357.076.18zm-43.52-.164c-.725-1.408-1.5-2.976-2.312-4.356-.598-1.034-2.354-2.262-1.328-3.294-.312-.813.868-.488 1.405-.792 1.772-.255 4.662-.33 5.35-2.1-.77.718-1.453.75-1.738.578-.4 1.07-3.133 1.057-1.415-.102.748.02 2.666-1.323 1.874-1.48-.958 1.102-.906-1.06-2.002.025-1.726.756.604-1.946-1.124-1.175-.385-.968 1.07-1.662-.817-.51-2.313.428 2.86-3.004.23-2.17-1.254.37-1.543.1-.485-.868.34-.68 1.027-1.9-.23-.817-.758.5-2.827.432-1.277-.41.496-.546 2.286-1.874 1.518-2.45-.448.024-.72-.523-1.262.664-.395.922-2.07 1.93-2.835 1.643.996-1.003-1.02.42-1.532-.34-.948.005-2.423-.888-.358-.587 1.836.302 4.232-.463 4.648-2.247-1.77 1.53-4.71 2.33-6.844 1.418.37-1.1 2.426.386 3.422-.194 1.388-.106-.308-1.02 1.27-1.43.7-.394 1.726-1.512.414-.562-.92.488-1.9 1.277-2.977 1.087.527-.874 3.043-1.185 2.5-2.16-.686 1.068-2.45 1.273-1.395-.092.657-.96 1.96-2.504.134-1.492-1.005-.744-1.736 1.102-2.758.548.636-.43 2.117-1.606.41-1.237-.595.203-2.998.8-1.9-.205 1.17-.086 2.617-.58 3.27-1.443-1-.337-2.826 1.35-3.524.408.497-.063 3.332-.736 1.634-.956-2.205.422-.732-.71.383-.74 1.493-.633.87-1.093-.332-1.036 1.343-1.612-2.694.6-1.788-.766-.98.058-2.306-.472-.613-.75.87-.012 1.967-1.233.358-1.047-2.467.22-2.468-.513-.368-.434-.02-.692-3.09-.01-3.41-1.016 1.035-1.02 2.86.233 4.213-.67-.543-.186-.94-.7.153-1.072 1.02-.374 2.63-1.24 1.915-2.22-1.172.03 2.034-2.812-.05-1.302-.977.865-1.964 1.584-2.757 2.477-.757.385-2.223.237-.817-.613.97-.306 2.724-1.85 1.15-1.507-1.053-1.3.076-2.8.67-4.194-.865-.038-1.078 1.938-2.407 1.59-1.528.474 2.472-2.733.434-1.532-.537.6-2.22 2.413-1.66.562 1.046-.794.075-1.417.638-2.298-.73-.463-2.494 1.308-2.783.332 1.12-1.094.36-1.147-.638-1.227.49-.596.783-1.87-.383-.92-1.184.07 1.196-1.437 1.353-2.043.344-1.48-3.547 1.225-2.426-.74 3.105-.69 5.124-3.983 5.17-6.984.288-.303 2.64-2.67 1.3-2.13-2.08.132-2.9 2.964-3.42 4.8.156.942-1.62 3.173-1.2 1.328.253-.718 1.447-2.507.65-2.823-.272 1.142-1.343 2.17-1.518 3.154 1.364-.946.31 1.525-.69 1.61-1.994.462.66-1.73-.792-1.047-1.034.364-1.426.25-.664-.64-.002-1.012-.716-2.082.065-2.976-.74.298-3.134.586-1.443-.42-.1-.85-3.803.612-2.156-.74.505-.396 2.675-1.777 1.084-1.456-1.2.001-2.253-.034-.945-.996.114-.745-2.558.107-1.89-.97 1.096-.305.947-1.73-.2-1.424.373-1.062.076-1.678-.978-1.448.054-.965-1.16-1.458-1.034-2.03.335-.65-1.082.115-.908-.817-1.24-.08-1.43-1.464-2.595-1.526-.626-.973-.253-1.857.9-2.15 1.392-.41-1.357 1.345.715.766 1.523.103 1.524-2.3 3.1-2.094 1.71-1.44-1.515-.694-1.71.358-1.02 1.3-2.094-.09-3.41.255-.997-1.192.874-1.714-.668-2.145-.777-1.1 2.05.172.862-1.175-1.06-.2-1.55-1.27-.05-.92 1.108-.59-2.126-1.405-.434-1.43 1.446.342.057-.577-.677-.664-.75-.93 2.268.216.638-.7.682-.305 1.004-1.214.422-2.152-.546-.403-2.365-1.626-.715-1.206 1.975.234.99-.704-.204-.51-.84-.01-.98-.88-.153-.83-.897-.507-.278-1.224-.715-1.992 1.552-.24 3.765 1.114 5.286-.216-.618-1.588-3.113-.108-4.3-1.328-.12-.967 2.59.154 2.624-1.43.218-1.062-2.675-.33-1.993-1.634.894-.114 2.783 1.31 2.836-.25-1.537.292-1.826-1.38-2.554-1.895-.952-1.667.572-.92 1.328-.28 1.303-.67-.696-2.068-.843-2.273 1.14.814 2.228-.572.946-1.328-1.604-1.404 1.538.238.102-1.22-1.228-1.158 2.008.556.564-.72-2.358-2.06 1.448.214 1.428-1.367-1.01-.4-2.318-1.58-.357-1.62-.197-.782.616-2-.45-2.324-.608-2.036-3.074-.644-2.973 1.072-.33 2.08-.185 4.334-.995 6.332-.15 2.205-.226 4.435-1.404 6.333-.6 2.443-.124 5.085-.868 7.533-.485 3.102-.012 6.266.408 9.243-1.54 2.526.6 5.14 1.89 7.2.448.615.823 1.707 1.66 2.63 1.775 2.955 2.91 6.16 3.982 9.397 1.246 1.953 1.634 4.432 3.446 6.078-.396 2.91 1.022 5.717 2.246 8.294 1.178 2.324 3.91 3.705 4.06 6.39 2.203 4.385 2.382 9.618 5.615 13.503 2.14 3.282 4.75 6.194 7.38 9.07.46 1.93 2.154 3.29 2.706 5.21.454.747.975 1.6 1.732 2.006zM33.034 130c-1.484-.494-1.003-1.7.434-.74.884.103 4.104-.915 2.22.485-.902.055-1.75.33-2.655.255zm.153-1.072c-1.32-.393-2.688-1.42-.638-.638.44.18 2.66.354.638.638zm2.656-.46c-.9-1.13 2.844-.763.69-.077-.22.067-.458.142-.69.077zm-1.175-.255c-1.827-.485 2.005-.153 0 0zm-.153-.715c-.46-.945 2.83-1.567 1.43-.395-.267.54-.957.383-1.43.395zm-1.226-.05c-.612-.16-2.91-.03-2.247-.97.36.058 4.962.25 2.247.97zm-2.553-1.072c-.717-.488.62-.05 0 0zm1.736-.204c-1.84-.48 1.93-.99 1.506-.332-.49.123-1 .4-1.506.332zm2.604-.204c.134-.094.134.094 0 0zm-3.696-.217c-.25-.524.725.084 0 0zm1.398-.447c.457-.532 1.742-1.145 2.562-1.63-.175 1.002-1.693 1.382-2.562 1.63zm-2.196-.153c-.89.222-2.566-1.528-1.762-1.762.545.778 2.274.648 3.32.97 1.438-.408 1.434.392.18.536-.56.153-1.152.32-1.736.256zm1.02-1.583c-.32-.755 2.257-.32 2.513-1.557 1.103.064-.996 1.513-1.747 1.557l-.383.025-.383-.025zm-2.145-.51c-.816.14-3.24-.58-1.726-1.283 1.283.545 2.5.79 3.845.338 1.763-.078.148.7-.485.817-.533.048-1.093.195-1.634.128zm-1.685-1.736c-.93-1.04 2.5-.164.51-.026-.172-.01-.34.1-.51.026zm-1.02-3.37c-1.38-.78 1.67-.742 2.262-.74.13.6-1.744.74-2.262.74zm-.46-.664c-1.95-.94 1.998-.513.026.025l-.026-.025zm2.4-.766c-.43-.62 1.934-.7.358-.102-.114.034-.234.176-.358.102zm-2.4-.638c.048-.18.125.12 0 0zm-.41-.25c-.122-.575.473.12 0 0zm1.36.007c-.092-.32.48.18 0 0zm-.715-.05c.075-.284.47.2 0 0zm.428-.038c.134-.094.134.094 0 0zm0-.485c.125-.12.048.18 0 0zm-2.317-3.715c-.397-.7.75.02 0 0zm.715-.103c-.42-.68 1 .067 0 0zM23.944 108c-.834-.944 2.674-.1.46-.076-.148-.075-.33.145-.46.076zm1.532-.357c.065-.09.065.09 0 0zm-5.03-3.268c-.808-.535.802-.207 0 0zm4.603-3.18c-.02-.33.207.118 0 0zm-7.105-6.1c-.474-.668 2.24-.994.51-.102-.16.04-.36.137-.51.102zm-.357-1.94c-.68-.673 1.34-.616 1.685-1.404.746.113-1.156 1.46-1.685 1.404zm-2.553-3.002c.174-.43.277.276 0 0zm-1.736-3.498c.125-.404.31.235 0 0zm-1.02-3.918c-.512-.5.877-.082 0 0zm11.26-.613c.48-.82.375.313 0 0zm-14.6-4.507c-.02-.33.207.118 0 0zM7.32 75.893c-2.008-1.057 1.576-2.54.715-.306-.142.23-.446.39-.715.306zM5.38 62.105c-.292-.2.535.08 0 0zm-.377-.472c-.128-.5.7.132 0 0zm-.85-.192c-2.3-1.804 2.035.17 0 0zm.817-5.566c-1.7-.697.627-.917.102.026l-.102-.026zm77.47 82.297c1.28-.93 3.056-2.045 3.524-3.408-.668 1.437-3.07 2.3-3.524 3.408zm-14.565-.777c.41-.9-.534.13 0 0zm12.574-.04c1.484-.647-.26-.655 0 0zm1.123-.766c.678-.605 2.62-2.657.97-1.206-.056.3-1.558 1.056-.97 1.206zm-41.314-1.404c.994.167 2.222-2.304.51-.613-.416.337-1.748.345-.51.613zm-.792-.275c-.513-.447 1.202-1.457-.05-.797-.437.162-.6.898.05.797zm42.707-.196c.194-.502-.56.2 0 0zm-6.767-.357c.008-.356-.356.008 0 0zm8.477-.128c1-1.28-.595.135 0 0zm-44.264-.805c1.147-.122 1.616-.722 1.71-1.455 1.36-1.663-.776.12-1.66.153-1.207.647-1.093-.807-1.69.153-1.428.506 1.54.23 2.09.134 1.092.19-1.442.735-.45 1.015zm44.827-.01c.477-.676 1.052-2.12.14-.68-.056.127-.49.66-.14.68zm-11.377-.755c1.7-.098.398-1.07-.204.026h.102l.102-.025zm12.435-.92c1.393-.895 3.278-1.97 3.626-3.294-.967.892-.457-1.452-.97.077-.108 1.613-2.352 2.048-2.655 3.217zm2.502-.05c.913-.133 2.325-2.385.83-.945-.25.25-.848.784-.83.945zm-49.92-.41c1.284-.642-.545-.473 0 0zm47.672-.536c-.14-.354-.156.35 0 0zm-1.175-.102c-.062-.178-.062.178 0 0zm1.445-.343c.524-.7.615-1.852-.015-.525-.097.132-.373.597.015.525zm-1.393-.413c.683-.654.826-2.467.153-.878-.116.24-.404.787-.153.878zm-11.516-.904c1.08-.567-1.007-.077 0 0zm8.875-.01c.618-.325.06-.396 0 0zm4.85-.4c.492-.726 1.03-2.993.344-1.137-.057.292-.703 1.14-.344 1.137zm4.634-1.47c.834-1.12 1.7-3.538.69-4.213-.377 1.383-.118 2.652-.868 3.88.012.087.046.4.18.332zm-15.025-.113c1.078-.923-.846-1.348-.576-.128.142.163.383.17.576.128zm-2.16-.09c1.227.034 1.382-2.19.114-1.15-.335.35-.993 1.068-.114 1.15zm5.337-.46c1.305-.22 1.16-2.83.332-1.2-.08.276-1.19 1.42-.332 1.2zm-6.358-.07c.682-1.775-1.164.126 0 0zm14.274-.542c.713-.57.864-2.348 1.43-2.452-.6 1.783.47 1.614.357-.18.122-1.476-1.006-.587-1.124.307-.046.695-1.05 1.997-.663 2.324zm-9.5-.357c1.68-1.675-1.52-.165 0 0zm4.264-.128c1.12-.88-.962-.004 0 0zm-5.527-.216c.6-1.233-.338-1.495-1.26-1.47-.8-.437-.334-1.483-1.385-1.506-1.04-.853-2.408 3.2-.05.536.314.57.415 1.865 1.445 1.11-.462 1.08.31 1.2 1.25 1.33zm17.4-.054c-.157-.452-.222.28 0 0zm-14.54-.534c.48-.885.26-2.03-.294-.626-.437.336-.36 1.11.294.626zm6.895-.203c.38-.637.874-2.893-.04-2.262-.107.438-.693 1.552.136.95.22.36-.712 1.237-.096 1.312zm4.888-.27c.83-1.536-.718-.43 0 0zm24.144-.216c.4-.947 1.75-2.09 1.952-2.414-.748.68-2.524 1.523-2.182 2.477l.23-.063zm4.863-.678c-.06-.266-.06.266 0 0zm-26.72-.037c.722-1.288-1.015-.26 0 0zm48.4-.627c.506-.938-2.115-2.605-.74-.945.32.212.45.83.74.945zm-69.363-.344c.943-1.24-.655-.185 0 0zm45.642-1.086c.886-.55.308-.66 0 0zm-2.324-.23c1.075-.998 3.094-1.907 3.768-2.195-1.105.02-2.454.798-3.078 1.24.087.096-1.264 1.203-.7.956zm-45.808-.383c1.308-.738-.707-.42 0 0zm26.57-.09c1.817-1.667-1.033-.405 0 0zm-65.01.027c.045-.35-.39.225 0 0zm87.44.01c1.62-.292.265-1.107-.05-.434.738.016-.477.556.05.434zm-25.126-.204c1.12-.488 1.337-.648.536-1.353.458-1.596-1.407 1.78-.536 1.353zm-21.372 0c.856-.692.728-2.005 2.043-2.018.7-.177 1.7-.542.638-1.327-.696 1.37-1.556-.98-.164-.817-.34.034-.927-1.653-1.65-.153-.788.98-.688 1.172.204 1.61-.113.894-1.69 2.003-1.073 2.706zm.562-3.32c.267-.48.37.147 0 0zm39.552 2.565c-.167-.84-2.087-2.35-.868-.855.203-.096.733 1.23.868.855zm1.61.065c1.427-.737-1.69-.338 0 0zm-21.614-.088c1.09-1.17-.62-2.653-.984-.785-.715 1.314 1.365-.627.726.76.088.012.165.194.257.025zm22.66-.243c-.065-.09-.065.092 0 0zm-24.295-.267c.552-.584.86-3.004.14-1.3-.15.25-.71 1.47-.14 1.3zm-4.303-.294c.295-.742 1.148-3.02.127-1.456-.324.488-.613 1.28-.127 1.456zm1.787-.23c.248-.963 1.34-2.217 1.046-2.86-.54.716-1.213 2.26-1.046 2.86zm1.02-.117c-.11-.308-.2.13 0 0zm-17.503-.968c.804-1.1-.444-1.568-.27-.04l.006.166.262-.127zm13.213.038c1.07-.767-1.105-.942 0 0zm-1.466-.164c.818-.495 1.205-2.914.24-1.44.144.465-.938 1.357-.24 1.44zm38.9-.208c-.807-.908-2.48-.652-3.677-.624-.797.17-2.625.8-.766.357 1.48-.548 3.08.192 4.443.267zm-85.463-.088c.433-.77.57-2.3.025-.792-.098.132-.422 1.096-.025.792zm45.54-.88c1.47-1.853-.752-1.225-.472.32l.064.026.41-.344zm2.694.064c1.105-.26 2.103-2.28.715-.715-.2.133-1.005.64-.715.715zm-4.596-.255c1.474-.768.518-3 .05-.797-.03.14-.482 1.05-.05.797zm39.272-.153c3.39.158 1.216-.38-.347-.18l-.132.166.48.013zm-57.375-.255c1.747-1.333-.52-.248 0 0zm-26.643-.266c.33-1.12 1.748-2.028 1.51-3.212-.715 1.31-.254.1-.734-.326-.203 1.063-1.348 2.864-.777 3.538zm39.614-.398c-.065-.09-.065.09 0 0zm.05-.153c.94-.314.9-2.988.51-1.053-.116.332-.477.888-.51 1.053zm-16.878-.792c.796-.475 3.067-3.143 1.2-1.48-.153.394-1.927 1.268-1.2 1.48zm63.886-.153c-.507-.346-1.212.08 0 0zm-40.125-.854c.042-.697-.728-.022 0 0zm-.627-.347c-.134-.094-.134.094 0 0zm-24.18-.102c.65-.293 2.5-1.24 1.992-1.48-.48.493-2.286 1.236-1.992 1.48zm65.408-.01c-.493-.772-2.25-.077-.653-.065.228-.015.413.19.653.065zm-57.886-.41c.034-.33-.21.1 0 0zm-9.77-1.47c.943-.538 2.72-1.677 2.717-2.324-.786.74-2.332 1.655-2.717 2.324zm11.133-.715c.546-.685-.557-.164 0 0zm-12.154-.766c.942-.33 1.87-1.916.46-.69-.036.136-1.322.86-.46.69zm11.096-.522c.538-.875-.595.172 0 0zm-1.496-.602c1.375-.835.343-.937-.077.026l.077-.025zm-.817-.255c2.143-1.39.05-1.087-.153.026l.153-.025zm-10.673-.357c.935-.29 2.105-1.41 2.205-2.017-.544.604-2.202 1.496-2.205 2.017zm9.742-.804c1.23-1.46-.48-.098 0 0zm-.754-.473c.993-.564-.22-.463 0 0zm-34.65-.077c.715-.177 1.936-1.516 2.273-.925-.014.84 1.39-1.3 1.736-1.668.952-.88.578-2.374.664-3.536-.556 1.445-.094-1.18-.766.204-.556.663-1.292 1.542-.715 1.787-.594 1.763-1.992 3.06-3.42 4.072-.106.2.182.096.23.065zm3.6-3.32c.17-.82.46.452 0 0zm3.626 3.166c.127-.602-.38.294 0 0zm16.418-.204c.798-.304 2.69-1.483 1.97-1.634-.493.55-2.18 1.22-1.97 1.634zm10.75-.23c1.887-1.317-1.147.257 0 0zm20.964-.153c.55-.63-.8-.12 0 0zm-22.1-.292c.266-.546-.546.266 0 0zm-34.05-.014c1.318-.528.356-.955 0 0zm42.988-.037c.457-1.01-.9.312 0 0zm13.508-.102c.156-.387-.387.156 0 0zm-21.87-.116c1.09-.752-.958.125 0 0zm21.755-.18c-.608-.558-.198-.2 0 0zm-54.847-.485c2.523-2.258-1.444.587 0 0zm54.887-.164c.26-1.355-1.74-.112-.295-.066l.174.1.12-.035zm-.844-.742c.6-.72.866-1.658-.448-1.188-.437.147-2.08.146-1.175.943-.002.508 1.323.056 1.622.246zm-32.29.038c1.14-.344 3.15-2.673 1.047-.996-.262.28-1.374.713-1.047.996zm9.614-.37c.425-1.166-2.192-1.348-1.112-.422.883-.79.66.674 1.112.422zm-29.99-.1c1.186-1.163-.127-.526 0 0zm-.868-.153c.562-.396-.37-.375 0 0zm29.007-.255c.5-.435-.7.086 0 0zm-28.803-.562c1.735-1.094-.536-.653 0 0zm51.196-.204c1.164.108 1.717-1.312.332-.587-1.67.614 1.866-2.818-.255-1.277-.77.21-2.312.9-.42.802.168.415-.65 1.33.343 1.062zm-31.535-1.226c1.663.12 3.195-.772 4.015-2.22 1.538-.5.14-.625-.695-.077-.728.226-1.91.582-.817.995-.555.43-2.84.937-2.502 1.303zm10.418-.357c-.273-.774-1.197-3.06-1.506-2.12 1.377-.188-.624 1.6.868 1.94.288-.183.587.456.638.178zm3.843-.165c1.11-1.275 1.244-1.805-.04-.218-.17.042-.314.648.04.218zm14.745-.498c.725-.042 3.648-.373 2.145-1.404-.762.266.176-1.753-.99-1.9-.9-.62-.628-1.99-1.86-1.6-.062-.75.3-1.427-.47-1.066.042.798.067 1.547.817 1.623-.318.792-1.005 1.84.42 1.44 1.475-.33.464 1.336-.32 1.113.956.39 2.653-.542 1.302.854.066.577-1.927.77-1.047.92zm1.098-2.37c.328-1.368.853.242 0 0zm-1.296-1.04c.234-1.333 1.378.262 0 0zm-18.238 3.256c-.065-.092-.065.09 0 0zm-8.12-1.175c1.032.122 2.742-1.658.874-.944-.25.443-2.686.983-.874.944zm13.38-.05c.855-1.04 1.403-1.485 2.58-1.404.545-.79-1.766-.286-.103-1.405-.715-.566-.785-.848-1.098-1.123-.668.825-1.696.722-2.145.572 1.286-.777 1.983-2.286.05-2.106.47-.79 1.197-.86 1.02-1.62.933-1.367-2.18-1.125-.817-2.6.914-.98-.165-1.19-.23-.925.14-.526-1.576.067-.843-.882-.32-.525-1.718 1.5-1.38-.063.72-.22 1.985-2.17.41-1.992-.6.074-.247-1.506-1.02-1.302-.235-.524.905-2.402.306-2.227-1.574 1.346-.307.072-.485-.837-.007-.92-1.522-.112-.613-1.226.334-1.067.32-2.398-.357-.817-.204 1.37-1.832.766-.587-.28.44-.896-2.06 1.52-1.532-.064.225-.175 1.305-2.37.51-1.5-1.045 1.602-2.25.203-1.022-.887-.277-.617-1.285 1.708-1.583.548.99-1.017.196-1.335-.908-.93.13-.85.416-.98-.37-1.572-1.11-.328 1.195-2.5-.46-.95-.4.786-.67 1.25-.178 1.756-.33.68-.93 1.24.077.715-.265.418-1.124 1.988-.153 1.34.92-.612.222.7-.153 1.26-1.545 1.876.343.025.332.62-.866 1.587 1.374-1.44.97.153-.44.837-1.425 1.69-1.328 2.606 1.183-1.577.438.807 1.495-.717.933-1.55 3.183-.123 1.493 1.124-.497.642-1.968 2.617-.536 1.123 1.098-.502 1.352-2.87 2.63-2.247.148.875-.936 1.475-1.213 1.776.836.556-1.34 1.66.397 1.365.748-.08 2.443.398.92 1.047-.77-.25-.88-.952-1.328.05-.94 1.153-.02 1.184 1.072 1.302 1.126.3.55.706.894 1.404 1.973-.3-.812 1.638.638.817 1.703-.19.707 1.672-.306 2.184-1.078 1.973 1.2-1.194 1.84-.856-.755.535-1.72 1.676-.153 1.175 1.81-.363-.638 1.914 1.623 1.328 1.147.878-1.645 1.07-1.674 2.35.28.728 1.35-1.287 2.185-.58 2.844-.4-2.098 2.07.68 1.55.547.665 3.427-.868 2.24.485-.664.63-1.525.72-1.48 1.425-.13.25-.988 1.023-.307 1.052zm-1.398-4.788c.643-.485 1.145.127 0 0zm.99-.115c.883-.424 1.402.2 0 0zm-1.277-1.61c-1.136-.93 3.052-1.693 1.48-.382-.318.49-.993.357-1.48.382zm-1.577-1.52c.16-1.48 2.007-.52.306.063l-.306-.063zm1.372-.012c-.46-.826.978-.595 0 0zm-1.653-1.238c.125-.688.51.208 0 0zm1.583-.102c.123-.945.618.102 0 0zm-2.12-.946c.407-1.18 1.935.25.306.063l-.306-.063zm2.7.013c-.31-.73.78-.2 0 0zm-.632-.038c.024-.83.586.187 0 0zm-2.33-.702c-2.132.06 1.552-2.053.46-.24-.085.063-.292.343-.46.24zm.613-1.38c-.35-1.118 1.5-.177 0 0zm.715-.023c.034-1.105.954-.017 0 0zm-2.656-.18c-.793-1.167 1.646-.41 0 0zm-.715-.204c-.656-.972 1.26-.554 0 0zm1.277-.715c-.415-1.038 1.083-.527 0 0zm1.175-.602c.09-.21.318.094 0 0zm-1.328-.624c-2.44-.23.982-.45 0 0zm-1.43-.153c-.37-.488.627-.3 0 0zm2.12-.587c-1.513-.695 1.65-1.094.383.076l-.107.177-.276-.254zm-1.762-2.68c-.99-1.573 2.567-.36 0 0zm-.92-.41c.065-.092.065.092 0 0zm-.05-.255c-.417-.987 1.182.123 0 0zm-.46-1.226c-.404-.67.972-.435 0 0zm-2.036-.345c.158-1.17 1.405-.033 0 0zm-.587-.33c.177-.81.59.04 0 0zm.026-1.303c-.158-.66.89.042 0 0zm.096-.42c-.512-.7 1.03-.26 0 0zm-.357-1.047c.062-.177.062.177 0 0zm-.25-.933c-.15-.728.875.196 0 0zm12.417 24.36c.135-.505-.436.234 0 0zm-.37-.294c.892-.713-.362-.42 0 0zm-8.08-.2c1.465-1.628-.43-.786 0 0zm9.05-.065c-.202-.095-.202.095 0 0zm19.942-.613c1.415-.74-.978-.595-.077.077l.077-.077zm-29.645-.153c.273-.12-.103-.167 0 0zm-.65-.266c.335-1.69-1.875.517 0 0zm1.11-.142c.702-1.173-.563.146 0 0zm28.624 0c1.136-.424-.702-.626-.076-1.48-1.17-1.365-2.16 1.267-.332.868-.052.278.13.56.408.613zm-.932-2.77c1.243-1.398-.832.152-.7-1.254-1.437.955-.814 1.918.7 1.254zm-9.052-1.392c1.03-.362-.872-.397 0 0zm7.073-.153c1.81.44 1.186-2.88-.18-1.302-1.843.218 1.017-.792.587-1.583.708-1.262-2.115 1.702-.945-.102.31-1.007.758-2.33-.587-1.73.07-.694-1.712.98-1.48 1 .075.943 1.984-1.034.817.562-1.604.605.16.71.715.423-.848.77.227 1.464.46 1.978.3.275-.286.83.613.766zm-.102-.51c.397-1.01 2.124-.047 0 0zm-.51-3.166c-.415-.263.4-.18 0 0zm-6.92 2.81c.286-.534-1.34.24 0 0zm-16.725-2.22c.867-.412-.408-.314 0 0zm-2.017-.996c1.27-.78 1.203-1.56.05-.332-.232.058-.797.857-.05.332zm1.3-.165c1.374-1.414-.722.093 0 0zm-4.405.012c.765-.344-.386-.474 0 0zm-3.23-.14c.46-.582-.535.045 0 0zm-.843-.282c1.404-1.734-1.847.318 0 0zm31.368-.001c.952-.343.906-1.352-.102-.702-.09-.348-2.445.588-.786.638.344-.126.578.01.888.063zm-7.047-.83c1.045-.264-.06-1.478.025-1.66-.24-.15-.178 1.787-.025 1.66zm-24.896-.304c-.172-.74.103-1.548-.218-1.483-.586-.993-1.38 1.894-.344.306.385-.342-.105 1.386.562 1.177zm30.564-.028c.825-.49 2 .09 1.634-1.342-.96.002-.185-1.507-1.098-.88-.874 1.208.292-2.103-.83-.548-1.08.327 1.177-2.334-.167-1.622.17-.934-.842-1.17-1.124-.134-1.335.713.75 1.927-.587 2.407.014.734 2.38.127.854.766.736.07.43 1 1.316 1.353zm-27.5-1.316c-.355-.524-.608.066 0 0zm19.65-.05c.345-1.535-.738-1.156-.55-2.133-.37-.143-.6 1.722.14 1.328.684.134-.5 1.02.41.806zm-22.356-.422c-.065-.092-.065.092 0 0zm32.264-.01c.136-.594-.662.117 0 0zm-30.105-.306c.097-.295-.262.056 0 0zm4.927-.077c.698-1.084-.717.096 0 0zm-6.117-.422c1.11.095.91-2.01.114-.587-.22.104-.665.65-.114.587zm24.834-.01c1.02-1.54-1.108-.325 0 0zm-26.71-.153c-.14-.695 1.74-1.88.215-1.394.643-.573-.793-.6-.434-1.94-.45-.76 1.27-1.655.23-1.38-1.43.84-1.772 2.175-1.456 3.665.47.262.915 1.062 1.444 1.048zm-.576-1.113c-.553-.808.78-.257 0 0zm-.734-.472c.12-.936 1.112.023 0 0zM42 82.955c1.204-1.472-.45-.265 0 0zm13.9-.154c1.1-1.03-.128-.993-.447.018.11.124.338.14.447-.018zm-30.05-.537c-.06-.5-.354.23 0 0zm63.002-.217c.674-.515-.766.148 0 0zm-38.505-.204c-.186-.285-.285.213 0 0zm39.246-.026c.707-.887-.904-.382 0 0zm-67.754-.24c1.44-1.46 3.455-2.3 5.12-3.46-1.398-1.35-3.122 2.32-4.086 1.186 1.136-.444.694-1.646-.358-.854-1.257.03 1.42-1.42-.347-.894-.766-.588.107-1.743-1.262-1.532-1.472-.373.934-1.483-.575-1.072-.346-1.1-1.628-.275-2.177-.902.68-.072-.428-1.483.045-1.78 1.726.045 2.28-2.036.28-1.302-1.184-.18-1.48-.954.128-.843 1.207.087 2.212-1.028.613-1.532-.77.28-3.143.715-1.38-.153.733-.426.9-1.545 1.064-2.12-1.29.25-1.997.142-3.157.383-1.396-1.324 1.395-.7 2.094-1.15 1.148-.223 1.008-1.355-.18-1.175.726-.67-1.072-1.023-1.456-.69-1.084.376-2.015-.906-.204-.46 1.688-.024 2.418-1.27 3.396-2.375-.736-1.21-3.12.854-3.65-.868-.872.92-1.065.303-1.22-.41-1.688-.393.644-.794.837-1.736 1.512-1.175-.537-.576-.613-.97 1.113-1.115-.698-2.977-.587-3.524 1.34-.397-1.248-.64-.18-1.634-.253-1.216-1.966-1.208-1.047-2.758-1.182-.843-.86 1.822-1.455 2.604.058 1.15-1.776 1.507-.638 2.605 1.31 4.054 1.014 8.433.867 12.588-.6 1.34 1.65 1.863 1.915 3.243 1.25 2.18 3.298 4.072 4.468 6.46 1.343 1.52 2.088 3.552 3.342 5.132.12.07.282.07.4-.012zm-1.316-2.797c-.554-.824-1.62-2.068-1.15-2.885 1.134.06.616 1.55 1.353 2.273.015.225.303 1.028-.204.613zm-1.25-3.192c-1.642-.333.662-1.666.408-.2-.097.064-.28.243-.408.2zm-1.123-8.222c.065-.092.065.092 0 0zm-2.553-2.553c-1.13-.63 2.715-.562.766 0l-.383.026-.383-.026zm-1.704-4.507c-.194-.483.516.16 0 0zm-.16-2.107c-.32-.674 1.867.252 0 0zm-.587-.74c-1.484-1.065 1.844-.355 0 0zm-.48-1.392c.007-.35.302.18 0 0zM11.84 53.5c-.97-1.51 1.738.02 0 0zm.23-.996c.265-.28.265.28 0 0zm.868-.715c-1.396-.713 1.67-.396 0 0zM90.307 81.2c1.104-2.045-.683.462 0 0zm-1.57-.07c-.02-.55-.564.396 0 0zm-31.446-.207c-.13-.415-.372.224 0 0zm30.54-.062c.825-.515 1.22-1.927 1.66-2.534-.023-1.494.01-1.047-.562-.02-1.315 1.162-1.212-1.18-.638-1.838-.14-1.077.798-2.89-.142-3.334-.078 1.424-1.23.816-.424-.3-.71.84-1.526.12-1.732-.655-.34-1.294-.31-.452-.792.128-.843-.38-.972-.517-.654-.996-.72-.27-2.74.166-2.615-.96.534-.2 3.53.507 1.736-.215-.712-.097-2.43-.914-2.298-.204.207 1.656 2.386 1.58 3.5 2.604 1.66.64-1.32.5-.23 1.072.89.5-.1 2.52.934 1.838.115-.934.972 1.83.638.153.36-.47-.035-.354-.46-1.06.255-.958 1.748-1.634 1.227-.113-.092.712-.414 2.408-.333 2.81.768-1.437.437.825.41 1.38-.53 1.513.332-.126 1.316.204.663.47-1.076 2.256-.34.675-.197-.34-1.075 1.884-.21 1.368zm-.23-2.313c.087-.178.183.076 0 0zm-.46-2.003c-.597-.553.323-.937.102-1.736.58-1.335.913.38.153.638.354.12.114 1.134-.256 1.098zm-1.934-1.214c-.23-1.042.99-.313 0 0zm.996-1.914c-.194-.483.516.16 0 0zm-.465-.16c-.03-.393.29-.038 0 0zm.178-.748c.052-.262.133.19 0 0zm5.836 7.905c.263-.63-.364-.017 0 0zm-21.08-.423c-.29-.62-.45-.983-.92-1.01 1.066-.84-1.386-2.232-.587-.676-.178 1.017.99 1.318 1.506 1.685zm-32.53-.28c.747-.42 1.115-1.006.102-.23-.176-.045-.693.5-.102.23zm52.88 0c-.16-.23-.18.232 0 0zm-.598-.98c.527-1.476-.353-.772-.128.037l.128-.036zm-4.034-.664c-.945-.254.3-1.92-.693-.97-.043-1.5-.41-1.213-.292 0-.525.548.538 1.004.985.97zm-.627-.693c.09-.2.318.093 0 0zm-39.513.463c.677-.65.687-2.053.267-.562-.035.06-.708.63-.267.562zm-7.853-.014c.6-.443 1.816-1.432 1.742-1.61-.425.518-2.64 1.02-1.742 1.61zm9.882-.28c.515.076 1.926-.3 1.45-.848-1.247 1.067-.773-.946-1.832-1.25-1.103-.107.354.822 0 1.087-.238.32-.054.987.383 1.01zm20.3-.014c.312-.434-.288-1.515-.5-2.284-.22-.7-1.14-2.21-.868-.56-.213.75.565 1.786.908 1.172.106.448.147 1.654.47 1.672zm-18.14-.1c.895-1.12-.392-.165 0 0zm1.697-.27c-.27-.095-.27.095 0 0zm7.2-.28c-.268-.188-.268.188 0 0zm13.803-1.058c.506-1.114 2.44.126 2.232-1.69-.247-.943-1.1 1.83-1.87.613.075-.48.797-1.738.236-1.72-1.614.477.227-1.2-.255-1.353-.6-.637-1.465-1.038-1.813.05.574.367-.362.676.68.747.694.276-.26 2.102.98 1.592.005.47-.473 1.514-.2 1.76zm-.78-3.82c-.3-.897 1.443-.13 0 0zM40.21 75.46c1.15-1.02-1.49-.624 0 0zm-.128-.397c.252-.44.265.168 0 0zm-30.003-.37c-.2-.187-.2.187 0 0zm34.973-.09c.022-.288-.35.095 0 0zm-4.817-.294c1.13-.608.35-1.272-.357-.27-.35.428-.006.565.357.27zm3.958-.28c1.57-.818-.68-.278 0 0zm5.234-.23c.622-.794.715-1.526-.153-.562-.555.18-.25.57.153.562zm17.516-.077c.197-1.017-.48-2.05-.855-2.39-.476.622 1.227 1.242.11 2.02.148.15.493.53.747.368zm-46.906-.23c1.016-.273 1.2-1.11.102-.41-.196.03-.373.444-.102.41zm23.62-.46c1.8-.465-.27-.617 0 0zm40.742-.317c.045-.35-.39.225 0 0zm-64.514-.04c1.746-.406-.757-.844-.077.026l.077-.026zm21.883-.332c-.13-.183-.13.183 0 0zm2.094.026c1.52-.746-.52-.43 0 0zm-.562-.46c1.82-.665-.106-.68 0 0zm1.685-.05c1.055.47 2.05-2.713.817-1.328-.15.242-1.478 1.207-.817 1.328zm-1.838-.715c.964-.177 1.2-.952.102-.332-.175.07-.785.395-.102.332zm28.14-.102c1.012-.292.7-.3.05-.536 1.183-1.016-.662-1.103-.536-1.48.274-1.298-.834-1.443-1.61-.817-.485-1.222 2.47-.79.82-1.405-1.755.338-.285-.73-.868-.766-.098-.655-.423-1.207-.92-1.277-.064-.958-.83 1.137.4.434-.235 1.116.59 2.147.2 3.334.265.443 2.56-.1 1.5 1.11-.54.095.787 1.284.964 1.405zm-6.332-1.404c-.555-1.012-.192.48 0 0zm21.883-.664c-1.02-3.575-4.497-5.34-7.712-6.613-3.42-1.174-5.063-4.773-7.354-7.328-1.25-2.483-3.43-4.29-5.943-5.362-1.24-2.365-3.105-4.335-5.316-5.873-1.427-2.03-2.147-4.605-3.907-6.486-1.602-2.846-4.085-5.15-4.978-8.37-.937-2.954-4.234-3.926-6.632-5.138-2.774-2.696-5.846-5.03-8.887-7.405-3.062-2.065-5.337-4.993-8.228-7.277-1.38.108-.24 1.956-1.43 2.63-.452 1.22-3.07 1.14-2.917 1.736.625.228 2.217-.712 1.844.703.52.93 2.593-1.634 2.298.36.11 1.007-.26 1.3 1.02.802.22.764.023.984 1.25.383 1.825-.297-.382 2.4.74 2.12.673-.706 2.48-.89 2.988-.383-.264 1.22.224.802.73.172.864.387-1.414 2.287.14 1.41.142.99 2.734-.806 1.353.638-.65.35-2.26-.342-1.662.434.774.14-1.202 1.606.487.69 1.13-.754 3.528-1.19 3.972.32-1.005-.172-1.1.888-2.172.994-.26.674 2.88.14 1.11 1.214.384.732.97-.445 1.813-.51 1.01-.087.838.802-.026.485-1.3.377-.754.658.383.638.973.66-1.385 1.1.204 1.226.772-.17 1.057 1.604 2.03.255.933-1.085 1.044.114 1.34.357-.16-1.618 1.95.93.28.18-.974.054-1.613.552-.153.638 1.274.02.437.968 1.175 1.226-.887.367-2.596 1.166-1.9 2.45.76-.378 2.094-2.792 2.324-1.762-.233.76-2.62 2.303-.842 1.787 1.757-.624 3.256-2.375 5.25-1.43 1.046 1.23-1.705 2.47-2.838 2.196-.483-.514-.032-1.553-1.083-.817-.856.49-2.56 1.465-.548 1.532.937-1.045 2.247.02 3.357.102-.958.6-2.57.13-3.217 1.343 1.133 1.11 2.868 1.127 4.24 1.338-.804.463-2.596 1.624-.817 1.94.986-.266 2.082.28.715.69-1.56.674.635 1.026 1.38.485 1.553-.748 1.03.835-.153 1.175-1.808.254.256.766 1.113.536-1.11 1.378.128 1.403.992 1.92 1.254-.363 1.72-1.674 2.313-2.38.846.64-.193 1.486-.332 2.348-.596 1.342-1.055.034-1.685.74-.925.8-.807-1.275-1.302.383.924.983 2.43.73 2.885-.555 1.006-1.38 1.647.763.266.862-.794.45-1.65 1.564-2.232.97-.004 1.282 2.977 1.01 3.805-.122.808-1.36 1.804.206.678.953-1.18-.09-2.683 1.732-.788 1.69-.362.652.82 1.26.698.594-1.3-.01.704-1.317.996-1.878 1.014-.732 1.157 1.083.766 1.64.555-.063 1.882-.452 1.328.763-.777.477.328.826-.41 1.6.423-.053 1.582-.17.46.368-.406.37-1.193.866-.818 1.367-1.04.897 1.08-.257 1.634.037 1.09-.648 1.397.297 2.094.41 2.007.137-2.684 1.3-.077 1.2 2.195-.305 4.488 1.112 6.23 1.838-.152 1.406 1.26-.638 1.225 1.02-.92.573 1.784 1.14 1.175 1.838.332-1.57 1.413.9.025.602.66.546 1.648.74 1.57 1.7.383.793 2.324.645 1.137 1.43.542.627 1.188.795 1.073 1.4 1.187.012 1.33 1.342 2.273 1.42 1.564-.838-.366.63.945.445.784-.4 1.995.66.93 1.19 1.17.57 1.757-.29 2.517-.347.98.543 2.028 1.4 2.91 2.105.788.427 1.326 1.62 1.89 2.21zm-3.697-3.717c.218-.327.338.183 0 0zm-2.482-.037c-2.17-1.432 1.75-.85 0 0zm-1.736-1.583c-.974-.758 1.234-.16 0 0zm-2.087-.88c.095-.264.153.12 0 0zm-1.104-.804c-.87-.687.854-.074 0 0zm-2.094-2.604c-1.036-.724 1.143-.373 0 0zm-1.066-1.57c.113-.683.595.288 0 0zM70.83 55.58c-.272-.7.77.27 0 0zm-6.543-5.68c-.675-.45.507-.208 0 0zm-4.518-.07c.607-.858 1.605-.02 0 0zm4.142-.352c-.16-.708.523.154 0 0zm-2.12-.128c-.365-1.125.974.3 0 0zm-.823-.804c-.386-.823 1.016 0 0 0zm-4.87-6.473c-.3-1.705 1.66-.13 0 0zm-.236-1.162c.076-.278.223.238 0 0zm-4.188-.68c.66-.744 1.282-1.614 1.89-2.258-.622 1.617 1.28-.308.856.652-.55.953-1.398 1.677-2.745 1.606zm.006-1.76c.026-.77.64.242 0 0zm.658-.19c.125-.12.048.18 0 0zm-.357-.202c.262-.516-.026-1.85.766-1.432.235.048 1.403-.252.434.817.044.536-.814.723-1.2.615zm-.48-1.726c-.008-1.03 1.224-.592 0 0zm-.39-.677c.397-.44 1.258-2.045 1.137-.65-.54-.143-.895 1.192-1.137.65zm-2.094-.27c.442-1.12 1.5-1.2 2.35-.83-.547.596-1.603.83-2.35.83zm1.513-1.505c-.166-.585-2.687.042-1.053-.728.776-.375 2.116-1.86 1.722-.14.62.158-.384.907-.67.866zm.377-.42c.175-.486-.604.21 0 0zm-3.064.128c-1.94-.777 2.71-1.4.306-.05-.1.01-.207.12-.306.05zm3.964-2.26c-.665-1.025.505-.7 0 0zm-.485-1.048c-.52-1.218-1.195-2.393-2.15-3.23.96.312 2.5 2.196 2.15 3.23zm-6.492-3.305c-1.394-1.006 2.058-.47 0 0zm-4.513-2.158c.044-.64.684.2 0 0zm.53-.192c.224-1.23 1.29-.303 0 0zm1.38-.51c.133-.19.052.262 0 0zm-1.94-.05c.134-.094.134.094 0 0zm.613-1.124c-1.708-.655 1.342-.448 0 0zm-2.496-.243c.134-1.19 1.794.194 0 0zm1.226-.46c.067-.842 1.45.216 0 0zm-4.475-3.306c-1.817-.277 1.173-1.653.358-.05-.125.018-.216.162-.358.05zm-3.747-2.924c.006-.356.36.018 0 0zm-3.294-1.097c.126-1.612 1.553.034 0 0zm-2.4-.715c-.323-.93.312-1.74 1.347-1.278.213.74-.89 1.01-1.347 1.278zm2.962-.46c-.105-.516.753-.013 0 0zm-1.36-.958c-1.2-.697 1.22-.65 0 0zM64.083 69c.622-.487-.81-.285 0 0zm17.67-.434c1.824-.206-.983-.687-1.762-.792-1.858-.234 1.56.745 1.762.792zm-4.557-.37c.184-.653-.576.04 0 0zm-30.936-.882c-.216-2.68-.485.932 0 0zm36.744.28c-.362-1.104-3.195-1.7-3.228-1.175.913.243.848.294.828.638.753.225 1.78.626 2.4.536zM61.442 67.2c.26-1.287-.527-.3 0 0zm18.498-.066c.14-.457-.207.28 0 0zm-3.243-.18c.322-.624-.872-.477 0 0zM44.6 66.624c1.57-.502 1.37-2.682.485-3.473 1.056.93-1.91 2-.395 2.056.46-1.397 1.197-.147.19.446-.126.25-1.203.893-.28.97zm33.705-.28c.625-.093-.512-.186 0 0zm-17.68-.062c-.015-1.075 1.65-.613.547-1.95-1.17-2.452-3.072-4.33-5.286-5.52-.603.113-1.035-.88-.843.346.547 1.555 2.44 2.216 2.84 3.73-.02 1.26.766-1.338 1.04-.05-.615 1.217 1.658 1.6 1.532 2.92.086.076-.038.7.168.525zm-.27-1.317c.065-.092.065.092 0 0zm-.766-1.072c-.92-.73.868-.123 0 0zm-2.547-2.388c-.938-1.07 1.047-.132 0 0zm-.72-.93c-.81-.51.633-.418 0 0zM44.028 64.34c1.194-1.104-.392-1.277-.168-.015l.168.015zm27.628-.41c-.332-.675-1.556-2.526-1.7-2.017.645.6.957 1.598 1.7 2.017zm-34.28-1.05c-.155-.567-.228.127 0 0zm35.15-.33c.193-.67-.735-.048 0 0zm-10.367-.51c.677-1.292-1.258-2.73-1.98-3.64-1.86-1.125-3.748-2.343-4.622-4.417-2.803-3.53-3.97-8.146-7.225-11.465-1.458-2.567-3.357-4.915-3.906-7.865-1.95-3.793-6.6-4.836-8.986-8.3-3.308-4.06-8.083-6.343-12.054-9.582-1.763-1.57-3.703-3-5.03-4.947-.553-.614-1.604-2.675-2.094-1.104.86 1.12 2.03 2.42.05 2.89-.876.73-2.865.04-2.324-.996 1.68-1.01-1.972.068-.817-.817.617-.194 2.2-.79.623-.804.63-.283 1.16-1.293.63-1.443-1.383.696-3.223.82-4.202 1.532-.432-.228-.116-1.125-1.06-1.432-1.146-1.6-2.56-3.283-2.834-5.207a3.48 3.48 0 0 1 3.268-2.758C7.8.764 4.944 2.857 4.795 4.908c.455 1.805 1.4 3.387 1.812 5.21.475.72.884 1.788 1.02.587 1.062.626 1.082 2.484 2.706 1.813 1.812-.157 3.687.322 4.315 2.196.12.847 1.383 1.59 1.762 1.34-.822-.8-1.364-2.11.307-2.08.72-.51 2.722.13 1.39.843-1.072.957 2.474-.165 1.213 1.423-1.028.37-1.006 1.005.025.62 1.94-.493-1.14 1.485.53 1.072 1.133-.733.725 1.126 2.023.485 1.226-.02.985 1.123-.142 1.15-.884 1.387 2.466-.46.8 1.226-1.455.42-.172 3.535 1.027 1.864 1.126-.152 1.302-2.04 2.593-1.393.402.812.935.77-.356 1.367-.456-.192.51-.69-.654-.23-.87.24-1.485.953-.255.74-.436.497-1.93 1.906-.317 1.398.754-.122 1.452-.352 1.236.4.957-.658 1.4-2.794 2.9-1.89-.316.893-.91 1.028-1.673 1.7-.7.132-2.536 2.135-.777 1.404.39-.81 3.095-.416 1.4-1.07.605-.673 1.897-.984 2.18-.36 1.702-.075-.917 1.755-1.007.945-.386.88-2.18.8-1.98 1.955 1.018-.94 2.5-1.793 3.768-1.5-.702.744-3.29.86-2.822 2.573.694.11 2.445-1.7 2.158-.856.366.045 1.673-.033 1.825-.218.95-.067-.97 1.703 1.367.907 1.212-.214 1.95.55 1.02.97 1.334-.438 2.616.657 3.703 1.123 1.192.593-1.54.37-2.145.536-1.455.635-4.152.956-3.78 3.04 1.09-1.073 1.235.8 1.3 1.43.97-.443 1.308-.05 1.558-.996.373-1.162-.975.12-.332-1.302.463-.23 1.323-2.195 1.558-1.226-.712 1.536 1 .343 1.813.153 1.42-.916 1.524 1.244 2.81.51 1.383.15-1.763.648-.128.817 1.68-.833.863 2.105-.448 2.043-1.085.34-1.5 1.575-2.31 1.966-.662-.72 1.788-3.105-.198-2.783-.507.836-1.016 3.86-1.4 1.532.52-.727 1.145-2.605.076-2.6-1.14 1.893-1.643 4.69.965 5.776.75 1.043 2.684-1.498 2.457.346-.927.4-1.036.974.128.727 1.498-.447 2.97-2.593 4.11-1.66.015 1.237-1.657 2.22-2.247 2.043-1.237.727.083.457.677.447.763-1.43 2.187-.782.696.344-.935.777.156 1.4-1.016 2.222.056 1.323 1.49.582 1.93 1.137-1.2.112-2.135 1.317-.652 1.89 1.078.414.68.902.153 1.493.426.687 2.463.208.945.817-1.536.592 1.166 1.16 1.71.958-.61.473-2.165 1.533-.613.88 1.992-.15-2.274 1.19-.05.843 2.37.34-.517.99-1.15.69 1.282.7 3.19.867 4.264 1.214-.487.77-1.984.82-2.196 1.467 1.385.406 2.53-.026 3.807-.383-.214.436-2.53 1.184-.69 1.47-.832.532-.934.66-.216 1.084.575-.864 3.525-1.25 1.545-.153-.986.383-1 .936.102.536 1.097.762-2.556 1.244-.408 1.15 1.203-.424 1.996 1.3 1.252 2.298.1.787.587-1.213 1.353-.755-.418-.553-.965-.31-.92-1.492 1.046-.096 1.107-1.726-.05-1.7 1.426-.738-1.336-.85-.155-1.875.708-1.164 1.488-1.715 2.4-.562 1.243.384 2.475 1.818 2.616 2.834 1.363-.022 1.82 1.887 2.41 2.12.916-.254 2.027.705 1.266 1.098.894.29.987-.1 1.342 1.047l.153-.036zm-2.97-2.582c-.183-.375.644.118 0 0zm-7.736-1.198c.2-.797 1.006.186 0 0zm-1.768-1.724c-.313-.273.378-.172 0 0zm.543-.32c-.125-.72.626.18 0 0zm1.047-1.252c-.967-.22-.404-1.265.35-1.8 1.777-.696 1.98 1.456-.35 1.8zm.697-1.07c.265-.464-.62.203 0 0zm-3.838.842c.204-1.115 2.927-.62 1.015-.064-.337.04-.673.12-1.015.064zm2.01-.716c.153-.32.337.224 0 0zm-.632-.356c.31-.805 2.998-2.306 1.704-.575-.572.173-1.078.596-1.704.575zm-.715-.664c.263-.84 1.98-.527.53-.038-.162.08-.318.188-.53.038zm-1.175-1.02c-.126-1.036 2.517-.778.71-1.187.73-.917 1.038-1.097-.245-.562-.642-.063-2.388 1.157-1.006-.204.328-.364 2.28-1.827 1.328-1.864-.947.973-2.217-.955-1.02-1.48-.692-1.087 1.563-1.42.817.066.543.52 1.158 1.484.573 2.195 1.097-.898 2.03.32.857 1.16-.7 1.296.946-.13.41 1.2-.27.21-1.256.093-1.9.638-.176.02-.35.088-.53.038zm-.594-.65c1.155-1.807 1.34.306 0 0zm3.166-.934c.095-.345.43.23 0 0zm-6.18-1.926c-.18-.93 2.294-1.536 1.033-.485-.295.225-.61.603-1.033.485zm2.534-.166c.107-.424.506-.02 0 0zm-.613-.306c.094-.533.426.243 0 0zm.683-2.183c-1.027-.634.975-1.813.613-.446-.213.06-.313.513-.613.446zm-.817-.92c-1.505-.937 1.394-2.176.357-.204-.06.097-.24.266-.357.204zm-2.4-.28c.417-1.06 2.508-.513.715-.028-.236.02-.483.14-.715.028zm-.204-1.15c.112-.9 1.824-1.7 1.022-.434-.246.206-.674.645-1.022.434zm1.92-.473c-.22-1.3 1.16.332 0 0zm-1.865-.74c.01-.54.717.134 0 0zm1.067-.267c-.432-.828 1.014-.298 0 0zm-.41-.536c.07-.88 1.076-2.124.996-.664-.005.484-.857.355-.996.664zm-3.747-1.62c.138-1.02 1.296.18 0 0zm.965-.925c.745-.76.958-2.775 1.48-1.744-.348-1.396.52-2.643.74-.843.07.988-1.078 2.637-2.22 2.586zm-4.75-.467c-.67-.88.915.174 0 0zm-.453-.907c-.277-1.22.827.6 0 0zm4.845-.727c-.824-1.142 2.51-2.956.97-.817-.278.267-.467 1.027-.97.817zm-3.907-4.775c.72-1.01.84.463 0 0zM31.4 27.404c-1.077-.928 2.52-.504.562 0l-.28.026-.28-.026zm-5.413-3.422c-.352-.57.86-.42 0 0zm-3.492-1.85c.15-.462.386.2 0 0zm-.39-.37c-.203-.722.876-.046 0 0zm1.124.026c-.195-1.055 1.922-.36.255-.026-.076.043-.172.077-.255.026zm-.734-.472c-.32-.99 2.747-2.02 1.628-.728-.542.315-.93.793-1.628.728zM9.32 12.25c-.27-.29.573.107 0 0zm-.92-1.175c-.273-.77 1.146.245 0 0zm2.394-.09c.125-.12.048.18 0 0zm41.66 51.006c1.188-.622-.113-1.212-.102.036l.102-.036zm19.442-.04c-.338-.095-.338.095 0 0zm-.41-.255c-.164-1.222-1.478-1.183-.332-.026.04.08.45.374.332.026zm.736-.528c-.37-.85-.56.007 0 0zm-5.996-.315c.653-1.283 2.09-2.245 1.61-3.83.648-.828-.07-2.853-.153-.97-.018.604-.35 3.03-.842 1.44-.62-.33-.73.334-.817-1.007.156-1.174-.925-2.595-1.992-2.312.45.99-.042 1.695.255 2.7.432.794 1.226 1.594 1.264 2.303.536-.26.156-2.104.906-1.02.47 1.8-.84 1.263-.868 1.94.09.18.45 1.235.638.766zm-1.245-3.46c-.224-2.142 1.156-.237 0 0zm-.543-.728c-.15-.407.46.153 0 0zm-.05-.357c-.185-1.008.79.093 0 0zm-5.158 4.545c-.044-.178-.135.12 0 0zm-16.993-.242c.638-1.8-1.326.96 0 0zm22.394-.28c0-1.19-1.105-1.588-.346-.29.077.1.18.498.346.29zm-23.122-.167c1.152-1.025-.857-.537 0 0zm29.773-.023c-.208-.827-1.962-.833 0 0zm-8.17-.66c.41-.623-.67.18 0 0zm1.992-.48c-.377-.525-.392.115 0 0zm-1.16-.33c-.256-.97 1.192-.225-.168-1-.5-.36-1.1-2.22-.92-.74.096.675.547 1.4 1.087 1.75zm-2.45-2.35c.206-.557-.433.196 0 0zm.255-.613c-.115-1.14-.93-.266 0 0zm12.14-5.045c1.042.514 2.425-1.1.74-.843-.823.518-3.03-.358-2.834.485.654.277 1.393.384 2.094.357zm-16.8-.97c1.76-.928-.09-1.05 0 0zm1.838-.664c-.016-.62 1.176-1.642-.358-1.277.17-.81-.936.13-.05.255 1-.078-1.24 1.32.41 1.02zm13.993-.255c2.257-.664-2.526-.1 0 0zm-2.656-1.2c-.348-.5-1.66-1.276-1.302-1.175-.318.757.632 1.362 1.302 1.175zm-12.946-.102c1.706-1.54-.577-.44 0 0zm10.918-1.977c-.273-.374-.54.008 0 0zm-3.78-.664c.3-.44-.462-.082 0 0zm-38.608-.817c.736-1.083 2.38-1.648 2.896-2.7-1.154-.61-3.118 1.053-3.09 1.93 1.214-.968-.493.487.193.78zm-8.67-.398c1.29-1.73-2.077-.933-.408-.05.132-.012.294.102.408.05zm48.353-.115c-.157-.368-.456.126 0 0zM27.484 43.4c.09-.213-.236.096 0 0zm42.523-.002c-.093-.347-.152.1 0 0zm-1.02-.088c1.055-.82-.082-.224-.792-.485-.088.364.586.455.792.485zm-4.085-.255c-1.052-1.67 2.15-.854.69-1.813-.497-.456-2.47-.774-.894-1.302.574-.966 3.274.442 1.61-.638-1.333-.244-1.368-1.79-.077-2.12-.642-.453-2.02-.926-.574-1.66.007-.5.473-1.756-.136-1.685-1.226-.438-.423-1.407.417-.613 1.182-.503-1.978-1.287.242-1.38.594-.388-.675-2.385.7-1.838.28 2.22.404.956.306-.562.307-.892 1.847-1.116 2.272-1.455 1.3-.658.342-2.856-1.2-2.4-3.684.747-5.886 4.42-6.357 7.916-.782 2.93-.14 6.193.956 8.81.24-2.262 1.2 1.762 2.057.74zm-.46-.485c.13-.183.13.183 0 0zm-.48-.857c-.116-1.03 1.322.665 0 0zm-.715-.51c-.013-1.047.84.273 0 0zm.99-3c-.85-1.343 1.84.053 0 0zm.134-2.26c-.06-.39.374.095 0 0zm-.287-.294c.127-.27.127.27 0 0zm.696-3.792c-.36-.794.752.055 0 0zm.613-.817c-.093-.596.592.124 0 0zm4.137-3.447c-.28-1.23.714-.04 0 0zm-53.143 14.67c1.18-.455-1.16-.285 0 0zm51.988-.18c1.083.15 1.09-.54.114-.536-.24-.05-.447.763-.114.536zm-43.92-.23c.715-1.374 2.417-2.186 3.59-2.72-1.638-.112-4.152.676-3.838 2.708l.25.013zm-8.13-.088c-.302-.787-.925.513 0 0zm52.56-1.087c-.155-.47-2.51-1.158-1.032-.223.347-.056.73.304 1.032.223zm-.562-1.02c-.255-.59-.408.467 0 0zm-40.017-.86c-1.45-.943-2.003.254 0 0zm39.813-.636c-.487-.657-2.15-.837-.715-.215.28-.08.496.4.715.215zm-46.14-.598c.778-.34 2.338-1.762.658-.977 1.325-1.225-2.08 1.433-.658.977zm36.642.026c1.456-.396-.874-1.255.805-1.66.65-.456.444-1.107.394-1.685.487-.543.54-1.325-.6-.715-.955-.342 2.05-.985.28-1.302-1.2.266-3.234 1.485-2.22 2.68-.064 1.266-.22 2.468 1.353 2.68zm.306-3.13c.365-.562.723.186 0 0zm9.1 2.757c-.323-.442-.55.156 0 0zm-46.702-.153c1.253-.86 1.635-2.46.05-.715-.057.198-.632.833-.05.715zM5.777 35.87c-.22-.563-1.545-2.753-.193-2.037 1.463.26-.945-1.038-.14-1.718 1.655.076.362-.864.447-1.584.6-.185 1.182.658.51-.465-1.16-1.42 1.486.063 1.277-1.32-1.325-.726-.487-1.115-1.38-1.978.783.152 1.668.668.868-.51.785-1.016-1.598-1.82-.885-2.604.84-.725-1.197-1.488-1.643-.357-1.193 2.897.71 6.23-.638 9.192-.001 1.243.304 2.626 1.404 3.1.097.095.19.426.37.295zm.026-1.148c-.062-.568-.746-.22 0 0zm25.545-2.95c1.355-.468.473-1.48-.28-.128l.006.115.274.013zm-11.976-.766c-.202-.6-.413-.067 0 0zm11.77-.306c.75-.74 1.694-2.172-.04-1.61.165-1.57-1.4.312-2.003.806-.222 1.55 1.124.074 1.84-.193 1.502-.632-.49.683.204.996zm-.664-1.226c.134-.094.134.094 0 0zM12.172 26.88c-1.65-.61.923-1.05-.55-1.4.033-.585 1.97-.9-.23-.906.558-.44 1.103-.83-.19-1.086-.36-.704-1.868-.848-1.762-1.634 1.44.038-.088-1.548-.88-1.736-.408-.656.578-1.003-.753-1.532-1.448-1.77 1.487-2.872 2.22-4.125-1.12-1.265-3.455.557-3.345 1.98-1.127 3.765 2.178 6.577 3.395 9.845.544.415 1.468.656 2.095.584zm-1.277-.496c-1.208-.12-.585-1.806-.05-.495.09.082.4.565.05.495zm24.845-4.75c1.53.09 1.464-1.1.153-.357-.28.01-.5.307-.153.357zm-22.598-.92c1.49-1.167 2.215-2.977 1.073-4.622-.308-.89-1.65-2.238-.74-.664.543.958 1.676 2.834.394 3.46-.557-1.36-.912-2.977-1.84-4.106-.63.94-2.637 1.426-2.476 2.65.998 1.27 1.957 2.802 3.588 3.28zm4.034-4.188c1.392-.66-1.164-.3 0 0zm9.6-1.455c1.564-.997-1.115-.152 0 0zm-2.63-3.1c1.706-.428 2.778-2.428 1.277-3.728-.897-2.112-3.387-2.96-5.235-1.532-1.43.552-2.698 2.664-.868 3.575 1.27 1.3 3.037 1.796 4.826 1.685zm-1.583-1.634c-.834-.382-3.035-1.352-2.232-2.324.842.756 2.297 1.228 2.604 2.313l-.372.01zm1.583 0c-.684-.146-2.284-1.663-1.966-1.61.525-.25-1.32-2.012 1.25-1.506.77.814 3.092 2.6.715 3.115zm-.92-1.086c-.192-.6-.45.3 0 0zm-6.562-.057c-.72-1.117-1.604-3.562-2.068-4.04.404 1.166 1.14 2.64.885 3.626.48-1.048.942.845 1.183.414zm-5.005-.287c1.918.128 2.746-1.6 2.145-3.243C13.15 4.2 12.318 2.302 10.703 1.7c-1.033.107 1.08.874 1.215 1.692.8 1.31 2.052 3.3 1.174 4.673-1.158.274-2.25.02-2.35-1.25-.867-1.06-1.507-2.508-2.5-3.294-1.75 1.383.86 3.046 1.468 4.443.496.587 1.12 1.115 1.94.945zm-1.02-1.38c-1.137-1.237.655-.454 0 0zm.05-2.145c-.55-1.137-.318-.22 0 0zm3.78-.638c-.32-.748-1.076-1.654-.41-.42.09.036.35.55.41.42z"/></svg>