<svg xmlns="http://www.w3.org/2000/svg" width="444.325" height="806.374" viewBox="0 0 117.561 213.353"><path fill="currentColor" d="M54.873.036L50.038.15 47.48.35l-7.236.393c-.058 0-.115.001-.166.035l-5.745.675-2.066.3-5.57.71c-.154.035-.297.128-.452.173l-2.64.675-3.404.927-10.2 3.955c-1.03.42-1.98 1.063-2.9 1.702s-1.75 1.415-2.635 2.112l-2.553 1.966C.277 15.372.348 15.388.278 17.556.21 19.696.595 21.86.02 23.982c-.058.192.035.42.045.634l.214 2.56v5.328c-.035.78.234 1.346.875 1.766.224.147.417.368.657.47 1.26.527 1.46 1.515 1.415 2.753-.058 1.44-.067 2.89.275 4.325.446 1.877.866 3.765.786 5.72 0 .313.102.63.16.945.447 2.55 1.338 4.96 2.277 7.36 1.14 2.9 2.58 5.663 4.243 8.303 1.467 2.33 3.284 4.35 5.28 6.238l4.137 4.284c.115.115.19.26.294.382l1.262 1.46 8.05 7.682c.35.33.735.63 1.115.926l7.224 5.675 4.953 4.372c1.166 1.11 2.192 2.354 2.553 4.014.144.672.224 1.474.64 1.948 1.13 1.295 1.116 2.85 1.31 4.378.08.657-.058 1.28-.406 1.854l-2.6 4.254c-2.196 2.917-4.522 5.734-6.79 8.597-.23.29-.454.594-.663.904-.067.112-.753 1.24-.833 1.29-.55.344-1.042.713-1.232 1.402-.08.275-.36.5-.58.716l-3 2.893c-.423.412-.77.9-1.22 1.286-2.487 2.074-4.54 4.57-6.7 6.948-2.126 2.338-4.05 4.864-6.05 7.318-.118.14-.134.365-.192.558.1.035.198.035.246.1.115.134.182.3.27.458-.144.045-.313.154-.428.115-.166-.058-.304-.202-.452-.317 0 0-.035 0-.035-.035l.035.045c-.294.364-.617.712-.88 1.097-.484.71-.886 1.48-1.408 2.16-1.578 2.052-2.832 4.307-4.143 6.526l-2.394 4.002c-.6 1.072-1.256 2.142-1.696 3.286-.575 1.494-.965 3.06-1.432 4.595-.08.256-.205.507-.227.77l-.68 7.206c-.1.95-.377 1.947-.182 2.835.22.985-.035 1.932.134 2.875.173 1.06-.163 1.888-.915 2.61-.348.333-.64.725-.94 1.103-.163.205-.37.43-.41.67-.157.947-.388 1.913-.34 2.858.115 2.09-.368 4.162-.08 6.25.035.147-.102.307-.115.463-.035.477-.067.96-.045 1.438.045.908.1 1.82.227 2.717.1.568.243 1.17.54 1.65.867 1.393 2.035 2.488 3.532 3.2 2.706 1.304 5.428 2.557 8.245 3.61 1.356.506 2.664 1.185 4.05 1.58 2.615.742 5.27 1.338 7.91 1.99.395.102.61.045.447-.47-.045-.163.134-.52.3-.616.304-.17.48.102.552.382.118.475.214.955.793 1.098l3.738.92c.608.14 1.173.157 1.41-.628.08-.272.397-.224.458 0 .102.397.214.635.693.71 2.324.37 4.593 1.052 6.96 1.21 1.12.08 2.232.297 3.35.423 1.65.186 3.297.424 4.953.493 2.786.118 5.576-.001 8.368.294 2.293.227 4.637.208 6.936 0 4.005-.343 8.04.035 12.03-.587 1.478-.23 2.99-.195 4.477-.387l8.597-1.232c1.268-.182 2.546-.332 3.802-.575.836-.163 1.644-.463 2.465-.704 2.36-.696 4.76-1.286 6.954-2.453.28-.15.576-.28.88-.382 2.96-.957 5.83-2.14 8.55-3.644.78-.432 1.617-.964 2.107-1.672.593-.857.954-1.89 1.04-3.005.102-1.384 0-2.76 0-4.137.002-1.446.138-2.89.173-4.337.058-2.52.214-5.063-1.402-7.265-.317-.432-.575-.912-.828-1.385-.224-.426-.498-.848-.593-1.31-.275-1.362-.48-2.745-.698-4.12l-.986-6.338c-.08-.53-.21-1.053-.266-1.585-.13-1.278-.176-2.568-.363-3.838-.562-3.8-1.803-7.373-3.492-10.822-.79-1.613-1.867-3.022-2.87-4.477-1.4-2.032-2.667-4.156-4.354-5.986-.686-.744-1.254-1.6-1.902-2.382-.82-.993-1.652-1.98-2.51-2.94-.57-.637-1.275-1.168-1.8-1.843-1.37-1.797-2.916-3.42-4.537-4.988-.733-.708-1.365-1.526-2.106-2.224l-5.693-5.235c-1.422-1.307-2.802-2.67-4.272-3.92-2-1.708-3.97-3.465-5.223-5.8a13.79 13.79 0 0 1-1.549-5.023c-.067-.58-.182-1.162-.317-1.73-.17-.72-.464-1.387.154-2.1.227-.27.176-.827.166-1.25-.035-.88 0-1.7.774-2.336.294-.246.447-.73.545-1.138.452-1.897 1.684-3.26 3.187-4.313 1.648-1.154 2.98-2.628 4.4-3.997 1.97-1.898 3.714-4.03 5.622-5.997s3.83-3.906 5.933-5.68c1.847-1.557 3.53-3.316 5.23-5.04 1.546-1.57 3.018-3.2 4.518-4.823 1.754-1.888 3.664-3.63 5.14-5.77.73-1.057 1.5-2.1 2.277-3.116 1.432-1.897 2.532-3.983 3.374-6.185.92-2.4 1.782-4.833 2.477-7.306.826-2.938 1.495-5.93 1.338-9.025a36.05 36.05 0 0 0-.134-1.438l-.417-3.838c-.102-.79 0-1.464.64-2.036.438-.385.756-.905 1.138-1.356.468-.552.714-1.165.733-1.9.035-.9.118-1.796.182-2.693.035-.534.122-1.07.102-1.602-.045-1.393-.134-2.786-.198-4.178-.035-.537-.035-1.078-.058-1.613l-.275-3.686c-.035-.43.08-.89-.035-1.29-.266-1.002-.115-2.168-1.168-2.88-.753-.512-1.44-1.117-2.16-1.678-1.496-1.166-3.214-1.918-4.918-2.723-1.61-.762-3.293-1.313-4.976-1.772-1.894-.517-3.854-.813-5.75-1.373-.86-.256-1.786-.288-2.688-.393-.64-.08-1.292-.067-1.93-.154-2.127-.278-4.24-.664-6.373-.85-3.26-.285-6.528-.445-9.794-.64-.857-.058-1.724 0-2.582-.058L66.63.1c-1.23-.067-2.47.035-3.703 0L54.86 0zM62.35 3.2v.045l5.68.115c2.458.035 4.914.317 7.37.487.058 0 .122.035.166 0 2.307-.488 4.585.3 6.895.16 1.375-.08 2.767.19 4.155.3l4.002.317c1.065.102 2.13.227 3.18.428 2.473.47 4.955.922 7.4 1.52 1.384.338 2.835.62 3.997 1.58.08.067.19.17.275.16 1.254-.128 2.054.828 3.07 1.267 1.384.6 2.268 1.772 3.234 2.852.035.035.067.1.067.14v.452c-.18 0-.435.058-.534-.035-1.014-.966-2.04-1.906-3.31-2.547-2.305-1.166-4.72-2.055-7.224-2.653-2.34-.56-4.713-.98-7.072-1.455-.21-.045-.42-.08-.634-.08-2.958 0-5.88-.54-8.826-.675l-11.244-.405c-3.113-.112-6.23-.1-9.33-.358-3.444-.297-6.885-.15-10.323-.154-1.868-.001-3.735.3-5.604.452-.59.045-1.184.035-1.772.08l-4.806.458c-1.8.17-3.614.24-5.4.51-2.274.344-4.587.288-6.843.875-1.543.4-3.185.414-4.735.793-2.652.647-5.25 1.526-7.905 2.153-1.96.464-3.7 1.402-5.522 2.166-.482.202-.924.547-1.32.897a126.2 126.2 0 0 0-3.427 3.152c-.344.328-.684.71-.88 1.132-.916 1.978-.85 2.3.787 3.48 2.07 1.48 4.336 2.525 6.654 3.503.294.125.598.23.88.382.13.067.275.21.322.346.102.288-.72.8.234.9.366.035.72.157 1.08.24.045 0 .1.035.14.045-.058-.125-.128-.253-.134-.37 0-.045 0-.08.035-.122.035-.058.08-.115.182-.154.138-.058.35.102.534.16v.035c-.058.138-.08.327-.176.4-.1.067-.246.058-.382.058.26.134.51.29.78.387.237.08.503.08.756.112-.1-.205-.214-.407-.28-.622-.102-.33.1-.54.41-.476.662.134.827.328.8 1.068 0 .234-.045.39.24.458.924.224 1.762.75 2.764.722.365 0 .753.102 1.09.253.205.1.42.33.47.54.067.297-.163.464-.476.498-.262.035-.527.067-.78.14a.39.39 0 0 0-.198.234.31.31 0 0 0 .154.224c.606.202 1.23.362 1.825.587.214.08.375.3.558.47-.17.1-.324.234-.504.27-.575.115-1.16.18-1.737.275-.1.035-.18.08-.27.128.08.067.14.173.227.198l2.47.698c.304.1.63.157.89.322.192.122.388.376.417.593.045.336-.26.39-.546.423-1.226.147-2.413.125-3.656-.14-.9-.192-1.838-.3-2.746-.534l-2-.534c-.253-.067-.505-.17-.763-.192-.14-.035-.29.08-.44.134.067.14.1.348.198.417.32.195.653.384 1 .487l3.55.974c.92.262 1.835.556 2.74.863.115.035.243.243.224.34-.035.115-.205.272-.317.266-.47-.035-.94-.102-1.408-.16l-1.098-.125c-.045 0-.128.045-.128.08.001.067.035.195.058.205.93.246 1.856.522 2.8.704 1.463.28 2.94.508 4.413.74.58.1 1.163.182 1.75.192 1.982.045 3.943.356 5.91.563 1.6.17 3.202.297 4.807.41 1.976.14 3.977-.275 5.932.294.85-.324 1.696 0 2.54.035l12.406.035h2.582c.602 0 1.2.002 1.332-.82.058-.372.42-.423.757-.463l9.395-1.156c.214-.035.438-.067.64-.035.237.058.584.144.652.3.17.412-.17.535-.517.598-.1.035-.166.102-.246.154.058.058.128.16.186.16.86-.035 1.72-.035 2.576-.1a60.45 60.45 0 0 0 3.04-.294c.636-.08 1.27-.195 1.9-.3 2.73-.496 5.5-.812 8.18-1.543.647-.176 1.388-.035 2.083 0 .058.001.154.138.154.21.001.1-.058.234-.128.266-.343.147-.688.313-1.05.387l-7.406 1.46c-2.112.36-4.246.588-6.373.85l-4.636.51c-.64.067-1.282.227-1.92.224-1.778-.035-3.5.377-5.252.57-.534.058-1.072.058-1.608.102l-2.4.205c-.376.035-.78.18-1.12.1-1.173-.307-2.32.045-3.48.035-1.184 0-2.373.035-3.556-.035-1.66-.067-3.316-.205-4.976-.288-1.235-.067-2.473-.1-3.71-.128l-7.4-.227c-.956-.045-1.904-.297-2.858-.3-2.736-.035-5.437-.472-8.157-.674-1.052-.08-2.084-.386-3.122-.617-2.908-.642-5.868-1.09-8.65-2.224-.102-.035-.224-.14-.304-.118-.993.322-1.84-.28-2.753-.382-.623-.067-.952-.373-1.356-.71-.275-.227-.58-.468-.915-.563-.554-.16-1.176-.1-1.56-.67-.067-.112-.304-.192-.428-.166-1.393.348-1.96-.823-2.506-1.602-.552-.786-1.098-1.565-1.72-2.3-.28-.335-.48-.732.045-1.098.147-.102.288-.342.28-.51-.035-.847.157-1.704-.246-2.535-.25-.514-.48-1.075-.125-1.7.115-.195 0-.524 0-.787-.002-.058-.035-.102-.058-.147-.412-.647.424-1.087.294-1.643s-.63-1.1-.58-1.614c.067-.698-.1-1.505.57-2.118.266-.246.157-.88.41-1.156 1.048-1.13 2.096-2.282 3.286-3.25 1.974-1.606 4.304-2.634 6.672-3.503 1.903-.7 3.858-1.27 5.82-1.778 1.648-.426 3.315-.82 5.04-.85.475 0 .945-.195 1.42-.275l3.96-.652 2.05-.322 6.672-.892c1.433-.176 2.88-.29 4.32-.393l8.186-.534c1.713-.1 3.43-.13 5.147-.192 1.894-.067 3.787-.058 5.68-.035zM51.687 5.986c.285.1.643.067.856.294.067.067.125.17.16.304.035.176 0 .297-.163.387-.154.1-.406.144-.774.16l-2.9.115c-.08 0-.144.1-.214.14.045.058.08.128.128.176.035.035.035.058.045.058.304.058.594.138.892.198s.604.1.95.035c1.1-.18 2.247-.1 3.374-.058.058 0 .122.058.182.08.058.035.102.035.147.067.112.08.202.192.24.294.144.384-.166.578-.493.675-1.063.3-2.14.246-3.216.102h-.134c-.294-.045-.604-.035-.904 0-.08 0-.13.128-.198.205.067.058.118.144.176.147.97 0 1.938-.035 2.905.035.52.035 1.04.195 1.55.335.115.035.253.224.246.334a.4.4 0 0 1-.288.294l-5.328.102c-.354 0-.522-.035-.64-.176s-.186-.408-.317-.886c-.045-.154-.22-.36-.358-.382-.523-.08-1.065-.157-1.6-.115-1.914.14-3.828.29-5.734.51-2.703.3-5.452.307-8.075 1.22-1.003.35-2.068.546-3.122.7-1.76.275-3.385.974-5.076 1.46-.617.176-1.222.4-1.85.528-.218.045-.575-.067-.704-.24-.067-.1-.112-.23-.118-.376 0-.134 0-.27.058-.376.002 0-.002-.035 0-.035.25-.63.767-1.018 1.397-1.24 2.028-.71 4.083-1.234 6.262-1.326 1.486-.067 2.968-.403 4.436-.693 1.41-.278 2.817-.497 4.255-.604 1.543-.115 3.075-.377 4.612-.575.214-.035.457-.154.634-.1 1.248.435 2.53-.376 3.773.125.08.035.246-.13.376-.214-.1-.08-.18-.17-.288-.218-.68-.325-1.36.001-2.042.035-1.4.035-2.762.045-4.16.26-1.354.21-2.765.157-4.15.363-1.948.294-3.913.478-5.868.728-2.016.26-3.993.703-5.957 1.22a16.15 16.15 0 0 0-1.531.476c-2.106.773-4.176 1.67-6.42 2.007-.45.067-.876.154-1.08-.376v-.035c-.08-.227-.102-.473-.035-.687a.89.89 0 0 1 .469-.558c.198-.102.415-.154.617-.246.327-.15.66-.275.998-.393.208-.067.4-.186.61-.24 1.55-.396 3.12-.777 4.7-1.015 1.907-.288 3.742-.947 5.633-1.168 2.868-.334 5.676-1.053 8.59-1.11 3.053-.058 6.098-.382 9.15-.587h.645c.002 0 0 .035 0 .045.001 0 0 .035 0 .035l4.337-.21c.102 0 .218-.067.3-.045zm-5.393 3.286c.16.003.33.035.476.058.237.045.45.227.675.352-.08.13-.13.28-.205.423-.067.14-.15.265-.266.328-.357.205-.8.307-1.215.346l-4.466.352c-.577.058-1.143.253-1.708.41-1.65.46-3.348.654-5.04.87-1.653.208-3.235.686-4.8 1.244-.8.28-1.624.514-2.236.704-.386-.035-.545-.035-.704-.058-.202-.035-.39-.102-.534-.21s-.243-.26-.246-.463c-.003-.262.224-.673.452-.77l1.555-.634a11.11 11.11 0 0 1 1.59-.487c.994-.214 2.006-.36 3.01-.528l3.005-.522 2.764-.452 2.758-.447c.898-.122 1.827-.125 2.734-.067.357.035.702.045 1.034 0s.653-.15.967-.37c.102-.067.256-.1.41-.1zm8.028 1.432a.89.89 0 0 1 .593.134.73.73 0 0 1 .234.546c-.035.18-.18.42-.34.493-.23.102-.522.1-.786.118-.138.035-.27.035-.352.102s-.115.176-.058.376c.035.13.067.265.134.363s.17.166.346.173c.535 0 1.074-.035 1.596.067.173.035.326.147.493.227s.344.128.493.227c.134.1.166.27.125.428-.035.157-.147.3-.3.334-.313.067-.646.035-.95.128-.24.067-.442.256-.663.387.214.058.423.14.64.176.208.035.456-.035.628.045.21.115.465.322.493.522 0 .1-.035.208-.112.317-.035.058-.1.1-.14.134-.045.045-.1.102-.134.122a3.97 3.97 0 0 1-1.209.358c-.326.045-.56-.035-.733-.198s-.285-.406-.352-.693l-2.987-.067c-.423 0-.703-.246-.833-.64-.18-.54-.544-.58-1.02-.446-1.444.406-2.88.843-4.342 1.174-.773.176-1.6.19-2.39.205-.102 0-.243-.067-.363-.147s-.218-.176-.234-.266c-.035-.134 0-.297.045-.452s.112-.294.205-.387c.25-.253.628-.404.974-.528.553-.198 1.142-.3 1.7-.51.557-.214 1.085-.5 1.626-.756-.64-.001-1.304-.125-1.92 0-1.726.335-3.435.76-5.147 1.168l-3.262.82c-.357.08-.766.157-1.103.058-.243-.067-.5-.39-.575-.652-.035-.1 0-.214.067-.34a1.17 1.17 0 0 1 .234-.322c.182-.176.472-.266.728-.33 1.805-.46 3.558-1.123 5.422-1.338.372-.045.76-.102 1.127-.058 1.622.17 3.194-.256 4.79-.393.576-.045 1.117-.208 1.72-.08.402.08.848-.035 1.273-.08l4.624-.504zm-40.004 1.984v.035c.62.067 1.23.262 1.837.522.278.122.57.243.87.3 1.02.186 1.36.727 1.02 1.667l-.517 1.502c-.304.923.067 1.545.78 2.165 1.5 1.293 3.054 2.433 5.023 2.805.633.122 1.203.834 1.943.275.035-.035.214.045.253.118.563 1.014 1.677.846 2.547 1.104 1.367.405 2.72.912 4.207.91.702-.001 1.45.343 2.095.687 1.543.824 3.228.637 4.853.745 1.927.128 3.87-.035 5.804.045 1.552.058 3.102.26 4.648.435.227.035.6.25.6.4.035.275-.102.697-.3.815-.5.285-1.066.51-1.63.617-1.582.3-3.182.47-4.8.393-.447-.035-.9.08-1.35.134.423.035.85.1 1.273.1l10.962.154c3.384.001 6.77-.1 10.152-.154.182 0 .36-.08.54-.128-.205-.045-.41-.125-.615-.134l-6.203-.363c-.16 0-.382 0-.458-.08-.15-.18-.285-.427-.294-.652 0-.122.262-.367.406-.363 2.244.035 4.5.134 6.73.1 1.38-.035 2.754-.29 4.13-.458.21-.035.418-.115.628-.154.384-.067.77-.118 1.156-.176l-1.28-.102c-.32-.035-.65-.067-.962-.035-3.105.5-6.205-.214-9.307-.058-.366.035-.746.058-1.097 0-.348-.067-.69-.24-.99-.434-.208-.13-.067-.604.166-.67a.95.95 0 0 1 .31-.058c1.548-.035 3.1-.08 4.648-.045.955.035 1.904.224 2.858.227.904 0 1.808-.134 2.71-.205.16 0 .32-.035.48-.035 2.625-.035 5.214-.3 7.787-.863.922-.198 1.92-.115 2.84-.434.102-.035.173-.15.26-.234h.035l.035-.035c-1.023-.035-2.022.115-3.028.317-1.042.214-2.124.24-3.187.358l-3.498.4c-.74.08-1.483.23-2.224.234-1.988 0-3.983 0-5.968-.102-1.17-.058-2.33-.3-3.498-.44-.585-.067-1.177-.067-1.766-.1-.173 0-.344 0-.487-.067-.144-.058-.256-.154-.3-.34-.045-.208 0-.34.128-.435.115-.1.278-.15.434-.198.122-.035.198-.08.24-.125s.058-.1.045-.134c-.035-.1-.138-.176-.26-.234-.34-.16-.84-.237-.698-.704.045-.16.118-.246.198-.294s.17-.058.266-.045c.195.035.42.128.617.16.525.08 1.055.13 1.584.134 2.365 0 4.733.067 7.095-.035 1.705-.067 3.4-.368 5.106-.493 1.948-.14 3.758-.793 5.604-1.338 1.01-.297 2.09-.362 3.145-.498l-.035.035c.045 0 .08.035.115.035.154 0 .3 0 .435.058a.61.61 0 0 1 .322.446c.1.415-.1.745-.476.927-.478.23-.972.416-1.455.64-.294.134-.58.3-.87.452.297-.045.592-.112.892-.128 1.906-.125 3.63-.86 5.375-1.55.432-.173.936-.19 1.408-.205a.66.66 0 0 1 .498.205c.125.134.205.317.24.517.067.374-.195.577-.522.7l-1.65.616-3.86 1.28c2.422-.035 4.685-.66 6.907-1.596 1.03-.432 2.158-.635 3.24-.945.432-.125.762.035.915.423.157.406-.035.748-.404.94-1.294.638-2.566 1.304-4.002 1.625-1.1.243-2.126.714-3.2.998-.82.214-1.68.29-2.517.44-.115.035-.224.122-.335.182.102.035.208.058.3.058.484 0 .984.067 1.45-.035 3.616-.726 7.272-1.332 10.522-3.245.773-.455 1.61-.563 2.488-.476.403.035.738.173.804.634.058.412-.08.745-.452.945-.282.15-.575.297-.875.41-3.05 1.148-6.073 2.396-9.348 2.787-.9.115-1.803.208-2.706.294l-5.446.517c-.32.035-.634.134-.95.125-1.726-.058-3.385.395-5.076.61-.69.1-1.393.08-2.09.118-.102 0-.195.067-.294.112.1.035.18.102.27.102.592 0 1.206.115 1.772 0 1.755-.367 3.53-.202 5.293-.317 2.403-.16 4.8-.42 7.2-.61 2.134-.17 4.16-.863 6.238-1.29 1.52-.313 3.022-.698 4.536-1.04 2.556-.573 5.016-1.468 7.506-2.26.205-.067.398-.157.604-.192.272-.045.662-.387.763.147.035.157-.253.48-.452.552-3.068 1.1-6.095 2.317-9.325 2.934-1.82.348-3.633.772-5.416 1.35-1.345.435-2.73.932-4.23.815-.727-.058-1.484.166-2.218.3-2.535.494-5.116.488-7.67.756a55.58 55.58 0 0 1-5.786.31c-.102 0-.224.035-.317.067-.1.045-.218.166-.205.205.045.102.157.266.24.266l3.392-.035h5.762c.27.002.55.003.793.08.157.058.343.288.346.447s-.173.443-.3.476c-.784.173-1.58.32-2.377.4-.64.067-1.29.001-1.937.035-1.338.035-2.66.045-4.002.253-1.9.29-3.85.262-5.774.393-.905.058-1.805.202-2.71.253-.966.058-1.937.035-2.905.058-.36 0-.703-.128-.734-.476-.035-.278.115-.684.317-.85.367-.294.848-.435 1.267-.67.122-.067.19-.227.28-.346-.115-.08-.23-.21-.346-.21l-4.683-.035c-2.58-.035-5.178.08-7.74-.154-2.614-.24-5.256-.035-7.852-.604-.86-.186-1.805.045-2.705 0-.795-.035-1.583-.195-2.377-.288-.21-.035-.424-.035-.634-.035-1.815.128-3.593-.243-5.382-.434a63.65 63.65 0 0 1-1.737-.227l-2.37-.37c-.14-.035-.294-.14-.387-.26s-.18-.294-.16-.428c0-.1.218-.176.346-.214.1-.035.21-.035.317 0 .74.1 1.482.18 2.218.3 1.104.176 2.202.408 3.31.545.743.1 1.496.08 2.247.1 1.4.035 2.788-.112 4.155.304.21.067.48-.058.72-.102-.227-.134-.45-.272-.687-.4-.1-.045-.21-.1-.3-.08-1.67.058-3.27-.4-4.894-.675-1.158-.195-2.31-.414-3.45-.698-3.53-.882-7.1-1.62-10.534-2.858-.65-.234-1.36-.3-2.007-.546-1.396-.528-2.818-1.03-4.13-1.725-.664-.35-1.227-1.035-1.643-1.7-.598-.94-.502-1.93.224-2.84 1.682-2.108 2.05-2.403 4.67-3.51.638-.27 1.27-.334 1.9-.27zM61.4 15.34c.26-.045.49-.001.67.102a.66.66 0 0 1 .334.469c.035.24.08.486.035.7-.035.112-.058.214-.128.3-.067.1-.166.182-.3.253-.394.202-.82.353-1.233.522h.067c1.138.154 2.238.035 3.35-.3.717-.205 1.433-.432 2.16-.6s1.457-.307 2.212-.317c.214 0 .488.14.622.304.067.1-.067.395-.176.563-.214.333-.514.545-.84.728s-.673.333-.986.534c-.115.067-.176.23-.26.352.157.035.326.1.47.045l4.184-1.097c.307-.08.643-.182.933-.118a1.44 1.44 0 0 1 .428.192c.13.1.243.202.28.317s.035.272-.035.428a1.3 1.3 0 0 1-.214.411c-.19.23-.514.382-.8.48-1.78.593-3.574 1.125-5.475 1.132h-3.35l-5.123.058c-.208.002-.42-.002-.622-.045-.3-.067-.47-.288-.387-.58.045-.166.23-.378.382-.41.474-.08.96-.08 1.444-.1.43 0 .86 0 1.29-.035.045-.002.1-.035.14-.058.035-.035.067-.035.102-.045-.035 0-.08-.035-.112-.045-.058-.035-.115-.067-.173-.067-.376-.035-.757 0-1.132-.035-.843-.035-1.7.035-2.207-.898-.122-.224-.556-.275-.85-.404-.243-.102-.512-.17-.717-.322-.147-.115-.294-.35-.28-.516.035-.163.24-.365.417-.435.344-.134.723-.182 1.08-.294.662-.205 1.306-.47 1.977-.64.93-.237 1.872-.428 2.817-.593zm-7.423.227c.001 0 0 0 0 .035 0 0 0 0 .035 0zm58.167.898c.058 0 .1.128.14.224.035.058.1.1.102.14.045.317.002.64.045.956.1.74.16 1.478.182 2.218.035.744 0 1.49-.058 2.242-.067.735.08 1.488.134 2.236.035.52 0 1.027-.118 1.514a5.44 5.44 0 0 1-.552 1.415c-.224.397-.633.843-1.045.956-2.025.56-3.8 1.682-5.734 2.447-2.55 1-5.137 1.845-7.817 2.406-.52.115-1.06.163-1.532.234-.334-.035-.615 0-.856-.1-.154-.058-.34-.28-.34-.435-.003-.163.17-.432.3-.47.98-.262 1.974-.445 2.952-.71 1.186-.32 2.366-.674 3.533-1.056.234-.08.4-.348.617-.504.058-.045.122-.1.182-.14.157-.125.317-.24.48-.246.614-.035 1.183-.21 1.743-.417.134-.045.275-.1.41-.14l1.04-.404c.35-.125.705-.237 1.074-.304.23-.035.583-.1.85-.205s.45-.278.352-.552c-.246-.685-.982-.157-1.508.035-.706.243-1.387.465-2.19.387-.33-.035-.677 0-1.02.08-.344.067-.686.18-1.015.28-1.023.317-2.02.73-3.028 1.09a4.24 4.24 0 0 1-.769.198c-.683.112-1.366.218-2.054.294-.266.035-.6.115-.804-.045-.067-.058-.13-.128-.173-.246-.154-.454.182-.66.582-.793.863-.29 1.7-.685 2.582-.898 1.418-.34 2.784-.802 4.102-1.414.23-.112.475-.182.704-.304.704-.372 1.486-.6 2.23-.898.25-.102.512-.19.74-.33.15-.1.34-.192.463-.317s.18-.28.058-.504c-.115-.205-.543-.337-.822-.322-.035 0-.08.035-.112.035-.14.035-.28.045-.423.1a1.92 1.92 0 0 0-.481.253c-.376.285-.77.505-1.185.67a5.02 5.02 0 0 1-1.326.317c-.42.045-.86.134-1.233.322-.46.234-.914.446-1.39.598s-.974.25-1.514.234c-.227 0-.455.058-.687.147-.23.08-.465.19-.698.253-.304.08-.62.166-.927.154-.163 0-.4-.19-.446-.334-.035-.144.125-.445.265-.498.898-.345 1.797-.717 2.73-.94s1.813-.547 2.67-.927 1.687-.813 2.517-1.244c1.856-.964 3.648-2.06 5.475-3.08.198-.112.345-.25.417-.405s.067-.332-.045-.51a.88.88 0 0 1-.134-.334c-.035-.198.08-.353.214-.504.067-.08.102-.147.186-.227.5-.47.915-1.034 1.397-1.526.112-.115.37-.157.546-.128zm-51.418 1.262l-.035.035s.035 0 .045-.035h.035c0-.001-.035.002-.045 0zm47.72 1.42c.102-.045.28.08.428.115-.058.138-.067.33-.166.4-1.53 1.072-3.166 1.933-4.947 2.51l-.434.128c-.125-.045-.266-.058-.304-.128s0-.202.045-.288.115-.192.205-.234l5.17-2.51zM71.28 22.105c-.428-.001-.855 0-1.273.08-1.774.285-3.528.68-5.164.575H62.58c-.13.002-.256.08-.387.125.15.035.297.1.446.1 1.23 0 2.467.067 3.69-.035 2.06-.154 4.114-.404 6.168-.622.125 0 .237-.1.352-.147-.1-.035-.182-.058-.275-.058-.427 0-.862-.035-1.29-.035zm6.89 2.952l-4.3.37c-.317.035-.623.138-.933.224-.1.035-.182.1-.275.134.102.035.202.045.3.045h1.29c.002.035 0 .058 0 .08l4-.452c.058 0 .173-.17.154-.227-.035-.08-.16-.186-.234-.182zm-66.57.94c-.058-.035-.163.08-.246.125.147.125.275.28.446.352.125.045.3-.035.604-.058-.35-.19-.57-.324-.804-.423zm7.47.24c.202.08.37.24.67.452-.278.182-.532.387-.563.358-.17-.154-.294-.36-.393-.57 0-.035.224-.243.288-.227zm1.338.33c.224-.058.42-.035.57.067.147.1.25.262.275.487-.067.08-.14.24-.26.288-.346.125-.77-.147-.82-.528 0-.08.102-.173.186-.24.035-.035.035-.067.058-.067zm74.54.198c.102.157.29.3.288.463-.001.128-.214.26-.4.452l-.417-.522.528-.4zm-81.006.122c-.067-.035-.173.1-.256.14.067.08.125.19.21.224l2.758 1.074c.208.045.426.15.622.125.29-.045.596.542.863-.035-.288-.08-.575-.198-.87-.227-.198-.035-.41.08-.616.122 0-.102 0-.25-.045-.28a10.99 10.99 0 0 0-2.664-1.138zm5.48 1.866c-.17.115-.25.154-.33.198.205.125.41.25.622.352.035 0 .125-.112.186-.173l-.476-.387zm-1.66 1.485c-.067-.045-.208-.002-.3.035-.045 0-.112.058-.125.102-.035.1-.045.27-.035.275.75.275 1.5.547 2.26.786.112.035.278-.1.463-.16-.125-.154-.198-.35-.317-.382-.66-.176-1.366-.202-1.943-.645zm-4.577 1.485c-.266.035-.376.035-.476.067-.122.035-.23.1-.346.134.1.058.18.102.272.154.1.058.18.144.275.154.29.035.588 0 .88 0l.035-.128c-.243-.157-.49-.304-.628-.387zm96.77.604c.24.035.467.18.734.47 1.112 1.2 1.662 2.598 1.297 4.26-.067.3-.214.614-.198.922.1 2.288-.692 4.436-1.026 6.654-.035.157-.122.3-.176.452l-3.885 10.715c-.1.253-.18.51-.294.75-.454.968-.864 1.96-1.39 2.887-1.346 2.37-2.435 4.912-4.254 6.99-1.058 1.21-2.19 2.352-3.316 3.503l-3.885 3.88c-1.037 1.003-2.11 1.97-3.186 2.93a6.86 6.86 0 0 1-1.168.839c-.13.08-.462 0-.563-.102-.102-.118-.067-.387-.035-.575.035-.14.192-.26.294-.382l4.935-5.945 1.31-1.62c.17-.205.307-.455.5-.622 2.112-1.724 3.35-4.175 5.153-6.156.202-.224.27-.568.405-.85.163-.34.294-.697.504-1.004 1.095-1.596 1.9-3.34 2.664-5.105 1.15-2.653 1.983-5.405 2.723-8.204.586-2.213.528-4.45.798-6.66.115-1.237-.112-2.357-.95-3.316a1.38 1.38 0 0 1-.253-1.508c.493-1.232 1.283-2.235 2.418-2.928.337-.205.59-.3.833-.27zm-37.728.08v.035c.16-.001.348-.035.476.035.166.1.372.25.387.4.001.035-.035.035-.035.058 0 .13-.1.275-.205.387-.035.035-.035.067-.045.08-.154.125-.39.176-.598.21l-4.436.745c-.21.035-.433.045-.64.1-.346.1-.685.21-1.026.317.37.045.738.1 1.11.115.32.035.646 0 .97 0 0 0 0 0 0 .035s0 .035 0 .058l6.714-.552c.578-.045 1.174.035 1.743.128.045 0 .102.08.147.128.035.035.067.035.1.08.08.115.15.256.182.376.035.1-.275.375-.434.382-1.71.08-3.36.56-5.058.757-3.23.38-6.497.52-9.665 1.414-1.002.28-2.137.102-3.2.128-.102.002-.24-.001-.3-.058-.253-.22-.488-.454-.728-.687-.045-.045-.1-.1-.14-.134l-.035-.035c.246-.253.452-.593.75-.733.57-.27 1.198-.424 1.802-.622l.417-.128a3.28 3.28 0 0 0-.352-.08c-.583-.08-1.172-.115-1.743-.24a.99.99 0 0 1-.358-.211c-.102-.1-.19-.202-.192-.288 0-.27.122-.682.328-.798.55-.313 1.162-.524 1.766-.72.243-.08.545.035.804-.035.672-.14 1.342-.475 2-.447.65.035 1.258.058 1.9-.1.045 0 .102.003.154 0 .376-.067.77-.058 1.162-.045h.275l5.974-.035zm29.964.28l.346.463c-.115.08-.243.227-.33.205-.14-.035-.253-.192-.376-.3.1-.102.186-.198.352-.376zM5.873 34.357c.243.035.522.115.834.253.517.234.942.522 1.296.857a4.53 4.53 0 0 1 .863 1.127c.1.17.14.366.214.545.115.266.24.517.322.804.138.485.243.998.33 1.532-.253.902-.48 1.88-.804 2.83-.163.47-.662.55-1.09.446-.448-.112-.877-.262-1.226-.51-.176-.125-.332-.275-.464-.457a2.08 2.08 0 0 1-.322-.646c-.058-.205-.112-.4-.205-.57s-.243-.32-.476-.434c-.128-.067-.227-.154-.317-.253-.275-.313-.358-.76-.173-1.115.354-.67.198-1.233 0-1.843 0-.045 0-.08-.035-.125 0-.035.002-.058 0-.1-.1-.322-.14-.685-.1-1 .173-.996.612-1.42 1.343-1.332zm9.184.14c-.067.002-.125.15-.218.278.157.045.304.122.428.1.08 0 .138-.17.205-.266-.138-.035-.278-.118-.417-.102zm79.74.173h.035c.058 0 .173.224.435.587-.182.08-.382.234-.575.234-.294.003-.585-.1-.875-.166-.035 0-.035-.256.035-.275.32-.147.648-.28.986-.376zm-77.68.294c-.202.001-.425.067-.617.045l1.09.4c-.1-.32-.272-.404-.476-.404zm.476.446c0 .035 0 .035.035.035h.013-.035zm.115.035c.067 0 .125.035.186.035.045 0 .1-.058.14-.08-.045 0-.1.035-.147.035s-.122 0-.182.035zm-1.21-.423c-.035 0-.058-.035-.1-.035l.045.035s.035-.002.045 0zm86 1.7v.035a1.85 1.85 0 0 1 1.273.481c.512.45.86.986.845 1.655-.035 1.168.14 2.32-.205 3.504-.278.953-.166 2.018-.3 3.022-.214 1.647-.594 3.245-1.208 4.806-.646 1.637-1.178 3.33-1.66 5.023-.65 2.28-2.064 4.106-3.38 5.997l-.92 1.297c-.1.13-.144.3-.266.4-1.95 1.453-3.203 3.594-5.07 5.14-1.07.886-1.98 1.956-2.963 2.946-.08.08-.16.154-.21.246l-2.858 5.193c-.205.365-.453.75-.78.992-1.2.892-2.462 1.722-3.697 2.582-.66.46-1.332.906-1.966 1.397l-4.425 3.486c-.17.13-.378.237-.5.404-2.004 2.775-4.55 5.152-6.05 8.298-.33.694-.778.914-1.074.634-.46-.437-.035-.83.176-1.138l4.255-6.438 3.098-4.52c.407-.625.628-1.363.992-2.02.912-1.64 1.77-3.316 3.07-4.712a6.19 6.19 0 0 1 2.078-1.485c.884-.388 1.753-.84 2.658-1.168 2.6-.942 4.65-2.577 6.397-4.688 1.06-1.283 2.23-2.472 3.345-3.71.288-.32.57-.648.815-.998 2.1-2.99 4.046-6.054 5.475-9.448.79-1.88 1.53-3.766 2.183-5.692.08-.246.125-.536.08-.786l-.815-3.938c-.112-.607-.415-.978-1-1.103l-2.823-.587c-1.757-.403-3.526-.1-5.258.058-1.712.154-3.423.08-5.123.224-1.976.173-3.942.45-5.915.652-1.44.147-2.886.3-4.33.352l-9.653.27c-1.17.035-2.338.278-3.504.265-1.984-.035-3.967-.176-5.95-.27-.112 0-.214-.035-.322-.035-.535 0-.96-.202-1.086-.763-.08-.37.354-.695 1.045-.763 2.13-.208 4.26-.43 6.408-.334.537.035 1.076 0 1.613 0 1.183 0 2.37.035 3.55-.035.797-.035 1.585-.18 2.383-.246.588-.045 1.182-.045 1.772-.067h.804c3.012.1 5.994-.294 8.98-.604 1.173-.125 2.344-.278 3.52-.328 2.32-.102 4.52-.846 6.8-1.185 2.873-.43 5.61-1.377 8.41-2.078.435-.115.876-.214 1.314-.21zm-88.025 1.714v.035a2.04 2.04 0 0 1 .798.176c2.023.9 4.217 1.186 6.32 1.778 1.32.37 2.762.278 4.143.447 1.54.186 3.088.36 4.607.67 1.793.366 3.61.404 5.416.6l5.1.593c.958.102 1.93.115 2.875.294.782.144 1.543.443 2.288.733.198.08.46.435.417.587-.067.256-.34.486-.575.658-.157.112-.436.198-.598.134-.66-.26-1.317.166-1.866.067-.998-.173-1.988.13-2.958-.125-.157-.045-.313-.112-.463-.1-1.707.224-3.407-.182-5.117-.045-1.062.08-2.132.1-3.187-.272-1.578-.543-3.236-.614-4.894-.652-.908-.035-1.814-.128-2.723-.163-.3 0-.643.035-.933.147-1.46.553-2.97.394-4.42.128-.973-.176-1.577.115-2.083.786-.416.55-.582 1.13-.452 1.925.55 3.356 1.383 6.632 3.05 9.59 1.447 2.564 3.112 5.02 4.865 7.39.72.973 1.653 1.806 2.3 2.864.224.367.496.4.945.234.684-.253.96.1.786.815-.035.102-.144.18-.154.275 0 .144-.035.345.067.428.067.067.343.035.404-.045.384-.493.764-.77 1.274-.154.067.08.176.19.24.176.467-.112.832 0 .64.528-.176.5-.51.045-.78 0-.102-.035-.313.125-.335.227-.035.115.08.32.182.376.125.067.32.003.48 0 .4.035.633.253.387.615-.24.358-.166.494.067.863.764 1.216 1.883 2.03 2.935 2.934.243.21.607.32.774.57.892 1.336 2.313 2.063 3.456 3.104 1.466 1.335 2.842 2.768 4.307 4.102 1.426 1.298 2.92 2.52 4.378 3.785.647.562 1.29 1.13 1.895 1.737.21.21.365.54.4.834.035.214-.138.508-.3.663-.102.1-.442.058-.58-.058-.73-.55-1.427-1.135-2.142-1.702l-2.154-1.7-3.844-3.128c-1.168-.945-2.39-1.824-3.503-2.828-1.546-1.393-3.404-2.39-4.8-3.985-.986-1.123-2.22-2.026-3.263-3.104-1.298-1.34-2.513-2.765-3.762-4.155-.322-.36-.578-.837-.974-1.062-.794-.45-1.11-1.253-1.608-1.913-.34-.452-.394-1.143-1.162-1.18-.08 0-.214-.15-.205-.21.147-1.033-1.023-1.463-1.085-2.412-.035-.237-.214-.524-.41-.675-.665-.51-1.068-1.14-1.332-1.943-.214-.646-1.054-.856-1.285-1.602-.134-.434-.4-.8-.498-1.308-.147-.75-.73-1.368-.85-2.172a7.05 7.05 0 0 0-.44-1.537c-.173-.432-.44-.827-.675-1.232-.157-.272-.458-.53-.47-.804-.045-1.042-.594-1.95-.7-2.964a80.22 80.22 0 0 1-.294-3.034c-.035-.256.102-.52.14-.7-.122-1.204.115-2.296.376-3.386.224-.93.827-1.502 1.584-1.52zm-5.838 8.456c.724-.035 1.15.564 1.414 1.6l.91 3.732c.118.467.195.958.41 1.38 1.687 3.288 3.338 6.596 5.48 9.63.86 1.218 1.615 2.516 2.342 3.82.34.61.897.92 1.414 1.25.6.39 1.092.816 1.397 1.485.176.383.52.685.728 1.056.118.21.118.484.173.728-.23-.045-.517-.035-.68-.154-.628-.494-1.364-.94-1.8-1.585-.77-1.166-2.025-1.845-2.78-3-.376-.578-.892-1.075-1.38-1.573-1.888-1.927-3.46-4.098-4.977-6.314-.5-.745-.892-1.578-1.332-2.37-.058-.1-.1-.205-.173-.27-.344-.29-.822-.504-1.02-.868-.214-.39-.138-.93-.246-1.39-.17-.72-.294-1.485-1.273-1.573-.122 0-.285-.186-.33-.317-.243-.756-.464-1.522-.675-2.288-.1-.346.045-.59.34-.815.352-.27.307-.65.102-1h-.035v-.058l-.476-.675c.08-.045.176-.16.234-.14.49.157.402.478.24.815l.035.035c.1-.112.173-.227.28-.3.678-.522 1.22-.777 1.655-.798zM6.68 47.987s0-.035-.035-.035c0 0-.002.035 0 .035l.035.035c.001 0 0 0 0-.035zM108.82 54.59c.035.147.163.342.102.434-.29.496-.62.973-.963 1.438-.067.1-.266.102-.4.154-.045-.14-.176-.328-.128-.405a24.68 24.68 0 0 1 1.067-1.538c.035-.035.1-.035.154-.045.058 0 .1-.035.154-.035zm-1.56 2.94c.115.192.25.317.24.422 0 .08-.214.227-.288.205-.102-.035-.21-.195-.224-.3 0-.08.14-.176.27-.322zm-.166 1.326l-.035.035v.058h.035l-1.326 2.124c-.058.08-.3.1-.434.045 0-.002 0 .002-.035 0-.067-.035-.138-.28-.1-.363.297-.5.582-1.023.963-1.455.173-.195.558-.205.845-.3 0-.002.035 0 .035 0v-.045h-.035l-.057-.035c0-.002 0 0 .035 0s.058-.035.1-.035zm-.035.08zm-2.236 2.758c.003-.002 0 0 .035 0 0-.035.176.035.265.067.045.035.08.08.1.102-.147.43-.297.86-.47 1.28 0 .035-.195.045-.275 0v-.035c-.035 0-.08-.1-.118-.122-.058-.058-.1-.1-.186-.192l.675-1.15zm-88.647 4.42c.202.035.463.297.5.498.045.176-.19.4-.387.786-.237-.35-.426-.527-.482-.74-.067-.26-.001-.604.352-.546zm85.83 0c.035-.035.33.198.317.227-.1.208-.224.39-.41.68-.16-.243-.322-.396-.294-.463.08-.176.227-.334.387-.447zM30.962 79.674a.42.42 0 0 1 .281.134c.988 1.185 2.445 1.706 3.632 2.588 2.71 2.015 5.808 3.485 8.227 5.903.72.72 1.574 1.3 2.3 2.013 1.506 1.48 2.675 3.215 3.574 5.117.734 1.55 1.385 3.142 2.065 4.718.495 1.147.733 2.34.728 3.597 0 .743.176 1.488.166 2.23-.035.845-.058 1.716-.266 2.53-.35 1.393-.8 2.76-1.28 4.114-.3.853-.662 1.685-1.338 2.36-.37.368-.66.87-.845 1.362-.664 1.75-1.964 3.043-3.093 4.46-.765.962-1.655 1.8-2.277 2.905-.442.78-1.116 1.437-1.72 2.12l-3.762 4.2a2.71 2.71 0 0 1-2.306.915c-.214-.035-.437-.002-.645-.058-1.038-.227-1.47-1.427-.8-2.248.234-.29.503-.57.798-.798 1.365-1.055 2.554-2.273 3.62-3.626.397-.504.89-.933 1.332-1.402 1.548-1.638 3.153-3.232 4.618-4.942.902-1.05 1.593-2.282 2.37-3.44.388-.577.84-1.126 1.12-1.755.587-1.313 1.12-2.657 1.602-4.014.75-2.118.777-4.34.604-6.53-.125-1.584-.455-3.175-1.303-4.59-.4-.685-.79-1.388-1.18-2.083-1.15-2.045-2.812-3.64-4.53-5.188l-3.61-3.204c-.69-.588-1.41-1.158-2.177-1.637-1.508-.943-2.926-1.988-4.237-3.192-.55-.503-1.182-.912-1.755-1.39-.198-.166-.354-.404-.463-.64-.045-.102.035-.324.122-.41s.278-.102.428-.102zm48.748 5.44c.387.115.945.1 1.045.58.067.317-.067.738-.246 1.026-.253.404-.602.753-.95 1.086-.855.817-1.73 1.618-2.606 2.412a34.35 34.35 0 0 0-3.938 4.243c-.43.55-.908 1.057-1.367 1.584-1.716 1.973-3.05 4.144-3.533 6.766-.214 1.155-.492 2.296-.7 3.45-.058.3-.045.63 0 .933.71 4.18 2.163 8.056 4.683 11.507 1.17 1.605 2.273 3.257 3.82 4.543.208.173.384.416.622.504 1.226.453 1.95 1.46 2.776 2.383 1.142 1.278 2.368 2.48 3.538 3.732a12.88 12.88 0 0 1 1.115 1.367c.546.773.422 1.652.234 2.494-.118.525-.68.873-1.244.8-.473-.058-.964-.144-1.397-.335-1.372-.607-2.705-1.228-3.392-2.758-.386-.862-.985-1.68-1.65-2.36-1.623-1.658-2.984-3.515-4.325-5.387-2.226-3.1-3.797-6.578-5.317-10.064-.613-1.408-1.342-4.934-1.338-6.056l.74-4.953c.325-2.568 1.7-4.708 2.764-6.978.157-.336.387-.648.622-.94 2.122-2.63 4.115-5.38 6.625-7.676.83-.76 1.627-1.568 2.805-1.784.208-.035.442-.19.617-.134zm-15.967 1.86c.176.125.615.29.822.6a3.76 3.76 0 0 1 .534 1.485c.067.53-.402.988-.926 1.074h-.08c-.144 0-.29.035-.428-.035a2.03 2.03 0 0 1-.569-.322c-.503-.398-.77-1-.974-1.602-.186-.558.65-1.24 1.62-1.197zm-5.722.352c.138.035.27.08.382.182a.96.96 0 0 1 .288.423c.3.845.87 1.457 1.444 2.09.378.416.585.905.475 1.46-.118.594-.637.947-1.397.963-.192.035-.372 0-.517-.112-.15-.102-.265-.275-.294-.563-.035-.317-.1-.646-.224-.933-.1-.21-.3-.375-.476-.54-.297-.28-.7-.5-.91-.833-.483-.735-.36-1.24.317-1.825.29-.253.622-.356.9-.3zm-5.047.423H53c.067-.002.128.035.192.035s.134 0 .192.035c.374.13.63.455.834.8s.42.725.166 1.18a1.51 1.51 0 0 1-.546.575 1.42 1.42 0 0 1-.739.198c-.18 0-.363-.058-.54-.134-.543-.26-1.005-.85-1-1.396 0-.502.82-1.283 1.444-1.297zm2.36 2.652c.234.08.447.186.628.3.554.386.845.976.82 1.726-.202.426.001.757.234 1.15.5.837-.035 1.884-.986 2.02 0 .001 0 0-.035 0-.134.035-.324-.045-.423-.134-.26-.266-.486-.56-.7-.857-.067-.1-.1-.182-.112-.272-.045-.275.115-.534.214-.787.144-.342.08-.534-.205-.804-.374-.354-.575-.653-.634-.956s.035-.62.246-.998c.198-.336.487-.543.927-.4zm8.25.746c0 .002 0 0 .035 0s.035 0 .058.035c.08.035.176.035.246.058.173.1.3.253.428.428.365.546.464 1.366.112 1.836-.147.198-.404.384-.64.428 0 .001 0 0-.035 0-.112.035-.23 0-.358-.067-.4-.195-.83-.725-.92-1.197s.348-1.334.763-1.473c.102-.035.21-.001.317-.035zm-5.252 4.143c.173 0 .337.1.48.24h.035c.387.42.73.88.97 1.173.035.6-.344 1.16-.757 1.438-.134.1-.275.154-.41.173-.067 0-.134 0-.205-.035-.035 0-.067 0-.102-.035 0-.003 0 .003-.035 0-.5-.198-1.216-1.436-1.174-1.99.035-.432.317-.665.658-.845.173-.1.354-.14.528-.134zm.463 3.51c.505-.176 1.62 1.066 1.684 1.684.067.64-.154 1.055-.634 1.232-.157.058-.336.1-.545.102-.1 0-.102-.035-.176-.045-.457-.035-.654-.198-.698-.798-.035-.214-.045-.435 0-.64.112-.527-.333-1.3.37-1.532zm-4.607 3.52s.002 0 0 .035c.186.394.38.644.406.91.035.256-.16.528-.498.428-.368-.115-.46-.426-.363-.756.045-.17.227-.3.458-.582zm.558 2.864c.138.147.342.275.4.452.08.243.058.53.08.845-.045.325-.035.716-.14 1.07l-1.737 5.64c-.035.102-.08.214-.16.266-.125.08-.328.202-.405.154-.15-.1-.25-.28-.335-.452-.035-.08.035-.205.058-.3 1.002-2.315 1.352-4.803 1.878-7.24.035-.16.25-.275.382-.41zm4.196 4.49c.275-.035.522.035.74.125.648.285 1 1.02.715 1.684a.81.81 0 0 1-.593.393c0 0 0 0-.035 0-.067.003-.115-.035-.176-.045-.712-.1-1.302-.83-1.15-1.56.058-.25.353-.45.476-.593zm-6.584 4.284v.035s.002 0 0-.035c.192.398.3.545.322.704 0 .128-.118.27-.176.4-.15-.115-.372-.205-.428-.352-.045-.125.102-.32.275-.752zm7.19.34c0 0 0 0 .035 0a1.31 1.31 0 0 1 .464.09c.112.058.202.128.294.21.035.035.08.045.102.08a1.43 1.43 0 0 1 .37.986c0 .262-.08.447-.218.575s-.33.195-.598.198a1.58 1.58 0 0 1-.598-.118c-.035 0-.067-.045-.102-.058-.14-.067-.28-.14-.393-.24-.282-.25-.452-.583-.41-.915.058-.424.55-.81 1.062-.828zm-.266 5.088c.1.003.186.045.282.08.115.035.22.045.33.1.3.128.53.3.686.517.16.224.24.495.21.84.035.478-.067.855-.628.97-.4.08-.76.067-1.05-.045-.14-.058-.262-.125-.363-.214-.115-.1-.205-.21-.266-.352-.035-.045-.045-.112-.045-.16 0-.517-.26-1.085.227-1.508.186-.163.383-.21.587-.205zm7.84 1.19c0 .1.035.18.035.272.035.035.035.045.058.08 0 0 0 0 0 .035h-.035v-.125s0-.035-.035-.035c-.045-.067-.1-.122-.134-.182.035-.035.08-.035.112-.058zm.1.393c.423-.173.675.045.863.393l1.778 3.245c.182.328.352.68.598.956 1.748 1.96 3.164 4.183 4.96 6.12 2.313 2.497 4.823 4.736 7.523 6.778 2.188 1.654 4.26 3.427 6.273 5.293 2.195 2.036 3.93 4.362 5.417 6.942 1.014 1.762 2.174 3.446 3.34 5.123 1.243 1.8 2.145 3.826 2.823 5.933.13.408.214.848.423 1.215 1.15 2.03 1.798 4.22 2.165 6.508.846 1.35.414 2.79.34 4.22-.058.965-.3 1.813-.904 2.517-1.454 1.7-2.745 3.544-5.03 4.37-1.34.485-2.558 1.35-3.78 2.125-1.776 1.127-3.785 1.613-5.792 1.766-1.73.13-3.377.57-5.07.8-2.164.304-4.295.797-6.45 1.185l-5.228.875c-1.43.214-2.877.317-4.302.552-1.545.253-3.087.35-4.647.3-.32 0-.664.003-.97-.08-.16-.045-.346-.275-.358-.434 0-.16.18-.34.294-.5.035-.035.102-.035.154-.045 1.225-.122 2.453-.33 3.68-.34 1.357 0 2.653-.256 3.967-.534 1.51-.32 3.05-.497 4.572-.78 1.676-.3 3.347-.67 5.017-1.015 1.415-.29 2.814-.647 4.237-.88 2.29-.374 4.53-1.003 6.62-1.937 2.85-1.273 5.48-2.983 7.453-5.48.556-.704.882-1.588 1.297-2.4.122-.234.138-.525.27-.75 1.142-1.985.858-4.006.214-6.062-.508-1.633-.875-3.307-1.397-4.935-.36-1.12-.793-2.238-1.338-3.28-1.042-1.993-2.215-3.916-3.28-5.898-.66-1.225-1.198-2.516-1.843-3.75-.29-.558-.64-1.125-1.086-1.56l-10.064-9.76c-1.717-1.698-3.45-3.382-5.023-5.235l-4-4.836c-.853-1.095-1.708-2.188-2.27-3.48-.23-.537-.622-1.002-.927-1.508-.324-.537-.697-1.063-.528-1.75zm-7.335 2.617c0 0 0 0 .035 0 .058 0 .112.035.166.035.574.067 1.066.728 1.08 1.537 0 .71-.19 1.112-.64 1.262-.15.045-.322.08-.528.067-.1 0-.176-.045-.266-.067-.08-.035-.18-.035-.26-.067-.494-.246-.84-.835-.856-1.543 0-.468.74-1.183 1.303-1.232zm-.275 3.075c.045 0 .102.045.16.058.102.035.208.035.317.102.504.3 1.008.98 1.026 1.508.035.546-.72 1.288-1.244 1.244 0-.001 0 0-.035 0 0-.001-.035 0-.035 0-.615-.08-1.674-.844-1.7-1.244-.035-.538.444-1.194.962-1.5.17-.1.342-.163.504-.166zm-3.838 2.793c.122 0 .237-.001.352.035h.067a.96.96 0 0 1 .376.198s0 .002.035 0c.705.627 1.374 1.308 1.966 2.042.43.535.214.857-.423 1.22-.176.102-.345.157-.51.182a1.03 1.03 0 0 1-.463 0c-.3-.045-.607-.166-.915-.282-.002.035 0 .035 0 .045 0-.002 0 0-.035 0 .246.3.51.618.727.95.115.166.214.428.16.593-.122.354-.536.705-.482.99.067.37.504.667.745 1.015.08.115.115.322.067.457-.18.56-.66.838-1.156 1.045-.102.045-.218.045-.34.035-.36-.035-.777-.3-1.05-.704-.313-.45-.333-.897 0-1.332.13-.166.324-.288.452-.458.045-.058-.001-.27-.058-.3-.234-.125-.505-.182-.74-.3-.585-.32-.785-.885-.552-1.485.125-.32.32-.514.575-.622.227-.1.502-.125.845-.058h.045l.68.166-.035-.035c.035 0 .035.001.058.035.045-.406-.118-.72-.498-.834-.46-.138-.684-.45-.875-.85-.227-.477-.27-.917.134-1.314.224-.214.508-.36.792-.4zm6.408.154v.035c.275.08.527.256.722.493.662.807.626 1.534-.118 2.254-.144.14-.29.237-.44.3a.73.73 0 0 1-.428.067c-.278-.035-.53-.205-.733-.546-.234-.397-.338-.87-.4-1.04 0-.8-.045-1.302.534-1.514a1.46 1.46 0 0 1 .851-.035zm-10.592 2.588c.128.002.25.058.37.1.058.035.118 0 .173.035.525.243.904.81.91 1.45 0 .555-.205.906-.604 1.04a1.28 1.28 0 0 1-.434.067c-.186 0-.384-.067-.575-.176a2.39 2.39 0 0 1-.522-.393c-.32-.324-.546-.73-.528-1.08.035-.57.568-1.023 1.21-1.015zm34.9.658c.1.045.17.173.214.37.08.304.202.6.26.904.1.492-.19.856-.663.915-.08 0-.154 0-.224-.035-.035 0-.045.002-.067 0-.266-.1-.43-.387-.434-.85-.035-.48.102-.918.552-1.233.058-.035.1-.035.14-.035.067-.035.144-.067.198-.045zm-21.073.67c.186.035.37.08.546.186.406.24.897 1.05.874 1.455 0 .16-.08.313-.182.457a1.44 1.44 0 0 1-.863.569c-.16.035-.32.035-.458-.035 0-.002 0 .002-.035 0-.246-.1-.486-.224-.71-.363-.687-.438-.923-.96-.67-1.415.176-.307.406-.534.663-.68.15-.08.313-.1.476-.112.112-.035.214-.08.322-.067 0 .001 0 0 .035 0zm-5.305.058c.195 0 .38.045.552.112.52.21.903.703.934 1.29.035.317-.1.595-.275.8-.1.102-.208.192-.34.26a1.13 1.13 0 0 1-.441.128c-.24.035-.514-.067-.74-.176-.182-.1-.317-.29-.475-.435-.373-.34-.668-.7-.51-1.256.067-.224.234-.405.47-.534a1.76 1.76 0 0 1 .839-.198zm-24.83 2.36c.24.002.54.035.704.182.22.195.19.52-.08.693-2.03 1.294-3.292 3.38-5.07 4.935-.478.418-.826.985-1.232 1.485l-4.055 5.012c-1.563 2.045-3.12 4.087-4 6.573-.847 2.424-1.87 4.785-2.73 7.206-.677 1.906-1.33 3.833-1.802 5.798-.986 4.104-.6 7.968 2.306 11.32.735.85 1.306 1.845 2.318 2.423.42.24.822.538 1.273.68l5.692 1.725c.46.14.94.285 1.35.522 1.478.86 3.148 1.086 4.77 1.262 1.442.157 2.85.404 4.26.7l7.858 1.643c.572.112 1.175.058 1.766.067.538 0 1.078.002 1.614.035.383.035.802.154.77.634-.035.442-.433.562-.82.617-.16.035-.32.035-.48.035h-6.93l-6.678-.763c-1.542-.176-3.083-.412-4.63-.522-2.588-.182-5.07-.87-7.547-1.532-2.062-.55-4.072-1.335-6.056-2.136-.982-.396-1.97-.94-2.752-1.643-1.264-1.133-2.135-2.507-1.837-4.39.19-1.203.192-2.444.224-3.667.035-1.414.374-2.76.774-4.102.366-1.224.616-2.482.992-3.703.535-1.734 1.172-3.435 1.702-5.17.847-2.776 1.932-5.45 3.098-8.104 1.3-2.934 3.12-5.5 5.182-7.922l2.078-2.465c2.204-2.73 4.656-5.197 7.564-7.183.13-.1.262-.26.393-.26zm13.21.035c.173-.035.352.035.528.176.246.205.49.426.687.675.387.487.462 1.114.182 1.485-.08.115-.173.192-.272.246-.307.182-.677.13-1.045.045-.23-.058-.462-.128-.693-.192.002 0 0 .035 0 .035s.001.035.035.035c-.035 0-.035 0-.045-.035a12.86 12.86 0 0 1 .173.845c0 .067.035.14.045.21 0 .176.002.344-.045.517a1.45 1.45 0 0 1-.246.517c-.192.253-.365.578-.628.704-.908.436-1.838.88-2.893.757-.32-.045-.558-.14-.7-.317-.16-.176-.237-.423-.227-.758.035-.86.27-1.587 1.156-1.93.198-.08.436-.118.593-.246.875-.72 1.8-.79 2.794-.3-.003 0 0-.035 0-.045 0 .002 0 0 .035 0h.035c-.1-.28-.205-.56-.28-.85-.138-.524.1-.964.435-1.31a.88.88 0 0 1 .481-.259zm3.914.214c.612.067 1.2.64 1.31 1.24a1.62 1.62 0 0 1-.058.851 2.6 2.6 0 0 1-.329.728h.035c0 .035-.035.035-.045.035.372-.035.705.002.992.067s.526.186.722.34c.398.313.612.796.622 1.455 0 .278-.138.682-.346.8a1.81 1.81 0 0 1-1.05.281c-.355-.035-.713-.13-1.056-.346-.224-.138-.41-.418-.545-.728-.138-.317-.214-.662-.186-.928 0-.134.058-.237.115-.33a.89.89 0 0 1 .224-.227c.173-.134.37-.24.516-.4 0-.035 0-.035.035-.035v-.035c-.496-.144-1.02-.23-1.48-.452-.66-.317-.904-.86-.775-1.426.035-.134.1-.26.186-.376.1-.112.195-.214.317-.304a1.42 1.42 0 0 1 .399-.198 1.15 1.15 0 0 1 .423-.058zm-28.045.72l.322.37-.035.035c-.118.15-.205.294-.334.393l-.035.035c-.035.035-.307-.19-.294-.224.002 0 0 0 0-.035.08-.186.202-.36.3-.534 0 0 0-.035.035-.035zm44.353.26c.605.1 1.348 1.014 1.303 1.63 0 .173-.08.342-.182.498a1.63 1.63 0 0 1-.363.393c-.3.243-.71.397-1.09.37-.7-.045-1.275-.828-1.215-1.62 0-.208.08-.396.166-.563.08-.16.195-.29.33-.405.278-.237.655-.362 1.056-.304zm20.762.463c.568.29 1.14.587 1.66.95.436.3.768.762 1.215 1.04.98.602 1.735 1.428 2.477 2.27 1.097 1.25 2.212 2.492 3.198 3.826 1.65 2.235 3.327 4.433 4.66 6.913 1.53 2.845 2.652 5.85 3.937 8.785.9 2.03 1.515 4.225 1.714 6.496.115 1.22.377 2.424.534 3.404-.035.4-.003.58-.08.715-.058.125-.202.262-.328.28-.125.035-.354-.067-.393-.166-.173-.444-.3-.905-.423-1.367-.16-.62-.214-1.28-.457-1.86-1.1-2.618-2.305-5.187-3.333-7.828-1.293-3.318-3.273-6.254-4.96-9.354-.895-1.646-1.917-3.235-2.993-4.77-1.23-1.755-2.585-3.425-3.88-5.135-.55-.725-1.065-1.47-1.63-2.183-.398-.5-.863-.944-1.273-1.43-.08-.1-.102-.322-.045-.417.067-.102.3-.214.4-.173zm-30.222.058c.774.035 1.45.506 1.696 1.21.102.285.067.646-.058.97-.058.15-.13.297-.224.417-.1.128-.208.24-.335.304-.702.365-1.83.128-2.142-.463-.125-.234-.214-.49-.288-.745-.154-.534-.138-.988.08-1.29.21-.307.626-.468 1.274-.406zm5.393.335c.746.128 1.275.753 1.238 1.608 0 .326-.112.572-.28.745s-.408.275-.727.294c-.766.045-1.6-.587-1.784-1.35-.102-.43.035-.82.358-1.056.112-.08.23-.154.382-.192.285-.08.56-.1.8-.045zm-41.73.387c.1-.001.182.173.382.387 0 .003 0 0-.035 0-.32.067-.51.147-.68.115-.102-.035-.163-.227-.24-.346 0-.002 0 0 .035 0 .18-.058.363-.157.546-.16zm27.505 1.872c.832-.035 1.36.505 1.344 1.385a.95.95 0 0 1-.09.387c-.173.365-.593.605-1.127.6-.684 0-1.286-.513-1.314-1.132-.035-.333.115-.638.335-.863.102-.102.227-.192.363-.26.15-.067.313-.122.493-.128zm21.613.102c.49-.035.928.224 1.273.54.307.272.487.842.476 1.273 0 .297-.32.66-.704.945-.18.134-.378.26-.563.34 0 .003 0 0-.035 0-.192.08-.37.134-.51.128-.704-.035-1.15-.668-1.174-1.65-.001-.058 0-.102 0-.21a1.22 1.22 0 0 1 .115-.734c.035-.08.102-.154.163-.224.035-.035.035-.045.058-.067a1.15 1.15 0 0 1 .37-.224c.173-.067.342-.102.505-.112zm-12.863 1.837c.897.058 1.582.723 1.532 1.502a1.22 1.22 0 0 1-.44.81 1.62 1.62 0 0 1-1.015.37c-.166-.1-.522-.19-.68-.417a1.91 1.91 0 0 1-.329-1.032c-.001-.406.102-.717.27-.927s.4-.313.67-.3zm-39.283 0c.035.035.058.067.1.102-.045.067-.1.125-.128.186-.035-.035-.08-.045-.112-.08.058-.067.1-.134.14-.198zm34.73.147c.256-.045.54.067.898.304.448.304.844.656.928 1.208 0 .08 0 .134-.035.182-.1.205-.198.412-.346.558-.08.067-.16.128-.253.166a.69.69 0 0 1-.322.045c-.622-.067-1.293-.186-1.714-.733-.3-.394-.163-.804.118-1.18.125-.173.253-.3.376-.393.115-.1.227-.14.352-.166zm-7.734.058a1.49 1.49 0 0 1 .569.115c1.087.494 1.32 1.77.387 2.54-.327.272-.382.466-.198.775.26.443.08.83-.147 1.197-.256.412-.628.57-1.004.474-.035 0-.045.003-.067 0-.138-.045-.275-.122-.405-.24-.546-.5-1.1-1.022-1.032-2.218.195-.713.67-1.65 1.408-2.424 0 0 0-.001.035 0 .125-.128.288-.192.463-.205zm4.653.87c.842.045 1.672.886 1.643 1.655a2.53 2.53 0 0 1-.469 1.262c-.125.17-.262.317-.41.417s-.307.16-.457.16c-1.034-.001-2.054-.912-2.037-1.825.035-.43.253-.862.582-1.18.163-.157.348-.288.546-.376.205-.1.414-.134.622-.125zm22.423.422c.527.035 1.016.27 1.36.757.182.256.3.565.41.863.218.643.035 1.144-.464 1.36a1.56 1.56 0 0 1-.563.118h-.035c-.157 0-.307-.035-.463-.035 0 .045-.035.08-.045.128-.43-.147-.95-.192-1.28-.463-.804-.658-.995-1.658-.517-2.095.243-.224.512-.39.78-.5s.544-.163.8-.154zm-31.16.134c.738.058 1.407.688 1.426 1.532a.92.92 0 0 1-.102.44v.045c-.035.067-.1.102-.14.16-.058.067-.1.134-.166.182-.045.035-.102.035-.154.058-.1.035-.173.08-.272.1-.16 0-.324 0-.487-.1a4.87 4.87 0 0 1-1.074-.704c-.45-.394-.492-.875-.182-1.244.102-.125.24-.23.417-.322.237-.125.486-.17.728-.154zm-23.45 1.743c.128-.035.246-.035.317.035.16.118.275.487.21.68-.227.655-.442 1.353-.845 1.9-1.202 1.635-1.665 3.582-2.406 5.4-.278.69-.497 1.405-.717 2.12-.23.762-.414 1.54-.652 2.3-.727 2.347-1.413 4.707-1.978 7.1-.343 1.45-.813 2.87-1.144 4.32-.25 1.1-.38 2.207-.54 3.316-.128.9-.144 1.825-.363 2.7-.163.652-.464 1.35-.904 1.843-.96 1.073-2.236.93-2.87-.37-.506-1.038-.73-2.212-.98-3l.363-4.777c0-.102.035-.22.058-.317 1.137-3.053 2-6.195 3.345-9.19 1.256-2.798 2.817-5.385 4.366-8.004 1.18-1.996 2.534-3.842 4.038-5.592.102-.125.186-.304.317-.352a2.62 2.62 0 0 1 .382-.118zm19.318.598c.154-.035.3 0 .47.035.67.17 1.242.884 1.21 1.508-.035.52-.517 1.034-1.133 1.127-.058 0-.102.035-.154.035 0 0 0 0-.035 0-.348-.154-.86-.317-1.297-.598-.4-.256-.44-.838-.205-1.303.122-.24.285-.433.482-.57.125-.1.275-.115.423-.16a.7.7 0 0 1 .205-.08c0-.001 0 0 .035 0zm27.276.134c.953.278 1.613 1.103 1.643 2.1.035.265-.035.486-.134.67-.102.176-.24.317-.41.41s-.358.147-.54.154c-.19 0-.376-.035-.522-.125-.566-.36-1.058-.873-1.497-1.39-.337-.397-.3-.903.058-1.314.182-.205.378-.368.604-.464.23-.1.493-.125.798-.035zm13.68.147c1.434.067 2.214 1.4 1.49 2.57-.125.192-.266.35-.44.447-.18.102-.386.138-.617.1-.563-.122-1.133-.27-1.532-.77-.37-.465-.498-1.12-.205-1.625.14-.246.32-.447.534-.575s.467-.176.77-.134c0 .002 0 0 .035 0zm-35.996.92c.18 0 .353.035.5.08.487.176.838.61.85 1.138 0 .19 0 .348-.058.48-.035.13-.1.234-.182.317-.08.08-.19.138-.322.176-.14.045-.313.067-.517.067a2.03 2.03 0 0 1-.552-.08c-.494-.16-.757-.55-.75-1.156a1.02 1.02 0 0 1 .616-.927c.122-.058.25-.08.387-.1zm11.842.322c.84.067 1.382.572 1.367 1.267 0 .344-.205.75-.464 1.07-.128.154-.266.288-.41.382s-.288.147-.417.14c-.923-.035-1.6-.694-1.543-1.5a1.57 1.57 0 0 1 .517-1.01 1.5 1.5 0 0 1 .446-.288c.166-.067.34-.1.5-.08 0 0 0 0 .035 0zm-6.355.317a1.42 1.42 0 0 1 .545 0c.694.134.994.668 1 1.28 0 .307.067.55.192.746s.32.348.582.487c.37.195.68.523.98.828.35.356.568.758.346 1.297a1.6 1.6 0 0 1-.463.657c-.035.035-.102.035-.147.058-.17.102-.338.202-.575.227-.275.035-.55 0-.798-.067-.766-.227-1.353-.894-1.414-1.742v-.482c.313-.636-.067-.82-.57-1.056-.703-.337-1.004-.904-.87-1.362.13-.447.62-.79 1.168-.875zm-9.23 1.602c.837 0 1.69.568 1.708 1.156 0 .297-.173.602-.44.833-.13.115-.285.21-.452.275s-.343.102-.517.102c-.903 0-1.42-.494-1.426-1.36 0-.35.1-.602.288-.77.1-.08.208-.14.346-.182.147-.045.32-.067.522-.067zm-3.726.035c.588-.045 1.53 1 1.5 1.655 0 .173-.058.33-.122.48-.035.058-.067.102-.102.16-.045.067-.08.14-.128.198-.198.23-.466.386-.745.387-1.023 0-1.642-.505-1.637-1.362 0-.18.045-.362.122-.54.067-.163.16-.313.272-.452.234-.29.545-.505.85-.528zm9.835.67c.388-.035.836.08 1.244.322.706.42 1.115 1.437.763 2.077-.134.246-.455.46-.733.545-.454.134-.945.157-1.42.224l-1.643.234c-.393.15-.956.002-1.48-.3-.382-.227-.713-.553-.582-1.045.067-.24.17-.47.322-.646a1.01 1.01 0 0 1 .639-.363h.538c.1 0 .186-.035.26 0 .62.285.87.134 1.192-.487.186-.36.516-.55.904-.587zm38.942.134c.14.035.29.08.452.166.673.352.98.86.91 1.7-.003 0 0 .035 0 .035-.058.154-.122.454-.28.704-.45.7-1.2.744-1.76.147-.205-.218-.317-.697-.358-1.18-.035-.324-.035-.623.058-.84v-.1l.035-.035c.115-.23.25-.39.404-.493a.78.78 0 0 1 .587-.128zm-52.105 1.8c.693.035.9.282 1.07 1.22.712-.058 1.45-.246 1.9.6.138.26.224.5.246.75.035.237-.003.48-.125.757 0 0-.001.035 0 .035-.067.157-.102.297-.102.41-.002.365.317.5.863.387.514-.115 1.042-.144 1.55-.275a1.04 1.04 0 0 0 .558-.416c.058-.125-.035-.41-.147-.504-.536-.425-.627-.977-.535-1.6.001 0 0 0 0-.035.035-.208.102-.382.205-.528.3-.46.897-.606 1.485-.294.526.278.88.703.915 1.21 0 .102-.035.218-.045.328 0 .058 0 .112-.035.173-.214.64.002.903.417 1.31.404.395.59.662.58.945 0 .128-.045.262-.128.41-.1.166-.224.35-.41.575-.173.208-.586.366-.85.322-.802-.13-1.458.08-2.095.546-.363.27-.806.272-1.227.067-.34-.173-.468-.884-.998-.522-.43.294-.99.51-1.238.986a1.16 1.16 0 0 0-.115.582s.035-.035.045-.035v.035l.646-.34c.5-.275.902-.41 1.29-.376s.757.24 1.162.64c.346.342.527.442.892.102.427-.393.977-.45 1.52-.382.246.035.528.134.7.3.468.42.66.99.563 1.473-.035.16-.08.3-.173.44-.38.554-1.338.708-2.048.304-.23-.128-.425-.33-.634-.498-.227-.186-.513-.56-.67-.51-.332.102-.614.41-.88.67-.067.1-.1.266-.08.393.035.208.16.403.182.6.002.035 0 .035 0 .035.035.373.035.66-.067.863-.1.224-.27.368-.528.446-.7.205-1.566-.1-1.813-.674-.067-.157-.035-.443.1-.58 0 0-.001-.035 0-.035.227-.29.538-.5.786-.787.035-.1.035-.317 0-.322-1-.214-.953-1-.962-1.75-.035 0-.035.035-.045.035-.001 0 0-.002 0-.035-.717.68-1.486.873-2.43.363-.774-.418-1.57-.585-2.33.182-.154.154-.69-.035-1.026-.112-1.316-.37-1.274-.384-1.31-1.696 0-.512-.256-1.012-.358-1.526-.08-.404-.218-.848-.125-1.22.001 0 0 0 0-.035.035-.144.14-.285.266-.416.138-.147.3-.278.463-.358.394-.192.728.122.927.446.297.49.794.854.798 1.532 0 .95.16 1.013.974.546.138-.08.278-.166.393-.275.504-.487 1.008-.468 1.602-.128.27.154.41.22.493.16.08-.08.102-.253.134-.6l.163-1.75c0-.128-.067-.262-.112-.393-.14.067-.288.122-.423.198-.1.058-.15.15-.234.21-.652.477-1.172.5-1.56.1-.18-.192-.25-.47-.227-.77.003-.067.067-.144.08-.214.045-.224.08-.453.227-.67.445-.67 1.032-1.078 1.866-1.045zm1.8 7.447v.035-.035zm-.045 0c0 0 0 0 0 .035zm-.68-6.232c0 .001 0 0-.035 0l.035.035c-.003 0 0 0 0-.035zm33.854-.487c.157-.035.3 0 .458.035.814.224 1.428.76 1.83 1.473.067.122.067.288.045.463-.035.15-.058.3-.102.435v.035a1.37 1.37 0 0 1-.227.352c-.3.324-.745.42-1.18.458-.77 0-1.407-.186-1.866-.8-.22-.297-.322-.578-.34-.857-.035-.256.035-.508.198-.774 0 0 .001-.035 0-.035.256-.42.72-.72 1.185-.774zm-9.794.294c.753.035 1.55.862 1.508 1.578 0 .176-.058.358-.128.534-.21.537-.66 1.014-1.05 1.032-.804.035-1.8-.803-1.784-1.508 0-.218.058-.423.14-.617.234-.593.762-1.04 1.314-1.02zm-9.22.035c.766.003 1.41.587 1.385 1.262 0 .32-.144.62-.34.84-.195.227-.462.377-.74.376-.662 0-1.595-.83-1.56-1.385 0-.125.067-.26.154-.387.067-.118.176-.227.288-.328.243-.22.552-.382.822-.382zm-14.87.182s0 0 0 .035c0 0 0-.035 0-.035zm55.174.687c.714.035 1.208.538 1.18 1.22a1.5 1.5 0 0 1-.115.569 1.61 1.61 0 0 1-.214.406c-.19.253-.448.408-.733.393-.735-.035-1.36-.757-1.314-1.52 0-.157.058-.3.128-.434a1.15 1.15 0 0 1 1.067-.634zm-45.867 1.38c1.023-.045 1.785.63 1.813 1.614a2.42 2.42 0 0 1-.067.522c-.13.456-.512.693-1.115.698-1.106 0-1.87-.635-1.854-1.56a1.25 1.25 0 0 1 .112-.504 1.29 1.29 0 0 1 .234-.363 1.25 1.25 0 0 1 .874-.406zm32.65.346c.67.035 1.377.806 1.367 1.496-.003.173-.045.334-.125.487a1.47 1.47 0 0 1-1.244.821c-.727.035-1.398-.78-1.356-1.655 0-.144.067-.29.154-.428.24-.4.757-.738 1.203-.716zm6.708 1.8c.125-.035.266-.035.428.035.214.058.463.176.75.352l.27.173c.52.333.875.815.85 1.426 0 .144-.067.28-.16.41-.266.39-.862.68-1.455.698-1.154.035-1.713-.648-1.467-1.795.08-.38.18-.67.304-.874.125-.224.275-.36.47-.404zm-33.848.035a1.81 1.81 0 0 1 1.519 1.244c.045.176.035.313 0 .44-.102.376-.498.586-.78.863-.366.36-.734.656-1.268.4-.374-.18-1.052-1.58-.974-1.942.002 0 0-.035.035-.035.112-.52.867-1.003 1.502-.962zm21.642.358c.912.173 1.556.88 1.473 1.63-.001 0-.035.035-.035.045-.035.13-.08.272-.176.4-.313.44-.975.828-1.508.798-.848-.045-1.376-.656-1.314-1.508.001 0 0-.035 0-.035 0-.045.035-.1.045-.134.035-.122.058-.243.115-.358.28-.52.882-.925 1.373-.833zm23.057.28c.766 0 1.294.488 1.24 1.11-.001 0 0 .035 0 .035-.045.496-.58 1.046-1.032 1.062-.77.035-1.523-.518-1.485-1.133.001-.035 0-.035 0-.045a1.35 1.35 0 0 1 .09-.452c.17-.445.555-.64 1.185-.576zm-68.348.657c.57-.003.897.49.886 1.485-.003 0 0 .035 0 .045-.035.067-.045.173-.08.304-.045.166-.115.338-.26.423-.593.36-.895.746-1.032 1.473-.14.747-1.515.83-2.013.198-.36-.456-.512-.963-.47-1.45 0-.224.08-.447.182-.657.115-.237.278-.458.51-.658.476-.414 1.058-.738 1.637-1.004.24-.115.46-.163.652-.166zm28.05.224c.617-.035 1.297.22 1.573.675.163.266.265.59.317.898a1.21 1.21 0 0 1 0 .504c-.058.42-.36.653-.915.75-.262.045-.53.067-.892.112-.637 0-1.29-.5-1.45-1.156-.035-.163-.035-.338 0-.5.001 0 0 0 0-.035.035-.144.067-.285.128-.416.138-.304.365-.567.657-.704a1.59 1.59 0 0 1 .58-.134zm-8.714 1.262c.57-.122 1.944 1.067 2.02 1.678v.035c-.035.122-.058.266-.134.382v.035c-.402.626-1.35.9-2 .598-.75-.348-1.14-1.276-.893-2.036.002 0 0 0 0-.035.002 0 0-.035 0-.035.17-.51.643-.583 1.026-.663zm43.96.102c.535.035 1.537 1.03 1.485 1.49-.001 0-.035.035-.035.035-.045.4-1.095 1.235-1.543 1.226-.737 0-1.13-.538-1.074-1.432a1.4 1.4 0 0 1 .125-.539c.18-.487.57-.81 1.02-.787zm-58.554.214c.134 0 .27.115.417.358.29.497.313.95.118 1.273-.18.344-.588.56-1.197.528-.438-.035-.653.1-.933.37-.256.25-.598.507-.933.563-.29.045-.44.144-.5.28-.058.147-.035.33 0 .563.045.224 0 .4-.125.528a.85.85 0 0 1-.51.301c-.4.1-.822.182-1.238.205-.49.035-.855-.415-.834-.856a.71.71 0 0 1 .118-.376s.002-.035 0-.045c.542-.788 1.04-1.648 1.737-2.277.562-.508 1.392-.725 2.054-1.045.32.128.528.176.698.288.36.234.522.138.7-.24.138-.28.27-.42.404-.428zm2.893.458c.08 0 .154.045.234.058.122 0 .234.045.346.1.08.035.176.035.253.067.176.115.34.27.482.428.275.307.436.904.352 1.32-.035.144-.067.275-.154.363-.256.272-.714.36-.886.44-.463-.035-.676-.035-.886-.067-.536-.1-1.138-.202-1.273-.815-.058-.275 0-.517.1-.745 0-.035.035-.067.035-.102.13-.27.347-.515.587-.722a1.35 1.35 0 0 1 .815-.317zm33.848.115c.176 0 .37.067.563.182.307.182.56.473.787.757.18.224.334.513.246.774-.035.1-.067.182-.166.272-.294.262-.7.54-1.068.558-.8.035-1.36-.64-1.344-1.444 0-.176.035-.33.1-.47.144-.41.483-.648.892-.628zm-27.6 1.942c.74.035 1.473.86 1.438 1.626 0 0 0 .035 0 .045 0 .19-.058.373-.125.54-.224.558-.727.97-1.25.94-.673-.045-1.66-1.082-1.66-1.755 0 0 .035-.035.035-.045 0-.125.067-.272.147-.41.288-.48.966-.965 1.45-.945zm4.56.3c.844-.045 1.703.657 1.82 1.508a1.02 1.02 0 0 1-.067.563c-.067.18-.195.326-.406.417-.433.186-.892.304-1.05.358-1.323.035-1.767-.285-1.813-1.04 0-.227.035-.444.102-.652.205-.627.77-1.12 1.42-1.156zm-22.74.317c.393-.045.78.1 1.18.4.52.4.227 1.1.534 1.397.29.294 1.03-.035 1.338.54.102.18.195.394.198.593 0 0 0 .035 0 .035 0 .1-.08.224-.163.358-.317.473-1.057 1.09-1.5 1.12-.243-.115-.63-.214-.904-.446-.692-.58-1.357-1.195-1.99-1.837-.23-.234-.3-.478-.28-.728 0-.224.15-.455.358-.68 0 0 0-.035.035-.045.424-.434.822-.67 1.215-.717zm62.656.335c.645 0 1.218.59 1.22 1.226.001.192-.045.375-.115.54-.195.506-.663.855-1.185.804-.817-.08-1.236-.56-1.197-1.385 0-.176.045-.334.112-.476.176-.45.598-.72 1.162-.7zm-20.616.3c1.007.067 1.805.946 1.743 1.93-.001 0 0 .035 0 .045-.035.147-.067.3-.154.452-.27.52-.855 1.012-1.332 1.02-.74 0-1.845-1.292-1.83-2.16v-.045c0-.166.045-.322.128-.464.24-.478.8-.808 1.444-.77zm-34.26.275c.192.045.362.17.493.382.19.3.356.672.393 1.026.035.23 0 .46-.045.67-.128.612-.59 1.046-1.502.763-.537-.17-.815-.214-1.097.417-.262.6-.926.388-1.444.288s-.835-.464-1.004-.945c0 0 .035-.035 0-.045-.058-.166 0-.358.115-.528.125-.195.32-.36.57-.387.468-.058.95.035 1.426.045.262-.728.734-1.262 1.444-1.585.224-.102.44-.138.634-.1zm-2.078 1.678s0 .035-.035.035l.035-.035zm7.963-1.602c.524-.067 1.05.192 1.414.775.24.384.415.887.406 1.332 0 .62-.348 1.202-.102 1.872.058.15.035.272-.058.382-.118.224-.4.385-.534.593a.35.35 0 0 0-.035.322c.182.404.736.63.956 1.026.154.278.035.714.035 1.08l.058-.045v.035s0 .035-.035.035c.673.045 1.39-.058 1.866.645.147.214.224.41.234.61 0 .102-.067.21-.112.317-.035.08 0 .147-.08.227 0 0-.002.035 0 .035-.46.588-.833.778-1.344.598-.815-.285-1.117-.645-1.032-1.35.035-.214.1-.472.182-.763l-.74.3c-1.066.403-1.823-.3-2.165-1.12a.89.89 0 0 1 0-.745c.08-.224.23-.426.434-.593.214-.176.317-.337.346-.504 0-.176-.067-.36-.27-.592-.125-.144-.138-.29-.102-.434.001 0 0 0 0-.035.045-.243.24-.482.334-.686.035-.1.058-.18 0-.26-.19-.288-.904-.202-1.074-.78a1.66 1.66 0 0 1-.045-.628c.035-.182.067-.367.14-.54.157-.382.435-.72.815-.933a1.5 1.5 0 0 1 .511-.176zm-3.28.205c.42.035.707.214.845.604.08.21.067.4 0 .587a.77.77 0 0 1-.346.441c-.393.23-.862.335-1.415.534-.195-.25-.483-.447-.5-.675-.035-.262 0-.48.058-.675.15-.57.65-.867 1.373-.815zm25.058 0c.61.001.965.29.974.8a1.42 1.42 0 0 1-.112.534c-.176.467-.592.8-1.05.793-.596-.035-1.092-.46-1.097-.97v-.045c-.002-.147.035-.28.08-.41.176-.428.615-.717 1.185-.715zm38.15.658c.63 0 1.223.45 1.25.967.001 0-.035.035-.035.035.035.423-.427.906-.887.95-.56.058-1.166-.45-1.22-1 0-.125 0-.246.045-.358.102-.338.428-.593.82-.598zm-44.546.446c.403.102.79.29 1.162.487.46.237.733.634.645 1.168-.002 0 0 .035 0 .035a1.12 1.12 0 0 1-.128.282c-.214.317-.68.54-1.356.563-.218-.08-.683-.198-1.097-.41-.543-.275-.727-.846-.51-1.338v-.035c.035-.067.128-.122.182-.186.08-.1.14-.182.246-.26.275-.214.587-.37.858-.3zm-30.562.834c.556 0 .855.288 1.132.745.27.445.67.812 1.027 1.203.37.406.688.66 1.08-.058.224-.41.72-.603 1.25-.604.478-.003.92.15 1.08.563.275.71.693 1.305 1.127 1.907.15.21.333.52.28.734-.224.93.378 1.298.99 1.75.652.48.822.767.61 1.29a3.94 3.94 0 0 1-.324.616c-.246.398-.514.853-.892 1.086-.317.195-.576.345-.68.64-.035.102-.045.224-.035.37.001 0-.035.035-.035.035.035.18-.297.37-.416.587-.058.144-.067.383.035.493.122.16.366.22.54.346.52.38.702.862.534 1.367v.045c-.186.563-.728.936-1.397.933-.508.045-.908-.186-1.144-.67-.125-.26-.227-.524-.234-.78-.035-.256.058-.503.3-.728.19-.163.262-.294.26-.423-.035-.128-.125-.253-.3-.4-.58-.456-1.014-1.02-1.907-1.04-.553 0-1.106-.487-1.637-.792-.102-.058-.166-.3-.14-.44.002 0 0-.035 0-.035a7.61 7.61 0 0 1 .304-1.25c0-.035 0-.058.035-.08v-.045c.045-.13.067-.22.058-.3-.035-.1-.102-.154-.28-.224-.435-.173-.877-.4-1.226-.704-.637-.555-.82-.883-.693-1.46.035-.198.112-.424.224-.704.138-.34.403-.622.534-.962a1.36 1.36 0 0 0 0-.734c-.035-.08-.362-.045-.558-.1-.542-.102-.848-.442-.834-.857-.001-.125.035-.26.102-.393v-.035c.253-.503.594-.887 1.226-.89zm54.212.058c.814.035 1.513.85 1.496 1.755v.045c0 .21-.045.405-.122.575-.227.544-.75.87-1.444.84-1.007-.045-1.56-.612-1.573-1.62 0-.176.058-.327.102-.48 0-.045 0-.1.035-.14.227-.594.81-.994 1.526-.968zm-34.588.774c.198-.035.408.035.622.14.045.035.102.035.154.045.598.3 1.074.948.997 1.332-.002 0 0 .035 0 .035s.001 0 0 .035c-.1.466-1.034 1.015-1.696.986-.503-.035-.974-.346-1.11-.775-.058-.17-.058-.322-.045-.47 0-.115.045-.218.08-.322.1-.253.266-.482.463-.687.16-.166.343-.27.54-.3zm7.864.522c.593.035 1.5.905 1.49 1.473 0 .186-.045.375-.125.552-.218.547-.754.992-1.273.97-.86-.035-1.696-.72-1.725-1.403 0-.157.058-.334.163-.517.29-.536.98-1.095 1.467-1.08zm-17.036.774c.542.003 1.062.154 1.373.663.102.173.157.38.266.646 0 0 0 .035-.035.035.003 0 .003 0 0 .035-.224.282-.408.612-.68.82-.24.186-.573.27-.88.34-.813.182-1.478-.5-1.303-1.314.002 0 .035-.035.035-.035.102-.453.785-1.164 1.22-1.162zm50.837.893c.782.035 1.4.508 1.626 1.285.035.102.035.208.058.3.08.313.08.588.045.828a1.26 1.26 0 0 1-.211.551c-.237.335-.657.515-1.268.5-1.053-.035-2.1-1.356-1.883-2.365.002 0 0-.035 0-.035s-.001 0 0-.035c.128-.58.894-1.087 1.62-1.068zm-37.416.317c.698.067 1.267.88 1.232 1.766-.001.035 0 .035 0 .045 0 .122-.045.237-.102.335-.182.342-.6.528-1.21.487-.87-.058-1.69-.946-1.555-1.678.002 0 0-.035 0-.035.118-.64.748-.99 1.63-.91zm-20.293.182c-.176.035-.344.058-.476.14-.37.24-.78.59-.915.98-.115.395.17.896.166 1.35-.002.313 0 .493.34.57.754.173 1.164.7 1.43 1.39a4.88 4.88 0 0 0 .266.581c.195.35.438.214.64.035a.94.94 0 0 0 .272-.428c.035-.16 0-.328-.128-.517-.205-.307-.443-.613-.41-1.097 0-.14.035-.288.1-.464-.035-.134-.125-.46-.198-.786-.1-.4-.15-.832-.26-1.238-.045-.18-.173-.474-.28-.48-.17 0-.357-.035-.534 0zm45.227.14c.63-.067 1.064.307 1.373.827.144.243.17.483.115.716-.045.208-.15.41-.304.6 0 0 0 .035-.035.045-.437.535-1.145.598-1.854.16-.552-.343-.894-.994-.763-1.45.002 0 0 0 0-.035.002 0-.001 0 0-.035.144-.502.703-.843 1.438-.858zm-14.313.045c.716 0 1.483.59 1.496 1.162a1.49 1.49 0 0 1-.125.622c-.237.6-.847 1.088-1.496 1.086-.576-.002-1.145-.627-1.185-1.29 0-.202.035-.397.1-.58.182-.558.678-.998 1.226-1.004zm35.844.604c.84 0 1.6.703 1.573 1.467-.001 0 0 .035 0 .045 0 .138-.058.275-.128.404-.243.447-.8.803-1.338.786-.685-.035-1.39-.788-1.38-1.508a1.03 1.03 0 0 1 .112-.452c.186-.433.644-.747 1.18-.75zm-57.938.37c.62 0 1.377.91 1.403 1.708 0 .13-.035.253-.058.363v.058c-.13.395-.52.643-1.09.68-.867.058-1.506-.443-1.55-1.215 0-.19.035-.382.1-.563.192-.55.698-1.015 1.21-1.027zm62.333 1.502c.6.035 1.31.655 1.31 1.174v.045c0 .125-.035.253-.1.37-.182.42-.636.765-1.05.733-.6-.045-1.278-.737-1.215-1.244.002 0 .035-.035.035-.035.067-.512.603-1.048 1.04-1.032zm-34.564.3a1.63 1.63 0 0 1 .704.035c.665.138 1.314.81 1.36 1.41.001.035 0 .035 0 .045.003.08-.058.154-.067.234-.035.186-.045.38-.16.546-.17.27-.4.494-.68.598-1.14.425-2.122-.275-2.112-1.502 0-.397.1-.705.253-.927a.99.99 0 0 1 .716-.44zm-17.006.102c.734-.067 1.43.493 1.455 1.168a1 1 0 0 1-.102.417c-.19.442-.697.892-1.132.94-.626.067-1.533-.577-1.567-1.103-.001-.035 0-.035 0-.058-.001 0 0-.035 0-.035 0-.6.646-1.278 1.326-1.338zm6.273.663c.522.035 1.27.888 1.28 1.473v.058c-.003.045-.035.1-.035.14-.035.08-.035.17-.067.246a1.35 1.35 0 0 1-1.209.774c-.722 0-1.502-.77-1.467-1.432.001-.035.035-.035.035-.045.035-.612.815-1.24 1.496-1.203zm-15.3.863c.186.035.377.067.576.16s.42.176.545.334c.39.488.772.835 1.467.498.176-.08.5.08.733.205.444.24.78.596.704 1.15-.001 0-.035 0-.035.035-.002 0 0 .035 0 .035-.058.385-.563.64-1.174.652-.058 0-.112.035-.16 0-.8-.412-1.55-.343-2.306.147-.154.102-.488-.035-.715-.134-.19-.08-.33-.26-.504-.382-.608-.434-.845-.88-.733-1.39a1.85 1.85 0 0 1 .211-.545c.313-.535.807-.797 1.367-.745zm-3.885.1c.697.035 1.262.53 1.29 1.168 0 0 0 .035 0 .045.035.5-.883 1.324-1.415 1.29-.593-.035-1.423-.685-1.426-1.115 0-.035.035-.035.035-.058-.001-.147.058-.297.118-.44.24-.502.84-.915 1.426-.898zm10.727 1.033c.275-.045.602 0 1.004.102.747.21.977.784 1.086 1.414.003.035 0 .035 0 .045.001 0 0 0 0 .035.08.48-.253.79-.7.916-.737.205-1.44.115-2.09-.3l.035.035c-.035-.001-.035-.001-.035 0 .08.32.176.64.234.962.058.338.035.64-.08.904a1.39 1.39 0 0 1-.593.71c.448 0 .898-.058 1.344-.035.663.045.97.326 1.032.962.002.035-.001.035 0 .045v.317c0 .29-.035.586-.035.88.466-.1.94-.285 1.397-.253s.913.45 1.344.41c.436-.035.82-.48 1.262-.652.713-.278 1.74.412 1.725 1.18 0 0 0 .035 0 .035 0 .25-.27.634-.493.71-.44.15-.962.227-1.414.147-.778-.138-1.466-.15-2.066.458-.138.14-.362.224-.563.266-.827.176-1.457-.288-1.555-1.168-.001 0 .001-.035 0-.035s0 0 0-.035c-.035-.246.035-.505.058-.757-.218.147-.423.348-.663.428-.224.08-.526.102-.74 0-.595-.24-.84-.784-1.05-1.35v-.045a1.16 1.16 0 0 1-.045-.669c.058-.234.176-.45.358-.658.035-.045.058-.125.08-.198h-.035c.035 0 .035-.035.045-.035-.035 0-.035 0-.045 0l.035-.035c-.64.067-1.194.035-1.66-.382-.15-.128-.294-.29-.428-.504v-.035c-.618-.993.29-1.916 1.07-1.884.505.035 1 .118 1.514.182v-.045s.035.001.035 0c-.423-.55-.497-1.108-.035-1.678.224-.262.456-.4.733-.452zm-.717 2.13v.035zm-.035.045v-.035c0-.001 0 .001-.035 0zm0 0c.002 0-.001 0 0 .035v-.035zm-.452 2.623zm37.745-4.66c.822-.001 1.5.603 1.497 1.326 0 .035-.035.035-.035.058 0 .035-.035.035-.035.058-.045.584-.848 1.266-1.555 1.297-.62.035-1.325-.66-1.367-1.332-.001-.035 0-.035 0-.058 0-.166.035-.317.08-.463.19-.508.72-.873 1.373-.875zm12.118 0c.658 0 1.003.37 1.027 1.132 0 .192-.035.372-.067.534-.13.484-.506.813-1.004.85-.583.045-1.203-.63-1.273-1.38-.002-.035 0-.035 0-.045 0-.125.035-.243.067-.358.176-.4.67-.72 1.238-.728zm-57.27 1.526c.256.157.676.272.82.54.214.387.348.83.21 1.256-.035.15-.112.297-.224.44-.163.205-.375.475-.593.505-.564.08-.76.376-.94.892-.19.55-1.284.844-1.966.67-.7-.18-1.37-.95-1.385-1.596 0-.186.035-.36.1-.528.157-.468.54-.863 1.062-1.062.64-.243 1.27-.523 1.907-.774.29-.115.592-.198 1.015-.334zm12.482.728c.375-.058.732 0 .986.214.297.243.462.653.552.786 0 .3-.035.563-.08.78-.045.202-.125.36-.224.493-.218.294-.558.445-1.04.47-.058.003-.102 0-.16 0-.73 0-1.375-.214-1.743-.898-.112-.202-.1-.43.035-.663.102-.237.304-.482.598-.717a2.29 2.29 0 0 1 1.086-.469zm41.442.115c.724 0 1.39.63 1.35 1.31 0 .166-.045.307-.102.428-.157.383-.533.57-1.156.574-.93 0-1.364-.322-1.338-1 0-.173.045-.333.115-.48.182-.467.623-.804 1.133-.815zm-36.43 1.29c.77 0 1.677.854 1.655 1.637-.001.035 0 .035-.035.058 0 .214-.192.504-.382.617-.87.51-1.99.08-2.382-.863-.067-.163-.067-.33-.035-.5.1-.484.578-.934 1.145-.945zm-14.278.224c.852.035 1.4.66 1.403 1.63a1.32 1.32 0 0 1-.08.44c-.14.412-.508.644-1.08.652-.838 0-1.716-.538-1.772-1.11-.035-.18.035-.37.102-.552.227-.564.844-1.074 1.42-1.062zm31.302.417a1.32 1.32 0 0 1 1.367 1.115c.035.166-.002.348-.058.528-.15.535-.605 1.078-1.04 1.12-.545.058-1.386-.684-1.48-1.29-.035-.186 0-.37.045-.54.13-.5.59-.91 1.162-.933zm13.832 0c.78-.045 1.196.33 1.22 1.127 0 .176-.035.34-.067.493-.144.49-.545.852-1.026.875-.704.035-1.272-.578-1.268-1.367a1.19 1.19 0 0 1 .09-.452c.147-.403.518-.656 1.056-.693zm-17.816.324c.14.128.45.294.558.54.058.138.067.3.058.488 0 .147-.035.297-.08.446-.112.34-.304.657-.54.8-.48.313-1.013.34-1.508.045-.27-.16-.527-.37-.7-.617-.154-.205-.173-.52-.1-.798.067-.29.243-.548.487-.617.547-.154 1.122-.198 1.83-.317zm10.65.035c.564-.058 1.356.722 1.48 1.45.035.144-.002.3-.058.452-.14.463-.6.9-1.062.934-.67.035-1.573-.626-1.673-1.22-.035-.163 0-.332.067-.504.17-.53.703-1.057 1.244-1.11zm-15.944.428c.657.067 1.464.736 1.32 1.526v.067c0 .058 0 .102-.035.154-.045.7-.427 1.082-1.098 1.09-.75 0-1.52-.693-1.49-1.356.001-.035.035-.035.035-.058 0 0 0 0 0-.035.035-.64.754-1.47 1.285-1.414zm-3.093 1.103c.854 0 1.41.426 1.455 1.138.001.035 0 .035 0 .058a1.21 1.21 0 0 1-.102.481c-.224.553-.835.995-1.485.97-.72-.035-1.475-.636-1.502-1.203-.001-.035.035-.045.035-.067 0-.16.035-.307.1-.452.22-.52.813-.913 1.526-.92zM10.4 184.052a2.32 2.32 0 0 1 .851.035c.384.045.774.13 1.168.266.234.08.423.322.616.504l1.28 1.226c1.543 1.557 3.48 2.486 5.422 3.398 2.227 1.045 4.457 2.082 6.866 2.688 1.08.27 2.073.875 3.15 1.174 2.42.673 4.84 1.384 7.306 1.83 2.255.408 4.57.465 6.854.728 1.97.224 3.937.5 5.898.792.846.125 1.67.36 2.512.522.42.08.648.3.786.704.067.205.058.377-.035.517-.058.16-.163.288-.33.358-.337.138-.726.18-1.097.192-.913.035-1.827 0-2.846 0-2.318.08-4.702-.246-7.09-.604-1.958-.29-3.937-.453-5.903-.693-.9-.112-1.804-.224-2.688-.417-4.435-.98-8.884-1.9-13.174-3.456-1.858-.675-3.796-1.122-5.528-2.13l-4.472-2.54c-.56-.317-1.105-.652-1.678-.94-.684-.343-1.043-.916-1.08-1.52-.035-.27.035-.54.14-.804.128-.3.334-.606.658-.863.746-.59 1.553-.9 2.394-.95zm-4.442.294c.067 0 .182.1.253.173a.8.8 0 0 1 .205.546 1.65 1.65 0 0 1-.09.499c-.112.297-.176.596-.192.892-.058.89.243 1.76.534 2.56.42 1.138 1.578 1.76 2.73 2.065.582.154 1.098.363 1.614.64 3.275 1.76 6.73 3.045 10.358 3.82 3.612.77 7.243 1.45 10.874 2.124 1.412.262 2.847.404 4.272.593l6.672.863c1.758.195 3.554.144 5.282.47 2.508.472 5.036.144 7.547.447 1.684.205 3.41.058 5.117.058 1.72 0 3.443.067 5.158-.035a132.23 132.23 0 0 0 7.054-.522c2.657-.272 5.31-.635 7.957-.98 4.25-.553 8.43-1.467 12.605-2.4 1.825-.408 3.65-.88 5.417-1.49 2.48-.855 4.967-1.737 7.153-3.245 1.104-.76 2.157-1.59 3.24-2.383.214-.157.447-.294.687-.41.067-.035.246 0 .28.058.08.125.163.32.112.423l-.035.035c-.003 0 0 .035 0 .035a2.01 2.01 0 0 1-.476.611c-2.61 2.27-5.432 4.237-8.68 5.457-2.2.827-4.48 1.472-6.755 2.083-2.166.583-4.36 1.07-6.56 1.502-2.724.534-5.47.963-8.204 1.444-.74.128-1.474.29-2.212.428-.423.08-.853.176-1.28.186-3.1.112-6.18.613-9.278.845-1.658.125-3.33.067-4.994.14-2.35.115-4.7-.002-7.048-.058-1.608-.035-3.213-.202-4.812-.387l-9.243-1.168-11.737-1.66c-1.637-.253-3.242-.71-4.865-1.056-1.518-.324-3.063-.552-4.56-.95-2.426-.647-4.9-1.174-7.113-2.46-.458-.266-.99-.395-1.49-.58-.307-.115-.45-.102-.504-.035 0 .102.045.26.16.457.035.045.045.102.035.16-.002 0 0 .035-.035.035-.001 0 0 0 0 .035-.035.192-.208.35-.3.523-.1.173-.122.37.118.657.505.605.988 1.124 1.795 1.232.144.035.294.035.44.035h-.035.058l-.045-.045h.045c-.035-.122-.045-.243-.035-.352.002 0 0 0 0-.035.002 0 0-.035 0-.045.045-.173.163-.336.275-.48.035-.035.21.035.27.102.118.138.128.27.1.393 0 .128-.08.253-.205.346-.1.067-.24.08-.376.1.585.304 1.146.665 1.76.886 2.166.778 4.3 1.613 6.566 2.142 2.183.512 4.31 1.258 6.473 1.854 1.96.54 3.862 1.306 5.904 1.532.1 0 .214.08.27.147.1.122.214.33.173.41 0 0-.035 0-.035.035a.9.9 0 0 0 .035.035c-.1.157-.304.367-.44.352-.902-.102-1.816-.173-2.688-.404l-9.454-2.618c-3.065-.81-6.004-1.958-8.937-3.134-.118-.045-.256-.035-.387-.045.067.102.122.218.214.288.468.354.9.795 1.438 1.02 3.945 1.692 7.993 3.1 12.17 4.085 2.284.538 4.544 1.225 6.9 1.426.21.035.458.035.6.16.19.15.367.388.416.616v.058c0 .112.002.224-.058.304-.067.125-.18.224-.37.26l-.334.102c.08.035.173.08.26.1l2.218.3 7.958 1.07c1.276.16 2.56.256 3.844.352l8.503.617c.27.035.54.035.8.035 1.823.067 3.646.21 5.47.198 2.954 0 5.916.003 8.855-.24 3.635-.3 7.29-.348 10.915-.733 1.595-.17 3.17-.51 4.76-.75.688-.102 1.403-.08 2.077-.234l10.94-2.564c.615-.15 1.172-.517 1.772-.745l4.225-1.573c.128-.058.23-.17.34-.27-.128 0-.266-.035-.382.035-.87.266-1.723.57-2.6.804-.506.134-1.04.176-1.567.192-.067 0-.115-.115-.198-.182-.035-.035-.045-.035-.067-.058-.058-.067-.144-.08-.154-.14 0-.035.035-.045.035-.067 0-.122.1-.25.198-.34.045-.045.045-.125.1-.147l3.732-1.872c.173-.08.326-.192.476-.3-.003-.058-.035-.15-.08-.182-.08-.058-.21-.067-.304-.045l-7.74 2.072c-.102.035-.224.102-.304.067-.182-.067-.435-.157-.487-.3 0-.035.035-.045.035-.067-.058-.144.058-.478.176-.528.64-.27 1.3-.547 1.966-.687 2.28-.47 4.402-1.29 6.326-2.605.058-.045.112-.118.16-.182-.125-.045-.262-.147-.358-.115-1.02.324-2.05.637-3.046 1.026-1.095.43-2.156.95-3.24 1.408-.795.336-1.603.64-2.488.504-.224-.035-.616-.246-.604-.33 0-.035 0-.045.035-.067.045-.278.16-.643.376-.78.445-.285.957-.576 1.467-.634 1.37-.154 2.515-.9 3.773-1.338 2.23-.773 4.295-1.9 6.144-3.392.243-.198.65-.424.657-.645 0-.118.045-.202.067-.3.035-.08.035-.17.058-.234.227-.537.74-.834 1.168-1.203a35.54 35.54 0 0 1 1.878-1.508c.57-.43.594-1.108.857-1.678.058-.134.322-.224.493-.234.1 0 .3.23.282.317-.128.515.1 1.05-.08 1.584-.045.195-.134.388-.3.582-.26.28-.388.643-.434 1.033-.035.397 0 .818.102 1.22.1.36.278.782.173 1.086v.045c-.002 0 .002 0 0 .035-.1.237-.134.477-.173.717-.102.75-.035 1.506-.102 2.254-.003.035 0 .045 0 .067 0 .115-.045.214-.058.33-.058.424-.1.848-.224 1.25-.166.553-.42 1.072-.875 1.52-.26.256-.523.587-.598.927-.195.888-.804 1.39-1.526 1.76-1.094.56-2.222 1.054-3.345 1.555-2.544 1.136-5.243 1.832-7.864 2.752-1.354.476-2.8.673-4.22.99-1.825.41-3.636.922-5.48 1.203-3.653.558-7.295 1.165-11.015 1.203-2.777.035-5.55.317-8.327.452-.634.035-1.277-.157-1.913-.14-1.34.035-2.675.147-4.014.205-.696.035-1.412.115-2.09 0-2.46-.41-4.938-.08-7.4-.294l-4.483-.382-7.5-.898c-1.11-.14-2.213-.37-3.32-.534-.37-.058-.752-.035-1.127-.058-.694-.067-1.388-.125-2.077-.224-1.696-.24-3.4-.456-5.082-.774-1.737-.327-3.45-.76-5.176-1.15l-2.664-.622c-1.865-.48-3.623-1.26-5.41-1.96-.348-.134-.678-.33-1.032-.446-3.473-1.135-6.713-2.8-10-4.36-1.244-.592-1.728-1.638-1.714-2.852.035-.924.067-1.84.21-2.753.134-.893.357-1.78.71-2.652.195-.48.285-1.006.34-1.543.058-.558.058-1.128.067-1.678.035-.464.058-.916.125-1.362.067-.47.17-.93.3-1.385.035-.102.234-.192.37-.227zm7.27 12.265c.001 0 0 0 0 .035 0 0 0 0 .035 0zm36.284-12.03c.396.035.74.256 1.08.47.365.23.82.49.722.97-.002 0 0 .035 0 .035-.002.035 0 .035 0 .045-.115.526-.45.97-1.034 1.12-.205.058-.424.08-.552.102-.846-.035-1.544-.684-1.6-1.426-.001 0 .035-.035.035-.045-.001 0 0-.035 0-.035-.035-.412.465-1.022.956-1.185.147-.045.285-.067.417-.058zm52.233.37c.21.067.383.227.493.458a.81.81 0 0 1 .035.674c-.057.21-.186.39-.393.517-.777.47-1.563.95-2.405 1.273a216.99 216.99 0 0 1-7.382 2.688c-1.414.486-2.872.843-4.307 1.268s-2.852.928-4.36 1.067c-.157 0-.313.1-.47.112l-5.13.364-3.04.27c-.427.035-.855.045-1.286.045h-5.005v-.128l-6.748.44c-.27.035-.535 0-.804 0-2.903.001-5.81.067-8.71-.035-1.975-.058-3.954-.26-5.915-.517-3.08-.406-6.156-.854-9.213-1.397-5.367-.953-10.766-1.753-16.038-3.175-.873-.237-1.713-.62-2.558-.95-.27-.115-.442-.3-.294-.628v-.035c.134-.288.364-.38.657-.266 3.226 1.27 6.677 1.522 10.035 2.177 3.2.626 6.432 1.09 9.66 1.58 2.434.368 4.882.665 7.324.974.477.058.965.035 1.45.045l5.95.224c2.525.122 5.037.147 7.564-.14 1.808-.205 3.654-.067 5.48-.125l10.944-.41c2.19-.115 4.393-.243 6.56-.558 1.576-.227 3.11-.754 4.654-1.174 1.083-.294 2.164-.6 3.227-.97s2.108-.767 3.15-1.18l6.12-2.44c.278-.112.528-.122.74-.045zm-84.37 1.115c.208.368.37.603.452.863.001 0-.035.035-.035.035s.035.035.035.045c.035.058-.297.278-.47.294-.358.035-.593-.294-.47-.634.002 0 .035 0 .035-.035v-.058c.058-.16.25-.275.487-.522zm-2.353 9.994c.424 0 .863.045 1.268.163l4.924 1.473 1.837.558c.253.08.508.182.733.317.118.067.246.227.246.346 0 0-.035.035-.045.035 0 0 .035.035.035.045.002.1-.176.202-.3.266-.1.045-.214.035-.498.058-.406-.1-.984-.195-1.543-.363l-6.608-2c-.058 0-.13 0-.154-.045-.1-.16-.224-.33-.227-.498l.035-.035c-.002 0-.035-.035-.035-.045 0-.1.214-.28.33-.275zm10.258 2.776c.144 0 .297.1.417.182.067.045.058.19.102.376 0 .003-.035 0-.035 0 0 .035 0 .035.035.067-.182.045-.384.16-.552.128-.23-.035-.452-.17-.657-.294-.058-.035-.035-.288-.035-.294s.035 0 .035 0v-.067c.227-.058.466-.102.698-.102zm1.29.352a10.87 10.87 0 0 1 .214.434s-.035 0-.045.035c0 0 .035.035.035.058-.118.058-.227.128-.352.154-.035 0-.166-.16-.147-.205 0 0 .035-.035.035-.045-.002 0-.035-.035-.035-.035.045-.118.15-.21.288-.382zm-13.15.82c-.102-.045-.256.035-.393.058.035.134.035.3.112.352.535.347 1.065.723 1.65.97 2.667 1.128 5.422 2 8.227 2.71 1.448.362 2.938.558 4.413.815-.08-.067-.15-.14-.24-.173l-3.527-1c-2.573-.728-5.17-1.383-7.588-2.576-.864-.427-1.76-.788-2.652-1.156zm21.883 5.346c.1.035.208.195.205.3 0 0-.035.035-.035.035s.035.035.035.035c-.003.08-.17.22-.272.227-.138 0-.285-.08-.604-.173.058-.035.035-.035.1-.045-.035 0-.035 0-.08-.035.445-.253.578-.378.67-.358zm-13.468 1.684c.115.157.262.3.3.475.003 0-.035.035-.035.045l.035.035c.035.067-.173.21-.322.382l-.423-.48c.035 0 .035-.035.045-.045l-.035-.035.428-.376z" fill-rule="evenodd"/></svg>