<svg
   xmlns:dc="http://purl.org/dc/elements/1.1/"
   xmlns:cc="http://creativecommons.org/ns#"
   xmlns:rdf="http://www.w3.org/1999/02/22-rdf-syntax-ns#"
   xmlns:svg="http://www.w3.org/2000/svg"
   xmlns="http://www.w3.org/2000/svg"
   version="1.1"
   id="svg2"
   xml:space="preserve"
   width="334.46667"
   height="111.37333"
   viewBox="0 0 334.46667 111.37333"><metadata
     id="metadata8"><rdf:RDF><cc:Work
         rdf:about=""><dc:format>image/svg+xml</dc:format><dc:type
           rdf:resource="http://purl.org/dc/dcmitype/StillImage" /><dc:title></dc:title></cc:Work></rdf:RDF></metadata><defs
     id="defs6" /><g
     style="fill:#fff;fill-opacity:1"
     id="g10"
     transform="matrix(1.3333333,0,0,-1.3333333,0,111.37333)"><g
       id="g12"
       transform="scale(0.1)"
       style="fill:#fff;fill-opacity:1"><path
         d="M 2508.49,98.8906 V 511.41 L 2053.03,462.164 V 157.27 c 0,0 0.36,-6.184 -9.26,-6.184 h -18.16 -18.14 c -9.62,0 -9.26,6.184 -9.26,6.184 v 137.039 161.918 l -19.22,-2.079 V 157.27 c 0,0 0.36,-6.184 -9.26,-6.184 h -18.14 -18.16 c -9.62,0 -9.26,6.184 -9.26,6.184 V 294.309 448.23 l -265.98,-28.761 v -97.641 c 2.34,0.059 6.9,0.84 11.22,5.461 6.12,6.563 17.8,18.379 30.62,18.379 12.8,0 48.4,-10.039 48.4,-91.559 0,-81.523 -33.46,-105.722 -48.4,-105.722 -8.2,0 -17.02,-0.442 -26.7,8.183 -11.04,9.821 -10.6,10.957 -13.46,10.535 -0.62,-0.097 -1.68,-0.636 -1.68,-1.839 v -7.996 c 0,0 0.36,-6.184 -9.24,-6.184 h -18.16 -18.16 c -9.6,0 -9.24,6.184 -9.24,6.184 V 294.309 413.547 L 997.648,348.051 V 98.8906 Z M 1434.01,289.891 c 0,0 0.18,-4.825 -3.54,-4.825 -3.22,0 -42.28,2.84 -42.3,-25.597 V 157.27 c 0,0 0.36,-6.165 -9.26,-6.165 h -18.14 -18.16 c -9.6,0 -9.26,6.165 -9.26,6.165 v 131.699 5.34 41.796 c 0,5.403 7.12,4.844 7.12,4.844 h 20.3 20.28 c 0,0 7.12,0.559 7.12,-4.844 v -14.359 c 2.38,0.16 7.2,1.063 11.32,5.684 5.7,6.422 16.02,18.16 30.98,18.16 3.06,0 3.54,-1.785 3.54,-4.621 z m 152.92,-58.223 c -1.78,-5.98 -11.02,-5.52 -11.02,-5.52 h -74.76 c 0,-15.14 0.76,-32.039 18.26,-32.039 12.46,0 14.88,8.36 15.94,12.282 1.3,4.98 8.34,4.277 8.34,4.277 h 32.04 c 6.94,0 6.58,-5.34 6.58,-5.34 0,0 3.56,-59.101 -65.14,-59.101 -68.7,0 -72.44,85.441 -72.44,85.441 0,0 -13.52,113.359 71.54,113.359 85.8,0 72.66,-106.718 70.66,-113.359 m 317.66,0 c -1.8,-5.98 -11.04,-5.52 -11.04,-5.52 h -74.76 c 0,-15.14 0.76,-32.039 18.26,-32.039 12.46,0 14.88,8.36 15.96,12.282 1.28,4.98 8.32,4.277 8.32,4.277 h 32.04 c 6.94,0 6.58,-5.34 6.58,-5.34 0,0 3.56,-59.101 -65.14,-59.101 -68.7,0 -72.44,85.441 -72.44,85.441 0,0 -13.52,113.359 71.56,113.359 85.78,0 72.64,-106.718 70.66,-113.359 m 174,104.418 c 0,5.422 7.12,4.844 7.12,4.844 h 20.3 20.28 c 0,0 7.12,0.578 7.12,-4.844 V 157.27 c 0,0 0.36,-6.184 -9.26,-6.184 h -18.14 -18.16 c -9.6,0 -9.26,6.184 -9.26,6.184 v 137.039 z m 60.34,57.344 c 0,-17.782 -14.74,-32.203 -32.92,-32.203 -18.18,0 -32.94,14.421 -32.94,32.203 0,17.797 14.76,32.218 32.94,32.218 18.18,0 32.92,-14.421 32.92,-32.218 m 160.3,-148.024 v -0.019 c 0,-94.879 -58,-97.403 -68.04,-97.403 -1.22,0 -2.84,-0.058 -4.62,-0.058 -1.92,0 -3.92,0.144 -5.12,0.144 -10.04,0 -67.92,8.598 -67.92,97.317 v 0.019 0.039 c 0.02,102.082 64.64,99.602 71.32,99.602 0.46,0 1,-0.039 1.52,-0.078 0.54,0.039 1.08,0.078 1.52,0.078 6.7,0 71.3,2.48 71.34,-99.602 0,-0.019 0,-0.019 0,-0.039 m 148.44,48.903 V 157.27 c 0,0 0.36,-6.184 -9.26,-6.184 h -18.16 -15.18 c -9.62,0 -9.26,6.184 -9.26,6.184 v 117.46 c 0,0 1,12.817 -8.54,12.817 -11.72,0 -15.76,-8.762 -15.78,-12.719 V 157.27 c 0,0 0.36,-6.184 -9.26,-6.184 h -18.14 -18.16 c -9.62,0 -9.26,6.184 -9.26,6.184 v 137.039 41.777 c 0,5.422 7.12,4.844 7.12,4.844 h 20.3 20.28 c 0,0 7.12,0.578 7.12,-4.844 V 321.77 c 4.24,0.156 7.58,2.121 8.68,2.941 3.42,2.559 16.38,20.859 33.68,20.859 37.72,0 33.82,-51.261 33.82,-51.261 m -206.4,-46.325 c 0,0.985 0.14,13.903 -0.94,27.204 -1.12,13.82 -13.74,13.082 -13.74,13.082 0,0 -12.62,0.738 -13.74,-13.082 -1.08,-13.301 -0.94,-26.219 -0.94,-27.204 0,-0.957 -0.14,-15.199 0.94,-28.496 0.64,-8 5.14,-11.121 8.82,-12.324 2.52,-1.098 4.7,-0.953 4.7,-0.953 0,0 1.62,-0.106 3.64,0.559 3.84,0.816 9.58,3.578 10.32,12.718 1.08,13.297 0.94,27.539 0.94,28.496 m -386.98,22.223 c 0,0 0.28,24.82 -17.24,24.82 -17,0 -18.42,-20.539 -18.42,-24.742 0,-4.199 8.18,-3.914 8.18,-3.914 h 19.22 c 9.26,0 8.26,3.836 8.26,3.836 m -317.64,0 c 0,0 0.28,24.82 -17.24,24.82 -17.02,0 -18.44,-20.539 -18.44,-24.742 0,-4.199 8.2,-3.914 8.2,-3.914 h 19.22 c 9.24,0 8.26,3.836 8.26,3.836 m 120.66,-22.223 c 0,-0.957 -0.14,-13.875 0.94,-27.175 1.12,-13.84 13.74,-13.082 13.74,-13.082 0,0 12.62,-0.758 13.74,13.082 1.08,13.3 0.96,26.218 0.94,27.175 0.02,0.985 0.14,13.903 -0.94,27.204 -1.12,13.82 -13.74,13.082 -13.74,13.082 0,0 -12.62,0.738 -13.74,-13.082 -1.08,-13.301 -0.94,-26.219 -0.94,-27.204"
         style="fill:#fff;fill-opacity:1;fill-rule:nonzero;stroke:none"
         id="path14" /><path
         d="m 2385.88,539.875 v 249.16 H 875.039 v -412.5 L 1934.72,491.098 c -20.18,5.48 -55.64,25.539 -55.64,95.199 v 0.039 0.043 c 0.02,102.082 64.64,99.601 71.34,99.601 0.44,0 0.98,-0.039 1.53,-0.085 0.51,0.046 1.05,0.085 1.51,0.085 6.68,0 71.3,2.481 71.32,-99.601 v -0.043 -0.039 c 0,-55.621 -19.91,-79.379 -38.44,-89.621 l 53.53,5.781 v 132.199 41.782 c 0,5.421 7.11,4.839 7.11,4.839 h 20.28 20.3 c 0,0 7.12,0.582 7.12,-4.839 v -14.321 c 4.22,0.16 7.58,2.117 8.68,2.938 3.42,2.566 16.38,20.859 33.66,20.859 37.74,0 33.82,-51.258 33.82,-51.258 V 516.637 Z m -577.82,136.563 c 0,5.421 7.12,4.839 7.12,4.839 h 20.3 20.28 c 0,0 7.12,0.582 7.12,-4.839 V 497.602 c 0,0 0.36,-6.164 -9.26,-6.164 h -18.14 -18.15 c -9.6,0 -9.27,6.164 -9.27,6.164 v 137.054 z m -440.66,0 c 0,5.421 7.12,4.839 7.12,4.839 h 20.28 20.3 c 0,0 7.1,0.582 7.1,-4.839 V 497.602 c 0,0 0.36,-6.164 -9.24,-6.164 h -18.16 -18.16 c -9.6,0 -9.24,6.164 -9.24,6.164 V 634.656 Z M 1089.08,572 c -1.8,-5.98 -11.04,-5.523 -11.04,-5.523 h -74.76 c 0,-15.118 0.76,-32.02 18.28,-32.02 12.44,0 14.86,8.363 15.94,12.277 1.28,4.985 8.32,4.266 8.32,4.266 h 32.04 c 6.94,0 6.58,-5.344 6.58,-5.344 0,0 3.56,-59.078 -65.14,-59.078 -68.698,0 -72.437,85.422 -72.437,85.422 0,0 -13.519,113.379 71.557,113.379 85.78,0 72.66,-106.719 70.66,-113.379 m 156.76,-80.562 h -49.34 c 0,0 -5.26,0 -8.34,5.46 -2.8,5 -17.44,36.661 -17.44,36.661 0,0 -1.42,2.839 -4.26,2.839 -2.86,0 -4.28,-2.839 -4.28,-2.839 0,0 -14.62,-31.661 -17.44,-36.661 -3.06,-5.46 -8.32,-5.46 -8.32,-5.46 h -49.34 c -5.34,0 0,8.664 0,8.664 0,0 48.06,80.437 49.82,84.179 1.8,3.739 0,7.657 0,7.657 0,0 -43.24,77.238 -46.98,83.82 -3.74,6.578 6.6,5.519 6.6,5.519 h 44.3 c 7.84,0 9.62,-4.98 9.62,-4.98 0,0 11.04,-25.641 12.82,-29.539 1.92,-4.481 3.2,-3.918 3.2,-3.918 0,0 1.14,-0.563 3.2,3.918 1.78,3.898 12.82,29.539 12.82,29.539 0,0 1.78,4.98 9.6,4.98 h 44.32 c 0,0 10.32,1.059 6.58,-5.519 -3.74,-6.582 -46.98,-83.82 -46.98,-83.82 0,0 -1.78,-3.918 0,-7.657 1.78,-3.742 49.84,-84.179 49.84,-84.179 0,0 5.34,-8.664 0,-8.664 M 1347,640.559 c 0,0 0.28,-5.903 -5.84,-5.903 h -12.04 V 497.602 c 0,0 0.36,-6.164 -9.24,-6.164 h -18.16 -18.16 c -9.6,0 -9.24,6.164 -9.24,6.164 v 137.054 h -12.04 c -6.12,0 -5.84,5.903 -5.84,5.903 v 35.16 c 0,5.558 5.42,5.558 5.42,5.558 h 12.46 v 47.137 c 0,5.402 7.1,4.844 7.1,4.844 h 20.3 20.28 c 0,0 7.12,0.558 7.12,-4.844 v -47.137 h 12.46 c 0,0 5.42,0 5.42,-5.558 z m 80.73,93.218 c 0,-17.777 -14.75,-32.199 -32.93,-32.199 -18.18,0 -32.92,14.422 -32.92,32.199 0,17.801 14.74,32.223 32.92,32.223 18.18,0 32.93,-14.422 32.93,-32.223 m 145.23,-99.121 V 497.602 c 0,0 0.36,-6.164 -9.26,-6.164 h -18.14 -15.2 c -9.6,0 -9.25,6.164 -9.25,6.164 v 117.472 c 0,0 0.99,12.824 -8.55,12.824 -11.72,0 -15.76,-8.761 -15.78,-12.718 V 497.602 c 0,0 0.36,-6.164 -9.26,-6.164 h -18.13 -18.17 c -9.62,0 -9.26,6.164 -9.26,6.164 v 137.054 41.782 c 0,5.421 7.12,4.839 7.12,4.839 h 20.31 20.27 c 0,0 7.12,0.582 7.12,-4.839 v -14.321 c 4.24,0.16 7.61,2.117 8.68,2.938 3.42,2.566 16.38,20.859 33.68,20.859 37.75,0 33.82,-51.258 33.82,-51.258 m 115.32,-125.441 c 0,0 0.1,-4.113 -1.7,-8.399 -5.76,-11.117 -26.73,-12.175 -32.1,-12.175 -10.03,0 -67.95,-4.407 -67.99,97.675 v 0.063 c 0.04,102.082 64.63,99.601 71.33,99.601 5.38,0 16.7,-2.3 22.06,-6.542 1.7,-1.36 5.14,-3.86 6.7,-7.559 1.8,-4.277 1.7,-8.399 1.7,-8.399 v -31.144 c 0,-5.879 -4.44,-3.922 -4.44,-3.922 0,0 -7.48,3.742 -12.46,3.742 -24.14,0 -24.18,-44.277 -24.18,-45.777 v -0.043 -0.02 c 0,-1.5 0.04,-45.777 24.18,-45.777 4.98,0 12.46,3.742 12.46,3.742 0,0 4.44,1.957 4.44,-3.922 z m 106.95,131.344 c 0,0 0.27,-5.903 -5.84,-5.903 h -12.04 V 497.602 c 0,0 0.35,-6.164 -9.25,-6.164 h -18.16 -18.16 c -9.6,0 -9.24,6.164 -9.24,6.164 v 137.054 h -12.04 c -6.11,0 -5.84,5.903 -5.84,5.903 v 35.16 c 0,5.558 5.42,5.558 5.42,5.558 h 12.46 v 47.137 c 0,5.402 7.12,4.844 7.12,4.844 h 20.28 20.29 c 0,0 7.12,0.558 7.12,-4.844 v -47.137 h 12.46 c 0,0 5.42,0 5.42,-5.558 z m 73.17,93.218 c 0,-17.777 -14.74,-32.199 -32.92,-32.199 -18.17,0 -32.94,14.422 -32.94,32.199 0,17.801 14.77,32.223 32.94,32.223 18.18,0 32.92,-14.422 32.92,-32.223 M 1038.78,610.559 c 0,0 0.28,24.8 -17.22,24.8 -17.02,0 -18.46,-20.543 -18.46,-24.742 0,-4.199 8.2,-3.922 8.2,-3.922 h 19.22 c 9.26,0 8.26,3.864 8.26,3.864 m 898.68,-21.641 c 0,-0.961 -0.13,-15.199 0.94,-28.5 0.66,-7.996 5.15,-11.117 8.82,-12.32 2.52,-1.098 4.73,-0.961 4.73,-0.961 0,0 1.6,-0.098 3.63,0.562 3.83,0.821 9.56,3.578 10.3,12.719 1.08,13.301 0.94,27.539 0.94,28.5 0,0.957 0.14,13.902 -0.94,27.199 -1.12,13.821 -13.74,13.078 -13.74,13.078 0,0 -12.62,0.743 -13.74,-13.078 -1.07,-13.297 -0.94,-26.242 -0.94,-27.199 m 157.22,26.262 V 508.395 l 24.33,2.625 v 104.054 c 0,0 0.99,12.824 -8.55,12.824 -11.74,0 -15.78,-8.761 -15.78,-12.718"
         style="fill:#fff;fill-opacity:1;fill-rule:nonzero;stroke:none"
         id="path16" /><path
         d="m 835.301,417.66 c 0,230.656 -187.004,417.66 -417.66,417.66 C 186.98,835.32 -0.0195313,648.316 0,417.66 -0.0195313,187 186.98,-0.00390625 417.641,-0.00390625 648.32,-0.00390625 835.301,187 835.301,417.66 M 417.641,64.3203 c -88.504,0 -169.321,32.6211 -231.321,86.3787 h 4.743 20.136 405.781 27.258 4.742 C 586.98,96.9414 506.141,64.3203 417.641,64.3203 m 0,301.6017 131,-150.68 H 286.66 Z m 0,103.558 -130.918,150.602 h 261.84 z M 161.34,660.738 372.617,417.699 161.301,174.621 c -60.059,63.34 -97.0041,148.84 -97.0041,243.039 0,94.199 36.9451,179.738 97.0431,243.078 M 417.641,771 c 88.5,0 169.339,-32.598 231.339,-86.359 h -44.3 v -0.02 H 230.621 v 0.02 H 186.32 C 248.32,738.402 329.137,771 417.641,771 M 770.977,417.66 c 0,-94.199 -36.918,-179.699 -96.997,-243.039 L 462.656,417.699 673.961,660.738 c 60.098,-63.34 97.016,-148.879 97.016,-243.078"
         style="fill:#fff;fill-opacity:1;fill-rule:nonzero;stroke:none"
         id="path18" /></g></g></svg>
